{"glyphs":{"0":{"ha":608,"x_min":0,"x_max":0,"o":"m 347 174 l 174 174 l 174 260 l 260 260 l 260 347 l 174 347 l 174 608 l 347 608 l 347 521 l 260 521 l 260 434 l 347 434 z m 87 0 l 434 0 l 434 87 l 521 87 l 521 694 l 434 694 l 434 781 l 87 781 l 87 694 l 0 694 l 0 87 l 87 87 z "},"1":{"ha":608,"x_min":0,"x_max":0,"o":"m 0 0 l 521 0 l 521 174 l 347 174 l 347 781 l 0 781 l 0 608 l 174 608 l 174 174 l 0 174 z "},"2":{"ha":608,"x_min":0,"x_max":0,"o":"m 0 0 l 521 0 l 521 174 l 174 174 l 174 260 l 260 260 l 260 347 l 434 347 l 434 434 l 521 434 l 521 694 l 434 694 l 434 781 l 87 781 l 87 694 l 0 694 l 0 521 l 174 521 l 174 608 l 347 608 l 347 521 l 260 521 l 260 434 l 87 434 l 87 347 l 0 347 z "},"3":{"ha":608,"x_min":0,"x_max":0,"o":"m 87 0 l 434 0 l 434 87 l 521 87 l 521 347 l 434 347 l 434 434 l 521 434 l 521 781 l 0 781 l 0 608 l 347 608 l 347 521 l 87 521 l 87 347 l 347 347 l 347 174 l 174 174 l 174 260 l 0 260 l 0 87 l 87 87 z "},"4":{"ha":608,"x_min":0,"x_max":0,"o":"m 347 0 l 521 0 l 521 781 l 347 781 l 347 434 l 174 434 l 174 781 l 0 781 l 0 260 l 347 260 z "},"5":{"ha":608,"x_min":0,"x_max":0,"o":"m 87 0 l 434 0 l 434 87 l 521 87 l 521 434 l 434 434 l 434 521 l 174 521 l 174 608 l 521 608 l 521 781 l 0 781 l 0 347 l 347 347 l 347 174 l 174 174 l 174 260 l 0 260 l 0 87 l 87 87 z "},"6":{"ha":608,"x_min":0,"x_max":0,"o":"m 347 174 l 174 174 l 174 347 l 347 347 z m 87 0 l 434 0 l 434 87 l 521 87 l 521 434 l 434 434 l 434 521 l 174 521 l 174 608 l 521 608 l 521 781 l 87 781 l 87 694 l 0 694 l 0 87 l 87 87 z "},"7":{"ha":608,"x_min":0,"x_max":0,"o":"m 174 0 l 347 0 l 347 260 l 434 260 l 434 434 l 521 434 l 521 781 l 0 781 l 0 608 l 347 608 l 347 521 l 260 521 l 260 347 l 174 347 z "},"8":{"ha":608,"x_min":0,"x_max":0,"o":"m 347 174 l 174 174 l 174 347 l 260 347 l 260 260 l 347 260 z m 347 434 l 260 434 l 260 521 l 174 521 l 174 608 l 347 608 z m 87 0 l 434 0 l 434 87 l 521 87 l 521 347 l 434 347 l 434 434 l 521 434 l 521 694 l 434 694 l 434 781 l 87 781 l 87 694 l 0 694 l 0 434 l 87 434 l 87 347 l 0 347 l 0 87 l 87 87 z "},"9":{"ha":608,"x_min":0,"x_max":0,"o":"m 347 434 l 174 434 l 174 608 l 347 608 z m 0 0 l 434 0 l 434 87 l 521 87 l 521 694 l 434 694 l 434 781 l 87 781 l 87 694 l 0 694 l 0 347 l 87 347 l 87 260 l 347 260 l 347 174 l 0 174 z "},"ׁ":{"ha":754,"x_min":0,"x_max":0,"o":"m 574 68 l 94 68 l 334 407 z m 68 94 l 68 773 l 307 434 z m 600 94 l 359 434 l 600 773 z m 334 460 l 94 800 l 574 800 z m 0 0 l 667 0 l 667 868 l 0 868 z "},"ׂ":{"ha":754,"x_min":0,"x_max":0,"o":"m 574 68 l 94 68 l 334 407 z m 68 94 l 68 773 l 307 434 z m 600 94 l 359 434 l 600 773 z m 334 460 l 94 800 l 574 800 z m 0 0 l 667 0 l 667 868 l 0 868 z "},"※":{"ha":754,"x_min":0,"x_max":0,"o":"m 574 68 l 94 68 l 334 407 z m 68 94 l 68 773 l 307 434 z m 600 94 l 359 434 l 600 773 z m 334 460 l 94 800 l 574 800 z m 0 0 l 667 0 l 667 868 l 0 868 z "},"₻":{"ha":754,"x_min":0,"x_max":0,"o":"m 574 68 l 94 68 l 334 407 z m 68 94 l 68 773 l 307 434 z m 600 94 l 359 434 l 600 773 z m 334 460 l 94 800 l 574 800 z m 0 0 l 667 0 l 667 868 l 0 868 z "},"℡":{"ha":754,"x_min":0,"x_max":0,"o":"m 574 68 l 94 68 l 334 407 z m 68 94 l 68 773 l 307 434 z m 600 94 l 359 434 l 600 773 z m 334 460 l 94 800 l 574 800 z m 0 0 l 667 0 l 667 868 l 0 868 z "},"∓":{"ha":754,"x_min":0,"x_max":0,"o":"m 574 68 l 94 68 l 334 407 z m 68 94 l 68 773 l 307 434 z m 600 94 l 359 434 l 600 773 z m 334 460 l 94 800 l 574 800 z m 0 0 l 667 0 l 667 868 l 0 868 z "},"∔":{"ha":754,"x_min":0,"x_max":0,"o":"m 574 68 l 94 68 l 334 407 z m 68 94 l 68 773 l 307 434 z m 600 94 l 359 434 l 600 773 z m 334 460 l 94 800 l 574 800 z m 0 0 l 667 0 l 667 868 l 0 868 z "},"≣":{"ha":754,"x_min":0,"x_max":0,"o":"m 574 68 l 94 68 l 334 407 z m 68 94 l 68 773 l 307 434 z m 600 94 l 359 434 l 600 773 z m 334 460 l 94 800 l 574 800 z m 0 0 l 667 0 l 667 868 l 0 868 z "},"⏽":{"ha":754,"x_min":0,"x_max":0,"o":"m 574 68 l 94 68 l 334 407 z m 68 94 l 68 773 l 307 434 z m 600 94 l 359 434 l 600 773 z m 334 460 l 94 800 l 574 800 z m 0 0 l 667 0 l 667 868 l 0 868 z "},"▴":{"ha":754,"x_min":0,"x_max":0,"o":"m 574 68 l 94 68 l 334 407 z m 68 94 l 68 773 l 307 434 z m 600 94 l 359 434 l 600 773 z m 334 460 l 94 800 l 574 800 z m 0 0 l 667 0 l 667 868 l 0 868 z "},"▵":{"ha":754,"x_min":0,"x_max":0,"o":"m 574 68 l 94 68 l 334 407 z m 68 94 l 68 773 l 307 434 z m 600 94 l 359 434 l 600 773 z m 334 460 l 94 800 l 574 800 z m 0 0 l 667 0 l 667 868 l 0 868 z "},"▾":{"ha":754,"x_min":0,"x_max":0,"o":"m 574 68 l 94 68 l 334 407 z m 68 94 l 68 773 l 307 434 z m 600 94 l 359 434 l 600 773 z m 334 460 l 94 800 l 574 800 z m 0 0 l 667 0 l 667 868 l 0 868 z "},"▿":{"ha":754,"x_min":0,"x_max":0,"o":"m 574 68 l 94 68 l 334 407 z m 68 94 l 68 773 l 307 434 z m 600 94 l 359 434 l 600 773 z m 334 460 l 94 800 l 574 800 z m 0 0 l 667 0 l 667 868 l 0 868 z "},"◈":{"ha":754,"x_min":0,"x_max":0,"o":"m 574 68 l 94 68 l 334 407 z m 68 94 l 68 773 l 307 434 z m 600 94 l 359 434 l 600 773 z m 334 460 l 94 800 l 574 800 z m 0 0 l 667 0 l 667 868 l 0 868 z "},"◉":{"ha":754,"x_min":0,"x_max":0,"o":"m 574 68 l 94 68 l 334 407 z m 68 94 l 68 773 l 307 434 z m 600 94 l 359 434 l 600 773 z m 334 460 l 94 800 l 574 800 z m 0 0 l 667 0 l 667 868 l 0 868 z "},"◊":{"ha":754,"x_min":0,"x_max":0,"o":"m 574 68 l 94 68 l 334 407 z m 68 94 l 68 773 l 307 434 z m 600 94 l 359 434 l 600 773 z m 334 460 l 94 800 l 574 800 z m 0 0 l 667 0 l 667 868 l 0 868 z "},"ⸯ":{"ha":754,"x_min":0,"x_max":0,"o":"m 574 68 l 94 68 l 334 407 z m 68 94 l 68 773 l 307 434 z m 600 94 l 359 434 l 600 773 z m 334 460 l 94 800 l 574 800 z m 0 0 l 667 0 l 667 868 l 0 868 z "},"⸲":{"ha":754,"x_min":0,"x_max":0,"o":"m 574 68 l 94 68 l 334 407 z m 68 94 l 68 773 l 307 434 z m 600 94 l 359 434 l 600 773 z m 334 460 l 94 800 l 574 800 z m 0 0 l 667 0 l 667 868 l 0 868 z "},"Ɬ":{"ha":754,"x_min":0,"x_max":0,"o":"m 574 68 l 94 68 l 334 407 z m 68 94 l 68 773 l 307 434 z m 600 94 l 359 434 l 600 773 z m 334 460 l 94 800 l 574 800 z m 0 0 l 667 0 l 667 868 l 0 868 z "},"ﬞ":{"ha":754,"x_min":0,"x_max":0,"o":"m 574 68 l 94 68 l 334 407 z m 68 94 l 68 773 l 307 434 z m 600 94 l 359 434 l 600 773 z m 334 460 l 94 800 l 574 800 z m 0 0 l 667 0 l 667 868 l 0 868 z "},"﬷":{"ha":754,"x_min":0,"x_max":0,"o":"m 574 68 l 94 68 l 334 407 z m 68 94 l 68 773 l 307 434 z m 600 94 l 359 434 l 600 773 z m 334 460 l 94 800 l 574 800 z m 0 0 l 667 0 l 667 868 l 0 868 z "},"﬽":{"ha":754,"x_min":0,"x_max":0,"o":"m 574 68 l 94 68 l 334 407 z m 68 94 l 68 773 l 307 434 z m 600 94 l 359 434 l 600 773 z m 334 460 l 94 800 l 574 800 z m 0 0 l 667 0 l 667 868 l 0 868 z "},"﬿":{"ha":754,"x_min":0,"x_max":0,"o":"m 574 68 l 94 68 l 334 407 z m 68 94 l 68 773 l 307 434 z m 600 94 l 359 434 l 600 773 z m 334 460 l 94 800 l 574 800 z m 0 0 l 667 0 l 667 868 l 0 868 z "},"﭂":{"ha":754,"x_min":0,"x_max":0,"o":"m 574 68 l 94 68 l 334 407 z m 68 94 l 68 773 l 307 434 z m 600 94 l 359 434 l 600 773 z m 334 460 l 94 800 l 574 800 z m 0 0 l 667 0 l 667 868 l 0 868 z "},"﭅":{"ha":754,"x_min":0,"x_max":0,"o":"m 574 68 l 94 68 l 334 407 z m 68 94 l 68 773 l 307 434 z m 600 94 l 359 434 l 600 773 z m 334 460 l 94 800 l 574 800 z m 0 0 l 667 0 l 667 868 l 0 868 z "}," ":{"ha":260,"x_min":0,"x_max":0,"o":""},"!":{"ha":260,"x_min":0,"x_max":0,"o":"m 0 0 l 174 0 l 174 174 l 0 174 z m 0 260 l 174 260 l 174 781 l 0 781 z "},"\"":{"ha":521,"x_min":0,"x_max":0,"o":"m 0 608 l 174 608 l 174 868 l 0 868 z m 260 608 l 434 608 l 434 868 l 260 868 z "},"#":{"ha":694,"x_min":0,"x_max":0,"o":"m 347 347 l 260 347 l 260 434 l 347 434 z m 87 0 l 260 0 l 260 174 l 347 174 l 347 0 l 521 0 l 521 174 l 608 174 l 608 347 l 521 347 l 521 434 l 608 434 l 608 608 l 521 608 l 521 781 l 347 781 l 347 608 l 260 608 l 260 781 l 87 781 l 87 608 l 0 608 l 0 434 l 87 434 l 87 347 l 0 347 l 0 174 l 87 174 z "},"$":{"ha":608,"x_min":0,"x_max":0,"o":"m 174 -87 l 347 -87 l 347 0 l 434 0 l 434 87 l 521 87 l 521 347 l 434 347 l 434 434 l 260 434 l 260 521 l 174 521 l 174 608 l 347 608 l 347 521 l 521 521 l 521 694 l 434 694 l 434 781 l 347 781 l 347 868 l 174 868 l 174 781 l 87 781 l 87 694 l 0 694 l 0 434 l 87 434 l 87 347 l 260 347 l 260 260 l 347 260 l 347 174 l 174 174 l 174 260 l 0 260 l 0 87 l 87 87 l 87 0 l 174 0 z "},"%":{"ha":694,"x_min":0,"x_max":0,"o":"m 0 0 l 174 0 l 174 174 l 260 174 l 260 347 l 87 347 l 87 174 l 0 174 z m 347 0 l 608 0 l 608 347 l 347 347 z m 0 434 l 260 434 l 260 781 l 0 781 z m 347 434 l 521 434 l 521 608 l 608 608 l 608 781 l 434 781 l 434 608 l 347 608 z "},"&":{"ha":694,"x_min":0,"x_max":0,"o":"m 347 174 l 174 174 l 174 347 l 347 347 z m 87 0 l 521 0 l 521 347 l 608 347 l 608 521 l 174 521 l 174 608 l 434 608 l 434 781 l 87 781 l 87 694 l 0 694 l 0 521 l 87 521 l 87 434 l 0 434 l 0 87 l 87 87 z "},"'":{"ha":260,"x_min":0,"x_max":0,"o":"m 0 608 l 174 608 l 174 868 l 0 868 z "},"(":{"ha":347,"x_min":0,"x_max":0,"o":"m 87 -87 l 260 -87 l 260 87 l 174 87 l 174 694 l 260 694 l 260 868 l 87 868 l 87 781 l 0 781 l 0 0 l 87 0 z "},")":{"ha":347,"x_min":0,"x_max":0,"o":"m 0 -87 l 174 -87 l 174 0 l 260 0 l 260 781 l 174 781 l 174 868 l 0 868 l 0 694 l 87 694 l 87 87 l 0 87 z "},"*":{"ha":608,"x_min":0,"x_max":0,"o":"m 0 174 l 174 174 l 174 347 l 347 347 l 347 174 l 521 174 l 521 347 l 434 347 l 434 434 l 521 434 l 521 608 l 347 608 l 347 781 l 174 781 l 174 608 l 0 608 l 0 434 l 87 434 l 87 347 l 0 347 z "},"+":{"ha":608,"x_min":0,"x_max":0,"o":"m 174 87 l 347 87 l 347 260 l 521 260 l 521 434 l 347 434 l 347 608 l 174 608 l 174 434 l 0 434 l 0 260 l 174 260 z "},",":{"ha":260,"x_min":0,"x_max":0,"o":"m 0 -87 l 87 -87 l 87 0 l 174 0 l 174 174 l 0 174 z "},"-":{"ha":434,"x_min":0,"x_max":0,"o":"m 0 260 l 347 260 l 347 434 l 0 434 z "},".":{"ha":260,"x_min":0,"x_max":0,"o":"m 0 0 l 174 0 l 174 174 l 0 174 z "},"/":{"ha":521,"x_min":0,"x_max":0,"o":"m 0 -87 l 174 -87 l 174 174 l 260 174 l 260 347 l 347 347 l 347 608 l 434 608 l 434 868 l 260 868 l 260 608 l 174 608 l 174 434 l 87 434 l 87 174 l 0 174 z "},":":{"ha":260,"x_min":0,"x_max":0,"o":"m 0 0 l 174 0 l 174 174 l 0 174 z m 0 521 l 174 521 l 174 694 l 0 694 z "},";":{"ha":260,"x_min":0,"x_max":0,"o":"m 0 -87 l 87 -87 l 87 0 l 174 0 l 174 174 l 0 174 z m 0 521 l 174 521 l 174 694 l 0 694 z "},"<":{"ha":608,"x_min":0,"x_max":0,"o":"m 347 87 l 521 87 l 521 260 l 347 260 l 347 347 l 174 347 l 174 434 l 347 434 l 347 521 l 521 521 l 521 694 l 347 694 l 347 608 l 174 608 l 174 521 l 0 521 l 0 260 l 174 260 l 174 174 l 347 174 z "},"=":{"ha":608,"x_min":0,"x_max":0,"o":"m 0 174 l 521 174 l 521 347 l 0 347 z m 0 434 l 521 434 l 521 608 l 0 608 z "},">":{"ha":608,"x_min":0,"x_max":0,"o":"m 0 87 l 174 87 l 174 174 l 347 174 l 347 260 l 521 260 l 521 521 l 347 521 l 347 608 l 174 608 l 174 694 l 0 694 l 0 521 l 174 521 l 174 434 l 347 434 l 347 347 l 174 347 l 174 260 l 0 260 z "},"?":{"ha":608,"x_min":0,"x_max":0,"o":"m 174 0 l 347 0 l 347 174 l 174 174 z m 174 260 l 434 260 l 434 347 l 521 347 l 521 694 l 434 694 l 434 781 l 87 781 l 87 694 l 0 694 l 0 521 l 174 521 l 174 608 l 347 608 l 347 434 l 174 434 z "},"@":{"ha":781,"x_min":0,"x_max":0,"o":"m 521 260 l 434 260 l 434 434 l 521 434 z m 87 -174 l 694 -174 l 694 0 l 174 0 l 174 694 l 521 694 l 521 608 l 347 608 l 347 521 l 260 521 l 260 174 l 347 174 l 347 87 l 694 87 l 694 781 l 608 781 l 608 868 l 87 868 l 87 781 l 0 781 l 0 -87 l 87 -87 z "},"A":{"ha":608,"x_min":0,"x_max":0,"o":"m 347 434 l 174 434 l 174 608 l 347 608 z m 0 0 l 174 0 l 174 260 l 347 260 l 347 0 l 521 0 l 521 694 l 434 694 l 434 781 l 87 781 l 87 694 l 0 694 z "},"B":{"ha":608,"x_min":0,"x_max":0,"o":"m 347 174 l 174 174 l 174 347 l 347 347 z m 347 521 l 174 521 l 174 608 l 347 608 z m 0 0 l 434 0 l 434 87 l 521 87 l 521 434 l 434 434 l 434 521 l 521 521 l 521 694 l 434 694 l 434 781 l 0 781 z "},"C":{"ha":608,"x_min":0,"x_max":0,"o":"m 87 0 l 434 0 l 434 87 l 521 87 l 521 260 l 347 260 l 347 174 l 174 174 l 174 608 l 347 608 l 347 521 l 521 521 l 521 694 l 434 694 l 434 781 l 87 781 l 87 694 l 0 694 l 0 87 l 87 87 z "},"D":{"ha":608,"x_min":0,"x_max":0,"o":"m 347 174 l 174 174 l 174 608 l 347 608 z m 0 0 l 434 0 l 434 87 l 521 87 l 521 694 l 434 694 l 434 781 l 0 781 z "},"E":{"ha":608,"x_min":0,"x_max":0,"o":"m 0 0 l 521 0 l 521 174 l 174 174 l 174 347 l 434 347 l 434 521 l 174 521 l 174 608 l 521 608 l 521 781 l 0 781 z "},"F":{"ha":608,"x_min":0,"x_max":0,"o":"m 0 0 l 174 0 l 174 260 l 434 260 l 434 434 l 174 434 l 174 608 l 521 608 l 521 781 l 0 781 z "},"G":{"ha":608,"x_min":0,"x_max":0,"o":"m 87 0 l 521 0 l 521 434 l 347 434 l 347 174 l 174 174 l 174 608 l 347 608 l 347 521 l 521 521 l 521 694 l 434 694 l 434 781 l 87 781 l 87 694 l 0 694 l 0 87 l 87 87 z "},"H":{"ha":608,"x_min":0,"x_max":0,"o":"m 0 0 l 174 0 l 174 347 l 347 347 l 347 0 l 521 0 l 521 781 l 347 781 l 347 521 l 174 521 l 174 781 l 0 781 z "},"I":{"ha":434,"x_min":0,"x_max":0,"o":"m 0 0 l 347 0 l 347 174 l 260 174 l 260 608 l 347 608 l 347 781 l 0 781 l 0 608 l 87 608 l 87 174 l 0 174 z "},"J":{"ha":608,"x_min":0,"x_max":0,"o":"m 87 0 l 434 0 l 434 87 l 521 87 l 521 781 l 347 781 l 347 174 l 174 174 l 174 260 l 0 260 l 0 87 l 87 87 z "},"K":{"ha":608,"x_min":0,"x_max":0,"o":"m 0 0 l 174 0 l 174 347 l 347 347 l 347 0 l 521 0 l 521 347 l 434 347 l 434 521 l 521 521 l 521 781 l 347 781 l 347 521 l 174 521 l 174 781 l 0 781 z "},"L":{"ha":608,"x_min":0,"x_max":0,"o":"m 0 0 l 521 0 l 521 174 l 174 174 l 174 781 l 0 781 z "},"M":{"ha":781,"x_min":0,"x_max":0,"o":"m 0 0 l 174 0 l 174 608 l 260 608 l 260 0 l 434 0 l 434 608 l 521 608 l 521 0 l 694 0 l 694 694 l 608 694 l 608 781 l 87 781 l 87 694 l 0 694 z "},"N":{"ha":608,"x_min":0,"x_max":0,"o":"m 0 0 l 174 0 l 174 608 l 347 608 l 347 0 l 521 0 l 521 694 l 434 694 l 434 781 l 87 781 l 87 694 l 0 694 z "},"O":{"ha":608,"x_min":0,"x_max":0,"o":"m 347 174 l 174 174 l 174 608 l 347 608 z m 87 0 l 434 0 l 434 87 l 521 87 l 521 694 l 434 694 l 434 781 l 87 781 l 87 694 l 0 694 l 0 87 l 87 87 z "},"P":{"ha":608,"x_min":0,"x_max":0,"o":"m 347 434 l 174 434 l 174 608 l 347 608 z m 0 0 l 174 0 l 174 260 l 434 260 l 434 347 l 521 347 l 521 694 l 434 694 l 434 781 l 0 781 z "},"Q":{"ha":608,"x_min":0,"x_max":0,"o":"m 260 174 l 174 174 l 174 260 l 260 260 z m 347 347 l 260 347 l 260 434 l 174 434 l 174 608 l 347 608 z m 87 0 l 260 0 l 260 87 l 347 87 l 347 0 l 521 0 l 521 174 l 434 174 l 434 260 l 521 260 l 521 694 l 434 694 l 434 781 l 87 781 l 87 694 l 0 694 l 0 87 l 87 87 z "},"R":{"ha":608,"x_min":0,"x_max":0,"o":"m 347 434 l 174 434 l 174 608 l 347 608 z m 0 0 l 174 0 l 174 260 l 347 260 l 347 0 l 521 0 l 521 347 l 434 347 l 434 434 l 521 434 l 521 694 l 434 694 l 434 781 l 0 781 z "},"S":{"ha":608,"x_min":0,"x_max":0,"o":"m 87 0 l 434 0 l 434 87 l 521 87 l 521 347 l 434 347 l 434 434 l 260 434 l 260 521 l 174 521 l 174 608 l 347 608 l 347 521 l 521 521 l 521 694 l 434 694 l 434 781 l 87 781 l 87 694 l 0 694 l 0 434 l 87 434 l 87 347 l 260 347 l 260 260 l 347 260 l 347 174 l 174 174 l 174 260 l 0 260 l 0 87 l 87 87 z "},"T":{"ha":608,"x_min":0,"x_max":0,"o":"m 174 0 l 347 0 l 347 608 l 521 608 l 521 781 l 0 781 l 0 608 l 174 608 z "},"U":{"ha":608,"x_min":0,"x_max":0,"o":"m 87 0 l 434 0 l 434 87 l 521 87 l 521 781 l 347 781 l 347 174 l 174 174 l 174 781 l 0 781 l 0 87 l 87 87 z "},"V":{"ha":608,"x_min":0,"x_max":0,"o":"m 174 0 l 347 0 l 347 174 l 434 174 l 434 347 l 521 347 l 521 781 l 347 781 l 347 347 l 174 347 l 174 781 l 0 781 l 0 347 l 87 347 l 87 174 l 174 174 z "},"W":{"ha":781,"x_min":0,"x_max":0,"o":"m 87 0 l 608 0 l 608 87 l 694 87 l 694 781 l 521 781 l 521 174 l 434 174 l 434 781 l 260 781 l 260 174 l 174 174 l 174 781 l 0 781 l 0 87 l 87 87 z "},"X":{"ha":608,"x_min":0,"x_max":0,"o":"m 0 0 l 174 0 l 174 347 l 347 347 l 347 0 l 521 0 l 521 347 l 434 347 l 434 521 l 521 521 l 521 781 l 347 781 l 347 521 l 174 521 l 174 781 l 0 781 l 0 521 l 87 521 l 87 347 l 0 347 z "},"Y":{"ha":608,"x_min":0,"x_max":0,"o":"m 0 0 l 434 0 l 434 87 l 521 87 l 521 781 l 347 781 l 347 434 l 174 434 l 174 781 l 0 781 l 0 347 l 87 347 l 87 260 l 347 260 l 347 174 l 0 174 z "},"Z":{"ha":608,"x_min":0,"x_max":0,"o":"m 0 0 l 521 0 l 521 174 l 174 174 l 174 260 l 260 260 l 260 347 l 434 347 l 434 434 l 521 434 l 521 781 l 0 781 l 0 608 l 347 608 l 347 521 l 260 521 l 260 434 l 87 434 l 87 347 l 0 347 z "},"[":{"ha":347,"x_min":0,"x_max":0,"o":"m 0 -87 l 260 -87 l 260 87 l 174 87 l 174 694 l 260 694 l 260 868 l 0 868 z "},"\\":{"ha":521,"x_min":0,"x_max":0,"o":"m 260 -87 l 434 -87 l 434 174 l 347 174 l 347 434 l 260 434 l 260 608 l 174 608 l 174 868 l 0 868 l 0 608 l 87 608 l 87 347 l 174 347 l 174 174 l 260 174 z "},"]":{"ha":347,"x_min":0,"x_max":0,"o":"m 0 -87 l 260 -87 l 260 868 l 0 868 l 0 694 l 87 694 l 87 87 l 0 87 z "},"^":{"ha":608,"x_min":0,"x_max":0,"o":"m 0 434 l 174 434 l 174 608 l 347 608 l 347 434 l 521 434 l 521 608 l 434 608 l 434 781 l 347 781 l 347 868 l 174 868 l 174 781 l 87 781 l 87 608 l 0 608 z "},"_":{"ha":608,"x_min":0,"x_max":0,"o":"m 0 -174 l 521 -174 l 521 0 l 0 0 z "},"`":{"ha":434,"x_min":0,"x_max":0,"o":"m 174 521 l 347 521 l 347 694 l 260 694 l 260 781 l 174 781 l 174 868 l 0 868 l 0 694 l 87 694 l 87 608 l 174 608 z "},"a":{"ha":608,"x_min":0,"x_max":0,"o":"m 347 174 l 174 174 l 174 260 l 347 260 z m 87 0 l 521 0 l 521 608 l 434 608 l 434 694 l 0 694 l 0 521 l 347 521 l 347 434 l 87 434 l 87 347 l 0 347 l 0 87 l 87 87 z "},"b":{"ha":608,"x_min":0,"x_max":0,"o":"m 347 174 l 174 174 l 174 521 l 347 521 z m 0 0 l 434 0 l 434 87 l 521 87 l 521 608 l 434 608 l 434 694 l 174 694 l 174 868 l 0 868 z "},"c":{"ha":608,"x_min":0,"x_max":0,"o":"m 87 0 l 434 0 l 434 87 l 521 87 l 521 260 l 347 260 l 347 174 l 174 174 l 174 521 l 347 521 l 347 434 l 521 434 l 521 608 l 434 608 l 434 694 l 87 694 l 87 608 l 0 608 l 0 87 l 87 87 z "},"d":{"ha":608,"x_min":0,"x_max":0,"o":"m 347 174 l 174 174 l 174 521 l 347 521 z m 87 0 l 521 0 l 521 868 l 347 868 l 347 694 l 87 694 l 87 608 l 0 608 l 0 87 l 87 87 z "},"e":{"ha":608,"x_min":0,"x_max":0,"o":"m 347 434 l 174 434 l 174 521 l 347 521 z m 87 0 l 521 0 l 521 174 l 174 174 l 174 260 l 521 260 l 521 608 l 434 608 l 434 694 l 87 694 l 87 608 l 0 608 l 0 87 l 87 87 z "},"f":{"ha":434,"x_min":0,"x_max":0,"o":"m 0 0 l 174 0 l 174 434 l 347 434 l 347 608 l 174 608 l 174 694 l 347 694 l 347 868 l 87 868 l 87 781 l 0 781 z "},"g":{"ha":608,"x_min":0,"x_max":0,"o":"m 347 260 l 174 260 l 174 521 l 347 521 z m 0 -174 l 434 -174 l 434 -87 l 521 -87 l 521 694 l 87 694 l 87 608 l 0 608 l 0 174 l 87 174 l 87 87 l 347 87 l 347 0 l 0 0 z "},"h":{"ha":608,"x_min":0,"x_max":0,"o":"m 0 0 l 174 0 l 174 521 l 347 521 l 347 0 l 521 0 l 521 608 l 434 608 l 434 694 l 174 694 l 174 868 l 0 868 z "},"i":{"ha":260,"x_min":0,"x_max":0,"o":"m 0 0 l 174 0 l 174 608 l 0 608 z m 0 694 l 174 694 l 174 868 l 0 868 z "},"j":{"ha":347,"x_min":0,"x_max":0,"o":"m 0 -174 l 174 -174 l 174 -87 l 260 -87 l 260 608 l 0 608 l 0 434 l 87 434 l 87 0 l 0 0 z m 87 694 l 260 694 l 260 868 l 87 868 z "},"k":{"ha":608,"x_min":0,"x_max":0,"o":"m 0 0 l 174 0 l 174 260 l 347 260 l 347 0 l 521 0 l 521 347 l 434 347 l 434 434 l 521 434 l 521 694 l 347 694 l 347 434 l 174 434 l 174 868 l 0 868 z "},"l":{"ha":347,"x_min":0,"x_max":0,"o":"m 87 0 l 260 0 l 260 174 l 174 174 l 174 868 l 0 868 l 0 87 l 87 87 z "},"m":{"ha":781,"x_min":0,"x_max":0,"o":"m 0 0 l 174 0 l 174 521 l 260 521 l 260 0 l 434 0 l 434 521 l 521 521 l 521 0 l 694 0 l 694 608 l 608 608 l 608 694 l 434 694 l 434 608 l 347 608 l 347 694 l 0 694 z "},"n":{"ha":608,"x_min":0,"x_max":0,"o":"m 0 0 l 174 0 l 174 521 l 347 521 l 347 0 l 521 0 l 521 608 l 434 608 l 434 694 l 0 694 z "},"o":{"ha":608,"x_min":0,"x_max":0,"o":"m 347 174 l 174 174 l 174 521 l 347 521 z m 87 0 l 434 0 l 434 87 l 521 87 l 521 608 l 434 608 l 434 694 l 87 694 l 87 608 l 0 608 l 0 87 l 87 87 z "},"p":{"ha":608,"x_min":0,"x_max":0,"o":"m 347 174 l 174 174 l 174 521 l 347 521 z m 0 -174 l 174 -174 l 174 0 l 434 0 l 434 87 l 521 87 l 521 608 l 434 608 l 434 694 l 0 694 z "},"q":{"ha":608,"x_min":0,"x_max":0,"o":"m 347 174 l 174 174 l 174 521 l 347 521 z m 347 -174 l 521 -174 l 521 694 l 87 694 l 87 608 l 0 608 l 0 87 l 87 87 l 87 0 l 347 0 z "},"r":{"ha":521,"x_min":0,"x_max":0,"o":"m 0 0 l 174 0 l 174 434 l 260 434 l 260 521 l 434 521 l 434 694 l 260 694 l 260 608 l 174 608 l 174 694 l 0 694 z "},"s":{"ha":608,"x_min":0,"x_max":0,"o":"m 0 0 l 434 0 l 434 87 l 521 87 l 521 347 l 434 347 l 434 434 l 174 434 l 174 521 l 521 521 l 521 694 l 87 694 l 87 608 l 0 608 l 0 347 l 87 347 l 87 260 l 347 260 l 347 174 l 0 174 z "},"t":{"ha":434,"x_min":0,"x_max":0,"o":"m 87 0 l 347 0 l 347 174 l 174 174 l 174 521 l 347 521 l 347 694 l 174 694 l 174 868 l 0 868 l 0 87 l 87 87 z "},"u":{"ha":608,"x_min":0,"x_max":0,"o":"m 87 0 l 521 0 l 521 694 l 347 694 l 347 174 l 174 174 l 174 694 l 0 694 l 0 87 l 87 87 z "},"v":{"ha":608,"x_min":0,"x_max":0,"o":"m 174 0 l 347 0 l 347 174 l 434 174 l 434 347 l 521 347 l 521 694 l 347 694 l 347 347 l 174 347 l 174 694 l 0 694 l 0 347 l 87 347 l 87 174 l 174 174 z "},"w":{"ha":781,"x_min":0,"x_max":0,"o":"m 87 0 l 608 0 l 608 87 l 694 87 l 694 694 l 521 694 l 521 174 l 434 174 l 434 694 l 260 694 l 260 174 l 174 174 l 174 694 l 0 694 l 0 87 l 87 87 z "},"x":{"ha":608,"x_min":0,"x_max":0,"o":"m 0 0 l 174 0 l 174 260 l 347 260 l 347 0 l 521 0 l 521 347 l 434 347 l 434 434 l 521 434 l 521 694 l 347 694 l 347 434 l 174 434 l 174 694 l 0 694 l 0 434 l 87 434 l 87 347 l 0 347 z "},"y":{"ha":608,"x_min":0,"x_max":0,"o":"m 0 -174 l 434 -174 l 434 -87 l 521 -87 l 521 694 l 347 694 l 347 260 l 174 260 l 174 694 l 0 694 l 0 174 l 87 174 l 87 87 l 347 87 l 347 0 l 0 0 z "},"z":{"ha":608,"x_min":0,"x_max":0,"o":"m 0 0 l 521 0 l 521 174 l 174 174 l 174 260 l 434 260 l 434 347 l 521 347 l 521 694 l 0 694 l 0 521 l 347 521 l 347 434 l 87 434 l 87 347 l 0 347 z "},"{":{"ha":434,"x_min":0,"x_max":0,"o":"m 174 -87 l 347 -87 l 347 87 l 260 87 l 260 347 l 174 347 l 174 434 l 260 434 l 260 694 l 347 694 l 347 868 l 174 868 l 174 781 l 87 781 l 87 521 l 0 521 l 0 347 l 87 347 l 87 0 l 174 0 z "},"|":{"ha":260,"x_min":0,"x_max":0,"o":"m 0 -174 l 174 -174 l 174 868 l 0 868 z "},"}":{"ha":434,"x_min":0,"x_max":0,"o":"m 0 -87 l 174 -87 l 174 0 l 260 0 l 260 347 l 347 347 l 347 521 l 260 521 l 260 781 l 174 781 l 174 868 l 0 868 l 0 694 l 87 694 l 87 434 l 174 434 l 174 347 l 87 347 l 87 87 l 0 87 z "},"~":{"ha":608,"x_min":0,"x_max":0,"o":"m 0 260 l 174 260 l 174 347 l 260 347 l 260 260 l 434 260 l 434 347 l 521 347 l 521 521 l 347 521 l 347 434 l 260 434 l 260 521 l 87 521 l 87 434 l 0 434 z "}," ":{"ha":260,"x_min":0,"x_max":0,"o":""},"¡":{"ha":260,"x_min":0,"x_max":0,"o":"m 0 -87 l 174 -87 l 174 434 l 0 434 z m 0 521 l 174 521 l 174 694 l 0 694 z "},"¢":{"ha":608,"x_min":0,"x_max":0,"o":"m 174 -174 l 347 -174 l 347 0 l 434 0 l 434 87 l 521 87 l 521 260 l 347 260 l 347 174 l 174 174 l 174 521 l 347 521 l 347 434 l 521 434 l 521 608 l 434 608 l 434 694 l 347 694 l 347 868 l 174 868 l 174 694 l 87 694 l 87 608 l 0 608 l 0 87 l 87 87 l 87 0 l 174 0 z "},"£":{"ha":694,"x_min":0,"x_max":0,"o":"m 0 0 l 174 0 l 174 87 l 260 87 l 260 0 l 521 0 l 521 87 l 608 87 l 608 260 l 434 260 l 434 174 l 260 174 l 260 347 l 347 347 l 347 521 l 260 521 l 260 608 l 434 608 l 434 521 l 608 521 l 608 694 l 521 694 l 521 781 l 174 781 l 174 694 l 87 694 l 87 521 l 0 521 l 0 347 l 87 347 l 87 174 l 0 174 z "},"¤":{"ha":608,"x_min":0,"x_max":0,"o":"m 347 347 l 174 347 l 174 434 l 347 434 z m 0 87 l 174 87 l 174 174 l 347 174 l 347 87 l 521 87 l 521 174 l 434 174 l 434 260 l 521 260 l 521 521 l 434 521 l 434 608 l 521 608 l 521 694 l 347 694 l 347 608 l 174 608 l 174 694 l 0 694 l 0 608 l 87 608 l 87 521 l 0 521 l 0 260 l 87 260 l 87 174 l 0 174 z "},"¥":{"ha":608,"x_min":0,"x_max":0,"o":"m 174 0 l 347 0 l 347 87 l 521 87 l 521 260 l 347 260 l 347 347 l 434 347 l 434 434 l 521 434 l 521 781 l 347 781 l 347 521 l 174 521 l 174 781 l 0 781 l 0 434 l 87 434 l 87 347 l 174 347 l 174 260 l 0 260 l 0 87 l 174 87 z "},"¦":{"ha":260,"x_min":0,"x_max":0,"o":"m 0 -174 l 174 -174 l 174 260 l 0 260 z m 0 434 l 174 434 l 174 868 l 0 868 z "},"§":{"ha":608,"x_min":0,"x_max":0,"o":"m 347 260 l 174 260 l 174 434 l 347 434 z m 0 -174 l 434 -174 l 434 -87 l 521 -87 l 521 174 l 434 174 l 434 260 l 521 260 l 521 521 l 434 521 l 434 608 l 174 608 l 174 694 l 521 694 l 521 868 l 87 868 l 87 781 l 0 781 l 0 521 l 87 521 l 87 434 l 0 434 l 0 174 l 87 174 l 87 87 l 347 87 l 347 0 l 0 0 z "},"¨":{"ha":434,"x_min":0,"x_max":0,"o":"m 0 781 l 87 781 l 87 868 l 0 868 z m 260 781 l 347 781 l 347 868 l 260 868 z "},"©":{"ha":1042,"x_min":0,"x_max":0,"o":"m 347 87 l 694 87 l 694 260 l 434 260 l 434 434 l 694 434 l 694 608 l 347 608 l 347 521 l 260 521 l 260 174 l 347 174 z m 781 0 l 174 0 l 174 694 l 781 694 z m 87 -174 l 868 -174 l 868 -87 l 955 -87 l 955 781 l 868 781 l 868 868 l 87 868 l 87 781 l 0 781 l 0 -87 l 87 -87 z "},"ª":{"ha":608,"x_min":0,"x_max":0,"o":"m 0 0 l 521 0 l 521 174 l 0 174 z m 347 434 l 174 434 l 174 521 l 347 521 z m 87 260 l 521 260 l 521 781 l 434 781 l 434 868 l 0 868 l 0 694 l 347 694 l 347 608 l 87 608 l 87 521 l 0 521 l 0 347 l 87 347 z "},"«":{"ha":781,"x_min":0,"x_max":0,"o":"m 174 87 l 347 87 l 347 260 l 260 260 l 260 434 l 347 434 l 347 608 l 174 608 l 174 521 l 87 521 l 87 434 l 0 434 l 0 260 l 87 260 l 87 174 l 174 174 z m 521 87 l 694 87 l 694 260 l 608 260 l 608 434 l 694 434 l 694 608 l 521 608 l 521 521 l 434 521 l 434 434 l 347 434 l 347 260 l 434 260 l 434 174 l 521 174 z "},"¬":{"ha":608,"x_min":0,"x_max":0,"o":"m 347 174 l 521 174 l 521 521 l 0 521 l 0 347 l 347 347 z "},"­":{"ha":434,"x_min":0,"x_max":0,"o":"m 0 260 l 347 260 l 347 434 l 0 434 z "},"®":{"ha":1042,"x_min":0,"x_max":0,"o":"m 521 347 l 434 347 l 434 434 l 521 434 z m 260 87 l 434 87 l 434 174 l 521 174 l 521 87 l 694 87 l 694 260 l 608 260 l 608 347 l 694 347 l 694 521 l 608 521 l 608 608 l 260 608 z m 781 0 l 174 0 l 174 694 l 781 694 z m 87 -174 l 868 -174 l 868 -87 l 955 -87 l 955 781 l 868 781 l 868 868 l 87 868 l 87 781 l 0 781 l 0 -87 l 87 -87 z "},"¯":{"ha":608,"x_min":0,"x_max":0,"o":"m 0 694 l 521 694 l 521 868 l 0 868 z "},"°":{"ha":521,"x_min":0,"x_max":0,"o":"m 260 608 l 174 608 l 174 694 l 260 694 z m 87 434 l 347 434 l 347 521 l 434 521 l 434 781 l 347 781 l 347 868 l 87 868 l 87 781 l 0 781 l 0 521 l 87 521 z "},"±":{"ha":608,"x_min":0,"x_max":0,"o":"m 0 0 l 521 0 l 521 174 l 0 174 z m 174 260 l 347 260 l 347 434 l 521 434 l 521 608 l 347 608 l 347 781 l 174 781 l 174 608 l 0 608 l 0 434 l 174 434 z "},"²":{"ha":521,"x_min":0,"x_max":0,"o":"m 0 347 l 434 347 l 434 521 l 260 521 l 260 608 l 434 608 l 434 781 l 347 781 l 347 868 l 0 868 l 0 694 l 174 694 l 174 608 l 87 608 l 87 521 l 0 521 z "},"³":{"ha":521,"x_min":0,"x_max":0,"o":"m 0 347 l 347 347 l 347 434 l 434 434 l 434 608 l 347 608 l 347 694 l 434 694 l 434 868 l 0 868 l 0 694 l 87 694 l 87 608 l 174 608 l 174 521 l 0 521 z "},"´":{"ha":434,"x_min":0,"x_max":0,"o":"m 0 521 l 174 521 l 174 608 l 260 608 l 260 694 l 347 694 l 347 868 l 174 868 l 174 781 l 87 781 l 87 694 l 0 694 z "},"µ":{"ha":608,"x_min":0,"x_max":0,"o":"m 0 -174 l 174 -174 l 174 0 l 260 0 l 260 87 l 347 87 l 347 0 l 521 0 l 521 694 l 347 694 l 347 260 l 260 260 l 260 174 l 174 174 l 174 694 l 0 694 z "},"¶":{"ha":608,"x_min":0,"x_max":0,"o":"m 260 0 l 347 0 l 347 868 l 87 868 l 87 781 l 0 781 l 0 434 l 87 434 l 87 347 l 260 347 z m 434 0 l 521 0 l 521 868 l 434 868 z "},"·":{"ha":260,"x_min":0,"x_max":0,"o":"m 0 260 l 174 260 l 174 434 l 0 434 z "},"¸":{"ha":434,"x_min":0,"x_max":0,"o":"m 0 -174 l 260 -174 l 260 -87 l 347 -87 l 347 87 l 260 87 l 260 260 l 87 260 l 87 87 l 174 87 l 174 0 l 0 0 z "},"¹":{"ha":434,"x_min":0,"x_max":0,"o":"m 0 347 l 347 347 l 347 521 l 260 521 l 260 868 l 0 868 l 0 694 l 87 694 l 87 521 l 0 521 z "},"º":{"ha":608,"x_min":0,"x_max":0,"o":"m 0 0 l 521 0 l 521 174 l 0 174 z m 347 434 l 174 434 l 174 694 l 347 694 z m 87 260 l 434 260 l 434 347 l 521 347 l 521 781 l 434 781 l 434 868 l 87 868 l 87 781 l 0 781 l 0 347 l 87 347 z "},"»":{"ha":781,"x_min":0,"x_max":0,"o":"m 0 87 l 174 87 l 174 174 l 260 174 l 260 260 l 347 260 l 347 434 l 260 434 l 260 521 l 174 521 l 174 608 l 0 608 l 0 434 l 87 434 l 87 260 l 0 260 z m 347 87 l 521 87 l 521 174 l 608 174 l 608 260 l 694 260 l 694 434 l 608 434 l 608 521 l 521 521 l 521 608 l 347 608 l 347 434 l 434 434 l 434 260 l 347 260 z "},"¼":{"ha":1042,"x_min":0,"x_max":0,"o":"m 0 -174 l 174 -174 l 174 -87 l 260 -87 l 260 0 l 347 0 l 347 87 l 434 87 l 434 260 l 260 260 l 260 174 l 174 174 l 174 87 l 87 87 l 87 0 l 0 0 z m 781 -174 l 955 -174 l 955 347 l 781 347 l 781 87 l 694 87 l 694 347 l 521 347 l 521 -87 l 781 -87 z m 87 347 l 434 347 l 434 521 l 347 521 l 347 868 l 87 868 l 87 694 l 174 694 l 174 521 l 87 521 z m 521 434 l 694 434 l 694 521 l 781 521 l 781 608 l 868 608 l 868 694 l 955 694 l 955 868 l 781 868 l 781 781 l 694 781 l 694 694 l 608 694 l 608 608 l 521 608 z "},"½":{"ha":1042,"x_min":0,"x_max":0,"o":"m 0 -174 l 174 -174 l 174 -87 l 260 -87 l 260 0 l 347 0 l 347 87 l 434 87 l 434 260 l 260 260 l 260 174 l 174 174 l 174 87 l 87 87 l 87 0 l 0 0 z m 521 -174 l 955 -174 l 955 0 l 781 0 l 781 87 l 955 87 l 955 260 l 868 260 l 868 347 l 521 347 l 521 174 l 694 174 l 694 87 l 608 87 l 608 0 l 521 0 z m 87 347 l 434 347 l 434 521 l 347 521 l 347 868 l 87 868 l 87 694 l 174 694 l 174 521 l 87 521 z m 521 434 l 694 434 l 694 521 l 781 521 l 781 608 l 868 608 l 868 694 l 955 694 l 955 868 l 781 868 l 781 781 l 694 781 l 694 694 l 608 694 l 608 608 l 521 608 z "},"¾":{"ha":1042,"x_min":0,"x_max":0,"o":"m 0 -174 l 174 -174 l 174 -87 l 260 -87 l 260 0 l 347 0 l 347 87 l 434 87 l 434 260 l 260 260 l 260 174 l 174 174 l 174 87 l 87 87 l 87 0 l 0 0 z m 781 -174 l 955 -174 l 955 347 l 781 347 l 781 87 l 694 87 l 694 347 l 521 347 l 521 -87 l 781 -87 z m 0 347 l 347 347 l 347 434 l 434 434 l 434 608 l 347 608 l 347 694 l 434 694 l 434 868 l 0 868 l 0 694 l 87 694 l 87 608 l 174 608 l 174 521 l 0 521 z m 521 434 l 694 434 l 694 521 l 781 521 l 781 608 l 868 608 l 868 694 l 955 694 l 955 868 l 781 868 l 781 781 l 694 781 l 694 694 l 608 694 l 608 608 l 521 608 z "},"¿":{"ha":608,"x_min":0,"x_max":0,"o":"m 87 -87 l 434 -87 l 434 0 l 521 0 l 521 174 l 347 174 l 347 87 l 174 87 l 174 260 l 347 260 l 347 434 l 87 434 l 87 347 l 0 347 l 0 0 l 87 0 z m 174 521 l 347 521 l 347 694 l 174 694 z "},"À":{"ha":608,"x_min":0,"x_max":0,"o":"m 347 434 l 174 434 l 174 608 l 347 608 z m 0 0 l 174 0 l 174 260 l 347 260 l 347 0 l 521 0 l 521 694 l 434 694 l 434 781 l 87 781 l 87 694 l 0 694 z m 174 868 l 347 868 l 347 955 l 260 955 l 260 1042 l 87 1042 l 87 955 l 174 955 z "},"Á":{"ha":608,"x_min":0,"x_max":0,"o":"m 347 434 l 174 434 l 174 608 l 347 608 z m 0 0 l 174 0 l 174 260 l 347 260 l 347 0 l 521 0 l 521 694 l 434 694 l 434 781 l 87 781 l 87 694 l 0 694 z m 174 868 l 347 868 l 347 955 l 434 955 l 434 1042 l 260 1042 l 260 955 l 174 955 z "},"Â":{"ha":608,"x_min":0,"x_max":0,"o":"m 347 434 l 174 434 l 174 608 l 347 608 z m 0 0 l 174 0 l 174 260 l 347 260 l 347 0 l 521 0 l 521 694 l 434 694 l 434 781 l 87 781 l 87 694 l 0 694 z m 87 868 l 434 868 l 434 955 l 347 955 l 347 1042 l 174 1042 l 174 955 l 87 955 z "},"Ã":{"ha":608,"x_min":0,"x_max":0,"o":"m 347 434 l 174 434 l 174 608 l 347 608 z m 0 0 l 174 0 l 174 260 l 347 260 l 347 0 l 521 0 l 521 694 l 434 694 l 434 781 l 87 781 l 87 694 l 0 694 z m 87 868 l 174 868 l 174 955 l 87 955 z m 260 868 l 347 868 l 347 955 l 260 955 z m 174 955 l 260 955 l 260 1042 l 174 1042 z m 347 955 l 434 955 l 434 1042 l 347 1042 z "},"Ä":{"ha":608,"x_min":0,"x_max":0,"o":"m 347 434 l 174 434 l 174 608 l 347 608 z m 0 0 l 174 0 l 174 260 l 347 260 l 347 0 l 521 0 l 521 694 l 434 694 l 434 781 l 87 781 l 87 694 l 0 694 z m 87 868 l 174 868 l 174 955 l 87 955 z m 347 868 l 434 868 l 434 955 l 347 955 z "},"Å":{"ha":608,"x_min":0,"x_max":0,"o":"m 347 434 l 174 434 l 174 608 l 347 608 z m 0 0 l 174 0 l 174 260 l 347 260 l 347 0 l 521 0 l 521 694 l 434 694 l 434 868 l 347 868 l 347 781 l 174 781 l 174 868 l 87 868 l 87 694 l 0 694 z m 174 868 l 347 868 l 347 955 l 174 955 z "},"Æ":{"ha":781,"x_min":0,"x_max":0,"o":"m 260 521 l 174 521 l 174 608 l 260 608 z m 0 0 l 174 0 l 174 347 l 260 347 l 260 0 l 694 0 l 694 174 l 434 174 l 434 347 l 608 347 l 608 521 l 434 521 l 434 608 l 694 608 l 694 781 l 87 781 l 87 694 l 0 694 z "},"Ç":{"ha":608,"x_min":0,"x_max":0,"o":"m 87 -174 l 260 -174 l 260 -87 l 347 -87 l 347 0 l 434 0 l 434 87 l 521 87 l 521 260 l 347 260 l 347 174 l 174 174 l 174 608 l 347 608 l 347 521 l 521 521 l 521 694 l 434 694 l 434 781 l 87 781 l 87 694 l 0 694 l 0 87 l 87 87 l 87 0 l 174 0 l 174 -87 l 87 -87 z "},"È":{"ha":608,"x_min":0,"x_max":0,"o":"m 0 0 l 521 0 l 521 174 l 174 174 l 174 347 l 434 347 l 434 521 l 174 521 l 174 608 l 521 608 l 521 781 l 0 781 z m 174 868 l 347 868 l 347 955 l 260 955 l 260 1042 l 87 1042 l 87 955 l 174 955 z "},"É":{"ha":608,"x_min":0,"x_max":0,"o":"m 0 0 l 521 0 l 521 174 l 174 174 l 174 347 l 434 347 l 434 521 l 174 521 l 174 608 l 521 608 l 521 781 l 0 781 z m 174 868 l 347 868 l 347 955 l 434 955 l 434 1042 l 260 1042 l 260 955 l 174 955 z "},"Ê":{"ha":608,"x_min":0,"x_max":0,"o":"m 0 0 l 521 0 l 521 174 l 174 174 l 174 347 l 434 347 l 434 521 l 174 521 l 174 608 l 521 608 l 521 781 l 0 781 z m 87 868 l 434 868 l 434 955 l 347 955 l 347 1042 l 174 1042 l 174 955 l 87 955 z "},"Ë":{"ha":608,"x_min":0,"x_max":0,"o":"m 0 0 l 521 0 l 521 174 l 174 174 l 174 347 l 434 347 l 434 521 l 174 521 l 174 608 l 521 608 l 521 781 l 0 781 z m 87 868 l 174 868 l 174 955 l 87 955 z m 347 868 l 434 868 l 434 955 l 347 955 z "},"Ì":{"ha":434,"x_min":0,"x_max":0,"o":"m 0 0 l 347 0 l 347 174 l 260 174 l 260 608 l 347 608 l 347 781 l 0 781 l 0 608 l 87 608 l 87 174 l 0 174 z m 87 868 l 260 868 l 260 955 l 174 955 l 174 1042 l 0 1042 l 0 955 l 87 955 z "},"Í":{"ha":434,"x_min":0,"x_max":0,"o":"m 0 0 l 347 0 l 347 174 l 260 174 l 260 608 l 347 608 l 347 781 l 0 781 l 0 608 l 87 608 l 87 174 l 0 174 z m 87 868 l 260 868 l 260 955 l 347 955 l 347 1042 l 174 1042 l 174 955 l 87 955 z "},"Î":{"ha":434,"x_min":0,"x_max":0,"o":"m 0 0 l 347 0 l 347 174 l 260 174 l 260 608 l 347 608 l 347 781 l 0 781 l 0 608 l 87 608 l 87 174 l 0 174 z m 0 868 l 347 868 l 347 955 l 260 955 l 260 1042 l 87 1042 l 87 955 l 0 955 z "},"Ï":{"ha":434,"x_min":0,"x_max":0,"o":"m 0 0 l 347 0 l 347 174 l 260 174 l 260 608 l 347 608 l 347 781 l 0 781 l 0 608 l 87 608 l 87 174 l 0 174 z m 0 868 l 87 868 l 87 955 l 0 955 z m 260 868 l 347 868 l 347 955 l 260 955 z "},"Ð":{"ha":694,"x_min":0,"x_max":0,"o":"m 434 174 l 260 174 l 260 347 l 347 347 l 347 521 l 260 521 l 260 608 l 434 608 z m 87 0 l 521 0 l 521 87 l 608 87 l 608 694 l 521 694 l 521 781 l 87 781 l 87 521 l 0 521 l 0 347 l 87 347 z "},"Ñ":{"ha":608,"x_min":0,"x_max":0,"o":"m 0 0 l 174 0 l 174 608 l 347 608 l 347 0 l 521 0 l 521 694 l 434 694 l 434 781 l 87 781 l 87 694 l 0 694 z m 87 868 l 174 868 l 174 955 l 87 955 z m 260 868 l 347 868 l 347 955 l 260 955 z m 174 955 l 260 955 l 260 1042 l 174 1042 z m 347 955 l 434 955 l 434 1042 l 347 1042 z "},"Ò":{"ha":608,"x_min":0,"x_max":0,"o":"m 347 174 l 174 174 l 174 608 l 347 608 z m 87 0 l 434 0 l 434 87 l 521 87 l 521 694 l 434 694 l 434 781 l 87 781 l 87 694 l 0 694 l 0 87 l 87 87 z m 174 868 l 347 868 l 347 955 l 260 955 l 260 1042 l 87 1042 l 87 955 l 174 955 z "},"Ó":{"ha":608,"x_min":0,"x_max":0,"o":"m 347 174 l 174 174 l 174 608 l 347 608 z m 87 0 l 434 0 l 434 87 l 521 87 l 521 694 l 434 694 l 434 781 l 87 781 l 87 694 l 0 694 l 0 87 l 87 87 z m 174 868 l 347 868 l 347 955 l 434 955 l 434 1042 l 260 1042 l 260 955 l 174 955 z "},"Ô":{"ha":608,"x_min":0,"x_max":0,"o":"m 347 174 l 174 174 l 174 608 l 347 608 z m 87 0 l 434 0 l 434 87 l 521 87 l 521 694 l 434 694 l 434 781 l 87 781 l 87 694 l 0 694 l 0 87 l 87 87 z m 87 868 l 434 868 l 434 955 l 347 955 l 347 1042 l 174 1042 l 174 955 l 87 955 z "},"Õ":{"ha":608,"x_min":0,"x_max":0,"o":"m 347 174 l 174 174 l 174 608 l 347 608 z m 87 0 l 434 0 l 434 87 l 521 87 l 521 694 l 434 694 l 434 781 l 87 781 l 87 694 l 0 694 l 0 87 l 87 87 z m 87 868 l 174 868 l 174 955 l 87 955 z m 260 868 l 347 868 l 347 955 l 260 955 z m 174 955 l 260 955 l 260 1042 l 174 1042 z m 347 955 l 434 955 l 434 1042 l 347 1042 z "},"Ö":{"ha":608,"x_min":0,"x_max":0,"o":"m 347 174 l 174 174 l 174 608 l 347 608 z m 87 0 l 434 0 l 434 87 l 521 87 l 521 694 l 434 694 l 434 781 l 87 781 l 87 694 l 0 694 l 0 87 l 87 87 z m 87 868 l 174 868 l 174 955 l 87 955 z m 347 868 l 434 868 l 434 955 l 347 955 z "},"×":{"ha":608,"x_min":0,"x_max":0,"o":"m 0 87 l 174 87 l 174 174 l 347 174 l 347 87 l 521 87 l 521 260 l 434 260 l 434 434 l 521 434 l 521 608 l 347 608 l 347 521 l 174 521 l 174 608 l 0 608 l 0 434 l 87 434 l 87 260 l 0 260 z "},"Ø":{"ha":608,"x_min":0,"x_max":0,"o":"m 0 -87 l 87 -87 l 87 0 l 0 0 z m 347 174 l 174 174 l 174 260 l 260 260 l 260 347 l 174 347 l 174 608 l 347 608 l 347 521 l 260 521 l 260 434 l 347 434 z m 87 0 l 434 0 l 434 87 l 521 87 l 521 694 l 434 694 l 434 781 l 87 781 l 87 694 l 0 694 l 0 87 l 87 87 z m 434 781 l 521 781 l 521 868 l 434 868 z "},"Ù":{"ha":608,"x_min":0,"x_max":0,"o":"m 87 0 l 434 0 l 434 87 l 521 87 l 521 781 l 347 781 l 347 174 l 174 174 l 174 781 l 0 781 l 0 87 l 87 87 z m 174 868 l 347 868 l 347 955 l 260 955 l 260 1042 l 87 1042 l 87 955 l 174 955 z "},"Ú":{"ha":608,"x_min":0,"x_max":0,"o":"m 87 0 l 434 0 l 434 87 l 521 87 l 521 781 l 347 781 l 347 174 l 174 174 l 174 781 l 0 781 l 0 87 l 87 87 z m 174 868 l 347 868 l 347 955 l 434 955 l 434 1042 l 260 1042 l 260 955 l 174 955 z "},"Û":{"ha":608,"x_min":0,"x_max":0,"o":"m 87 0 l 434 0 l 434 87 l 521 87 l 521 781 l 347 781 l 347 174 l 174 174 l 174 781 l 0 781 l 0 87 l 87 87 z m 87 868 l 434 868 l 434 955 l 347 955 l 347 1042 l 174 1042 l 174 955 l 87 955 z "},"Ü":{"ha":608,"x_min":0,"x_max":0,"o":"m 87 0 l 434 0 l 434 87 l 521 87 l 521 781 l 347 781 l 347 174 l 174 174 l 174 781 l 0 781 l 0 87 l 87 87 z m 87 868 l 174 868 l 174 955 l 87 955 z m 347 868 l 434 868 l 434 955 l 347 955 z "},"Ý":{"ha":608,"x_min":0,"x_max":0,"o":"m 0 0 l 434 0 l 434 87 l 521 87 l 521 781 l 347 781 l 347 434 l 174 434 l 174 781 l 0 781 l 0 347 l 87 347 l 87 260 l 347 260 l 347 174 l 0 174 z m 174 868 l 347 868 l 347 955 l 434 955 l 434 1042 l 260 1042 l 260 955 l 174 955 z "},"Þ":{"ha":608,"x_min":0,"x_max":0,"o":"m 347 347 l 174 347 l 174 521 l 347 521 z m 0 0 l 174 0 l 174 174 l 434 174 l 434 260 l 521 260 l 521 608 l 434 608 l 434 694 l 174 694 l 174 781 l 0 781 z "},"ß":{"ha":608,"x_min":0,"x_max":0,"o":"m 0 0 l 174 0 l 174 694 l 347 694 l 347 521 l 260 521 l 260 347 l 347 347 l 347 174 l 260 174 l 260 0 l 434 0 l 434 87 l 521 87 l 521 434 l 434 434 l 434 521 l 521 521 l 521 781 l 434 781 l 434 868 l 87 868 l 87 781 l 0 781 z "},"à":{"ha":608,"x_min":0,"x_max":0,"o":"m 347 174 l 174 174 l 174 260 l 347 260 z m 87 0 l 521 0 l 521 608 l 434 608 l 434 694 l 0 694 l 0 521 l 347 521 l 347 434 l 87 434 l 87 347 l 0 347 l 0 87 l 87 87 z m 174 781 l 347 781 l 347 868 l 260 868 l 260 955 l 87 955 l 87 868 l 174 868 z "},"á":{"ha":608,"x_min":0,"x_max":0,"o":"m 347 174 l 174 174 l 174 260 l 347 260 z m 87 0 l 521 0 l 521 608 l 434 608 l 434 694 l 0 694 l 0 521 l 347 521 l 347 434 l 87 434 l 87 347 l 0 347 l 0 87 l 87 87 z m 174 781 l 347 781 l 347 868 l 434 868 l 434 955 l 260 955 l 260 868 l 174 868 z "},"â":{"ha":608,"x_min":0,"x_max":0,"o":"m 347 174 l 174 174 l 174 260 l 347 260 z m 87 0 l 521 0 l 521 608 l 434 608 l 434 694 l 0 694 l 0 521 l 347 521 l 347 434 l 87 434 l 87 347 l 0 347 l 0 87 l 87 87 z m 87 781 l 434 781 l 434 868 l 347 868 l 347 955 l 174 955 l 174 868 l 87 868 z "},"ã":{"ha":608,"x_min":0,"x_max":0,"o":"m 347 174 l 174 174 l 174 260 l 347 260 z m 87 0 l 521 0 l 521 608 l 434 608 l 434 694 l 0 694 l 0 521 l 347 521 l 347 434 l 87 434 l 87 347 l 0 347 l 0 87 l 87 87 z m 87 781 l 174 781 l 174 868 l 87 868 z m 260 781 l 347 781 l 347 868 l 260 868 z m 174 868 l 260 868 l 260 955 l 174 955 z m 347 868 l 434 868 l 434 955 l 347 955 z "},"ä":{"ha":608,"x_min":0,"x_max":0,"o":"m 347 174 l 174 174 l 174 260 l 347 260 z m 87 0 l 521 0 l 521 608 l 434 608 l 434 694 l 0 694 l 0 521 l 347 521 l 347 434 l 87 434 l 87 347 l 0 347 l 0 87 l 87 87 z m 87 781 l 174 781 l 174 868 l 87 868 z m 347 781 l 434 781 l 434 868 l 347 868 z "},"å":{"ha":608,"x_min":0,"x_max":0,"o":"m 347 174 l 174 174 l 174 260 l 347 260 z m 87 0 l 521 0 l 521 608 l 434 608 l 434 781 l 347 781 l 347 694 l 174 694 l 174 781 l 87 781 l 87 694 l 0 694 l 0 521 l 347 521 l 347 434 l 87 434 l 87 347 l 0 347 l 0 87 l 87 87 z m 174 781 l 347 781 l 347 868 l 174 868 z "},"æ":{"ha":781,"x_min":0,"x_max":0,"o":"m 260 174 l 174 174 l 174 260 l 260 260 z m 521 434 l 434 434 l 434 521 l 521 521 z m 87 0 l 347 0 l 347 87 l 434 87 l 434 0 l 694 0 l 694 174 l 434 174 l 434 260 l 694 260 l 694 608 l 608 608 l 608 694 l 434 694 l 434 608 l 347 608 l 347 694 l 0 694 l 0 521 l 260 521 l 260 434 l 87 434 l 87 347 l 0 347 l 0 87 l 87 87 z "},"ç":{"ha":608,"x_min":0,"x_max":0,"o":"m 87 -174 l 260 -174 l 260 -87 l 347 -87 l 347 0 l 434 0 l 434 87 l 521 87 l 521 260 l 347 260 l 347 174 l 174 174 l 174 521 l 347 521 l 347 434 l 521 434 l 521 608 l 434 608 l 434 694 l 87 694 l 87 608 l 0 608 l 0 87 l 87 87 l 87 0 l 174 0 l 174 -87 l 87 -87 z "},"è":{"ha":608,"x_min":0,"x_max":0,"o":"m 347 434 l 174 434 l 174 521 l 347 521 z m 87 0 l 521 0 l 521 174 l 174 174 l 174 260 l 521 260 l 521 608 l 434 608 l 434 694 l 87 694 l 87 608 l 0 608 l 0 87 l 87 87 z m 174 781 l 347 781 l 347 868 l 260 868 l 260 955 l 87 955 l 87 868 l 174 868 z "},"é":{"ha":608,"x_min":0,"x_max":0,"o":"m 347 434 l 174 434 l 174 521 l 347 521 z m 87 0 l 521 0 l 521 174 l 174 174 l 174 260 l 521 260 l 521 608 l 434 608 l 434 694 l 87 694 l 87 608 l 0 608 l 0 87 l 87 87 z m 174 781 l 347 781 l 347 868 l 434 868 l 434 955 l 260 955 l 260 868 l 174 868 z "},"ê":{"ha":608,"x_min":0,"x_max":0,"o":"m 347 434 l 174 434 l 174 521 l 347 521 z m 87 0 l 521 0 l 521 174 l 174 174 l 174 260 l 521 260 l 521 608 l 434 608 l 434 694 l 87 694 l 87 608 l 0 608 l 0 87 l 87 87 z m 87 781 l 434 781 l 434 868 l 347 868 l 347 955 l 174 955 l 174 868 l 87 868 z "},"ë":{"ha":608,"x_min":0,"x_max":0,"o":"m 347 434 l 174 434 l 174 521 l 347 521 z m 87 0 l 521 0 l 521 174 l 174 174 l 174 260 l 521 260 l 521 608 l 434 608 l 434 694 l 87 694 l 87 608 l 0 608 l 0 87 l 87 87 z m 87 781 l 174 781 l 174 868 l 87 868 z m 347 781 l 434 781 l 434 868 l 347 868 z "},"ì":{"ha":260,"x_min":0,"x_max":0,"o":"m 0 0 l 174 0 l 174 608 l 0 608 z m 0 694 l 174 694 l 174 781 l 87 781 l 87 868 l -87 868 l -87 781 l 0 781 z "},"í":{"ha":260,"x_min":0,"x_max":0,"o":"m 0 0 l 174 0 l 174 608 l 0 608 z m 0 694 l 174 694 l 174 781 l 260 781 l 260 868 l 87 868 l 87 781 l 0 781 z "},"î":{"ha":260,"x_min":0,"x_max":0,"o":"m 0 0 l 174 0 l 174 608 l 0 608 z m -87 694 l 260 694 l 260 781 l 174 781 l 174 868 l 0 868 l 0 781 l -87 781 z "},"ï":{"ha":260,"x_min":0,"x_max":0,"o":"m 0 0 l 174 0 l 174 608 l 0 608 z m -87 694 l 0 694 l 0 781 l -87 781 z m 174 694 l 260 694 l 260 781 l 174 781 z "},"ð":{"ha":608,"x_min":0,"x_max":0,"o":"m 347 174 l 174 174 l 174 434 l 347 434 z m 87 0 l 434 0 l 434 87 l 521 87 l 521 521 l 434 521 l 434 694 l 521 694 l 521 781 l 347 781 l 347 868 l 174 868 l 174 781 l 87 781 l 87 694 l 260 694 l 260 608 l 87 608 l 87 521 l 0 521 l 0 87 l 87 87 z "},"ñ":{"ha":608,"x_min":0,"x_max":0,"o":"m 0 0 l 174 0 l 174 521 l 347 521 l 347 0 l 521 0 l 521 608 l 434 608 l 434 694 l 0 694 z m 87 781 l 174 781 l 174 868 l 87 868 z m 260 781 l 347 781 l 347 868 l 260 868 z m 174 868 l 260 868 l 260 955 l 174 955 z m 347 868 l 434 868 l 434 955 l 347 955 z "},"ò":{"ha":608,"x_min":0,"x_max":0,"o":"m 347 174 l 174 174 l 174 521 l 347 521 z m 87 0 l 434 0 l 434 87 l 521 87 l 521 608 l 434 608 l 434 694 l 87 694 l 87 608 l 0 608 l 0 87 l 87 87 z m 174 781 l 347 781 l 347 868 l 260 868 l 260 955 l 87 955 l 87 868 l 174 868 z "},"ó":{"ha":608,"x_min":0,"x_max":0,"o":"m 347 174 l 174 174 l 174 521 l 347 521 z m 87 0 l 434 0 l 434 87 l 521 87 l 521 608 l 434 608 l 434 694 l 87 694 l 87 608 l 0 608 l 0 87 l 87 87 z m 174 781 l 347 781 l 347 868 l 434 868 l 434 955 l 260 955 l 260 868 l 174 868 z "},"ô":{"ha":608,"x_min":0,"x_max":0,"o":"m 347 174 l 174 174 l 174 521 l 347 521 z m 87 0 l 434 0 l 434 87 l 521 87 l 521 608 l 434 608 l 434 694 l 87 694 l 87 608 l 0 608 l 0 87 l 87 87 z m 87 781 l 434 781 l 434 868 l 347 868 l 347 955 l 174 955 l 174 868 l 87 868 z "},"õ":{"ha":608,"x_min":0,"x_max":0,"o":"m 347 174 l 174 174 l 174 521 l 347 521 z m 87 0 l 434 0 l 434 87 l 521 87 l 521 608 l 434 608 l 434 694 l 87 694 l 87 608 l 0 608 l 0 87 l 87 87 z m 87 781 l 174 781 l 174 868 l 87 868 z m 260 781 l 347 781 l 347 868 l 260 868 z m 174 868 l 260 868 l 260 955 l 174 955 z m 347 868 l 434 868 l 434 955 l 347 955 z "},"ö":{"ha":608,"x_min":0,"x_max":0,"o":"m 347 174 l 174 174 l 174 521 l 347 521 z m 87 0 l 434 0 l 434 87 l 521 87 l 521 608 l 434 608 l 434 694 l 87 694 l 87 608 l 0 608 l 0 87 l 87 87 z m 87 781 l 174 781 l 174 868 l 87 868 z m 347 781 l 434 781 l 434 868 l 347 868 z "},"÷":{"ha":608,"x_min":0,"x_max":0,"o":"m 174 0 l 347 0 l 347 174 l 174 174 z m 0 260 l 521 260 l 521 434 l 0 434 z m 174 521 l 347 521 l 347 694 l 174 694 z "},"ø":{"ha":608,"x_min":0,"x_max":0,"o":"m 0 -87 l 87 -87 l 87 0 l 0 0 z m 347 174 l 174 174 l 174 260 l 260 260 l 260 347 l 174 347 l 174 521 l 347 521 l 347 434 l 260 434 l 260 347 l 347 347 z m 87 0 l 434 0 l 434 87 l 521 87 l 521 608 l 434 608 l 434 694 l 87 694 l 87 608 l 0 608 l 0 87 l 87 87 z m 434 694 l 521 694 l 521 781 l 434 781 z "},"ù":{"ha":608,"x_min":0,"x_max":0,"o":"m 87 0 l 521 0 l 521 694 l 347 694 l 347 174 l 174 174 l 174 694 l 0 694 l 0 87 l 87 87 z m 174 781 l 347 781 l 347 868 l 260 868 l 260 955 l 87 955 l 87 868 l 174 868 z "},"ú":{"ha":608,"x_min":0,"x_max":0,"o":"m 87 0 l 521 0 l 521 694 l 347 694 l 347 174 l 174 174 l 174 694 l 0 694 l 0 87 l 87 87 z m 174 781 l 347 781 l 347 868 l 434 868 l 434 955 l 260 955 l 260 868 l 174 868 z "},"û":{"ha":608,"x_min":0,"x_max":0,"o":"m 87 0 l 521 0 l 521 694 l 347 694 l 347 174 l 174 174 l 174 694 l 0 694 l 0 87 l 87 87 z m 87 781 l 434 781 l 434 868 l 347 868 l 347 955 l 174 955 l 174 868 l 87 868 z "},"ü":{"ha":608,"x_min":0,"x_max":0,"o":"m 87 0 l 521 0 l 521 694 l 347 694 l 347 174 l 174 174 l 174 694 l 0 694 l 0 87 l 87 87 z m 87 781 l 174 781 l 174 868 l 87 868 z m 347 781 l 434 781 l 434 868 l 347 868 z "},"ý":{"ha":608,"x_min":0,"x_max":0,"o":"m 0 -174 l 434 -174 l 434 -87 l 521 -87 l 521 694 l 347 694 l 347 260 l 174 260 l 174 694 l 0 694 l 0 174 l 87 174 l 87 87 l 347 87 l 347 0 l 0 0 z m 174 781 l 347 781 l 347 868 l 434 868 l 434 955 l 260 955 l 260 868 l 174 868 z "},"þ":{"ha":608,"x_min":0,"x_max":0,"o":"m 347 174 l 174 174 l 174 521 l 347 521 z m 0 -174 l 174 -174 l 174 0 l 434 0 l 434 87 l 521 87 l 521 608 l 434 608 l 434 694 l 174 694 l 174 868 l 0 868 z "},"ÿ":{"ha":608,"x_min":0,"x_max":0,"o":"m 0 -174 l 434 -174 l 434 -87 l 521 -87 l 521 694 l 347 694 l 347 260 l 174 260 l 174 694 l 0 694 l 0 174 l 87 174 l 87 87 l 347 87 l 347 0 l 0 0 z m 87 781 l 174 781 l 174 868 l 87 868 z m 347 781 l 434 781 l 434 868 l 347 868 z "},"Ā":{"ha":608,"x_min":0,"x_max":0,"o":"m 347 434 l 174 434 l 174 608 l 347 608 z m 0 0 l 174 0 l 174 260 l 347 260 l 347 0 l 521 0 l 521 694 l 434 694 l 434 781 l 87 781 l 87 694 l 0 694 z m 87 868 l 434 868 l 434 955 l 87 955 z "},"ā":{"ha":608,"x_min":0,"x_max":0,"o":"m 347 174 l 174 174 l 174 260 l 347 260 z m 87 0 l 521 0 l 521 608 l 434 608 l 434 694 l 0 694 l 0 521 l 347 521 l 347 434 l 87 434 l 87 347 l 0 347 l 0 87 l 87 87 z m 87 781 l 434 781 l 434 868 l 87 868 z "},"Ă":{"ha":608,"x_min":0,"x_max":0,"o":"m 347 434 l 174 434 l 174 608 l 347 608 z m 0 0 l 174 0 l 174 260 l 347 260 l 347 0 l 521 0 l 521 694 l 434 694 l 434 781 l 87 781 l 87 694 l 0 694 z m 174 868 l 347 868 l 347 955 l 174 955 z m 87 955 l 174 955 l 174 1042 l 87 1042 z m 347 955 l 434 955 l 434 1042 l 347 1042 z "},"ă":{"ha":608,"x_min":0,"x_max":0,"o":"m 347 174 l 174 174 l 174 260 l 347 260 z m 87 0 l 521 0 l 521 608 l 434 608 l 434 694 l 0 694 l 0 521 l 347 521 l 347 434 l 87 434 l 87 347 l 0 347 l 0 87 l 87 87 z m 174 781 l 347 781 l 347 868 l 174 868 z m 87 868 l 174 868 l 174 955 l 87 955 z m 347 868 l 434 868 l 434 955 l 347 955 z "},"Ą":{"ha":608,"x_min":0,"x_max":0,"o":"m 347 434 l 174 434 l 174 608 l 347 608 z m 347 -174 l 521 -174 l 521 -87 l 434 -87 l 434 0 l 521 0 l 521 694 l 434 694 l 434 781 l 87 781 l 87 694 l 0 694 l 0 0 l 174 0 l 174 260 l 347 260 z "},"ą":{"ha":608,"x_min":0,"x_max":0,"o":"m 347 174 l 174 174 l 174 260 l 347 260 z m 347 -174 l 521 -174 l 521 -87 l 434 -87 l 434 0 l 521 0 l 521 608 l 434 608 l 434 694 l 0 694 l 0 521 l 347 521 l 347 434 l 87 434 l 87 347 l 0 347 l 0 87 l 87 87 l 87 0 l 347 0 z "},"Ć":{"ha":608,"x_min":0,"x_max":0,"o":"m 87 0 l 434 0 l 434 87 l 521 87 l 521 260 l 347 260 l 347 174 l 174 174 l 174 608 l 347 608 l 347 521 l 521 521 l 521 694 l 434 694 l 434 781 l 87 781 l 87 694 l 0 694 l 0 87 l 87 87 z m 174 868 l 347 868 l 347 955 l 434 955 l 434 1042 l 260 1042 l 260 955 l 174 955 z "},"ć":{"ha":608,"x_min":0,"x_max":0,"o":"m 87 0 l 434 0 l 434 87 l 521 87 l 521 260 l 347 260 l 347 174 l 174 174 l 174 521 l 347 521 l 347 434 l 521 434 l 521 608 l 434 608 l 434 694 l 87 694 l 87 608 l 0 608 l 0 87 l 87 87 z m 174 781 l 347 781 l 347 868 l 434 868 l 434 955 l 260 955 l 260 868 l 174 868 z "},"Ĉ":{"ha":608,"x_min":0,"x_max":0,"o":"m 87 0 l 434 0 l 434 87 l 521 87 l 521 260 l 347 260 l 347 174 l 174 174 l 174 608 l 347 608 l 347 521 l 521 521 l 521 694 l 434 694 l 434 781 l 87 781 l 87 694 l 0 694 l 0 87 l 87 87 z m 87 868 l 434 868 l 434 955 l 347 955 l 347 1042 l 174 1042 l 174 955 l 87 955 z "},"ĉ":{"ha":608,"x_min":0,"x_max":0,"o":"m 87 0 l 434 0 l 434 87 l 521 87 l 521 260 l 347 260 l 347 174 l 174 174 l 174 521 l 347 521 l 347 434 l 521 434 l 521 608 l 434 608 l 434 694 l 87 694 l 87 608 l 0 608 l 0 87 l 87 87 z m 87 781 l 434 781 l 434 868 l 347 868 l 347 955 l 174 955 l 174 868 l 87 868 z "},"Ċ":{"ha":608,"x_min":0,"x_max":0,"o":"m 87 0 l 434 0 l 434 87 l 521 87 l 521 260 l 347 260 l 347 174 l 174 174 l 174 608 l 347 608 l 347 521 l 521 521 l 521 694 l 434 694 l 434 781 l 87 781 l 87 694 l 0 694 l 0 87 l 87 87 z m 174 868 l 347 868 l 347 1042 l 174 1042 z "},"ċ":{"ha":608,"x_min":0,"x_max":0,"o":"m 87 0 l 434 0 l 434 87 l 521 87 l 521 260 l 347 260 l 347 174 l 174 174 l 174 521 l 347 521 l 347 434 l 521 434 l 521 608 l 434 608 l 434 694 l 87 694 l 87 608 l 0 608 l 0 87 l 87 87 z m 174 781 l 347 781 l 347 955 l 174 955 z "},"Č":{"ha":608,"x_min":0,"x_max":0,"o":"m 87 0 l 434 0 l 434 87 l 521 87 l 521 260 l 347 260 l 347 174 l 174 174 l 174 608 l 347 608 l 347 521 l 521 521 l 521 694 l 434 694 l 434 781 l 87 781 l 87 694 l 0 694 l 0 87 l 87 87 z m 174 868 l 347 868 l 347 955 l 434 955 l 434 1042 l 87 1042 l 87 955 l 174 955 z "},"č":{"ha":608,"x_min":0,"x_max":0,"o":"m 87 0 l 434 0 l 434 87 l 521 87 l 521 260 l 347 260 l 347 174 l 174 174 l 174 521 l 347 521 l 347 434 l 521 434 l 521 608 l 434 608 l 434 694 l 87 694 l 87 608 l 0 608 l 0 87 l 87 87 z m 174 781 l 347 781 l 347 868 l 434 868 l 434 955 l 87 955 l 87 868 l 174 868 z "},"Ď":{"ha":608,"x_min":0,"x_max":0,"o":"m 347 174 l 174 174 l 174 608 l 347 608 z m 0 0 l 434 0 l 434 87 l 521 87 l 521 694 l 434 694 l 434 781 l 0 781 z m 174 868 l 347 868 l 347 955 l 434 955 l 434 1042 l 87 1042 l 87 955 l 174 955 z "},"ď":{"ha":868,"x_min":0,"x_max":0,"o":"m 347 174 l 174 174 l 174 521 l 347 521 z m 87 0 l 521 0 l 521 868 l 347 868 l 347 694 l 87 694 l 87 608 l 0 608 l 0 87 l 87 87 z m 608 608 l 694 608 l 694 694 l 781 694 l 781 868 l 608 868 z "},"Đ":{"ha":694,"x_min":0,"x_max":0,"o":"m 434 174 l 260 174 l 260 347 l 347 347 l 347 521 l 260 521 l 260 608 l 434 608 z m 87 0 l 521 0 l 521 87 l 608 87 l 608 694 l 521 694 l 521 781 l 87 781 l 87 521 l 0 521 l 0 347 l 87 347 z "},"đ":{"ha":694,"x_min":0,"x_max":0,"o":"m 347 174 l 174 174 l 174 434 l 347 434 z m 87 0 l 521 0 l 521 694 l 608 694 l 608 781 l 521 781 l 521 868 l 347 868 l 347 781 l 174 781 l 174 694 l 347 694 l 347 608 l 87 608 l 87 521 l 0 521 l 0 87 l 87 87 z "},"Ē":{"ha":608,"x_min":0,"x_max":0,"o":"m 0 0 l 521 0 l 521 174 l 174 174 l 174 347 l 434 347 l 434 521 l 174 521 l 174 608 l 521 608 l 521 781 l 0 781 z m 87 868 l 434 868 l 434 955 l 87 955 z "},"ē":{"ha":608,"x_min":0,"x_max":0,"o":"m 347 434 l 174 434 l 174 521 l 347 521 z m 87 0 l 521 0 l 521 174 l 174 174 l 174 260 l 521 260 l 521 608 l 434 608 l 434 694 l 87 694 l 87 608 l 0 608 l 0 87 l 87 87 z m 87 781 l 434 781 l 434 868 l 87 868 z "},"Ĕ":{"ha":608,"x_min":0,"x_max":0,"o":"m 0 0 l 521 0 l 521 174 l 174 174 l 174 347 l 434 347 l 434 521 l 174 521 l 174 608 l 521 608 l 521 781 l 0 781 z m 174 868 l 347 868 l 347 955 l 174 955 z m 87 955 l 174 955 l 174 1042 l 87 1042 z m 347 955 l 434 955 l 434 1042 l 347 1042 z "},"ĕ":{"ha":608,"x_min":0,"x_max":0,"o":"m 347 434 l 174 434 l 174 521 l 347 521 z m 87 0 l 521 0 l 521 174 l 174 174 l 174 260 l 521 260 l 521 608 l 434 608 l 434 694 l 87 694 l 87 608 l 0 608 l 0 87 l 87 87 z m 174 781 l 347 781 l 347 868 l 174 868 z m 87 868 l 174 868 l 174 955 l 87 955 z m 347 868 l 434 868 l 434 955 l 347 955 z "},"Ė":{"ha":608,"x_min":0,"x_max":0,"o":"m 0 0 l 521 0 l 521 174 l 174 174 l 174 347 l 434 347 l 434 521 l 174 521 l 174 608 l 521 608 l 521 781 l 0 781 z m 174 868 l 347 868 l 347 1042 l 174 1042 z "},"ė":{"ha":608,"x_min":0,"x_max":0,"o":"m 347 434 l 174 434 l 174 521 l 347 521 z m 87 0 l 521 0 l 521 174 l 174 174 l 174 260 l 521 260 l 521 608 l 434 608 l 434 694 l 87 694 l 87 608 l 0 608 l 0 87 l 87 87 z m 174 781 l 347 781 l 347 955 l 174 955 z "},"Ę":{"ha":608,"x_min":0,"x_max":0,"o":"m 347 -174 l 521 -174 l 521 -87 l 434 -87 l 434 0 l 521 0 l 521 174 l 174 174 l 174 347 l 434 347 l 434 521 l 174 521 l 174 608 l 521 608 l 521 781 l 0 781 l 0 0 l 347 0 z "},"ę":{"ha":608,"x_min":0,"x_max":0,"o":"m 347 434 l 174 434 l 174 521 l 347 521 z m 347 -174 l 521 -174 l 521 -87 l 434 -87 l 434 0 l 521 0 l 521 174 l 174 174 l 174 260 l 521 260 l 521 608 l 434 608 l 434 694 l 87 694 l 87 608 l 0 608 l 0 87 l 87 87 l 87 0 l 347 0 z "},"Ě":{"ha":608,"x_min":0,"x_max":0,"o":"m 0 0 l 521 0 l 521 174 l 174 174 l 174 347 l 434 347 l 434 521 l 174 521 l 174 608 l 521 608 l 521 781 l 0 781 z m 174 868 l 347 868 l 347 955 l 434 955 l 434 1042 l 87 1042 l 87 955 l 174 955 z "},"ě":{"ha":608,"x_min":0,"x_max":0,"o":"m 347 434 l 174 434 l 174 521 l 347 521 z m 87 0 l 521 0 l 521 174 l 174 174 l 174 260 l 521 260 l 521 608 l 434 608 l 434 694 l 87 694 l 87 608 l 0 608 l 0 87 l 87 87 z m 174 781 l 347 781 l 347 868 l 434 868 l 434 955 l 87 955 l 87 868 l 174 868 z "},"Ĝ":{"ha":608,"x_min":0,"x_max":0,"o":"m 87 0 l 521 0 l 521 434 l 347 434 l 347 174 l 174 174 l 174 608 l 347 608 l 347 521 l 521 521 l 521 694 l 434 694 l 434 781 l 87 781 l 87 694 l 0 694 l 0 87 l 87 87 z m 87 868 l 434 868 l 434 955 l 347 955 l 347 1042 l 174 1042 l 174 955 l 87 955 z "},"ĝ":{"ha":608,"x_min":0,"x_max":0,"o":"m 347 260 l 174 260 l 174 521 l 347 521 z m 0 -174 l 434 -174 l 434 -87 l 521 -87 l 521 694 l 87 694 l 87 608 l 0 608 l 0 174 l 87 174 l 87 87 l 347 87 l 347 0 l 0 0 z m 87 781 l 434 781 l 434 868 l 347 868 l 347 955 l 174 955 l 174 868 l 87 868 z "},"Ğ":{"ha":608,"x_min":0,"x_max":0,"o":"m 87 0 l 521 0 l 521 434 l 347 434 l 347 174 l 174 174 l 174 608 l 347 608 l 347 521 l 521 521 l 521 694 l 434 694 l 434 781 l 87 781 l 87 694 l 0 694 l 0 87 l 87 87 z m 174 868 l 347 868 l 347 955 l 174 955 z m 87 955 l 174 955 l 174 1042 l 87 1042 z m 347 955 l 434 955 l 434 1042 l 347 1042 z "},"ğ":{"ha":608,"x_min":0,"x_max":0,"o":"m 347 260 l 174 260 l 174 521 l 347 521 z m 0 -174 l 434 -174 l 434 -87 l 521 -87 l 521 694 l 87 694 l 87 608 l 0 608 l 0 174 l 87 174 l 87 87 l 347 87 l 347 0 l 0 0 z m 174 781 l 347 781 l 347 868 l 174 868 z m 87 868 l 174 868 l 174 955 l 87 955 z m 347 868 l 434 868 l 434 955 l 347 955 z "},"Ġ":{"ha":608,"x_min":0,"x_max":0,"o":"m 87 0 l 521 0 l 521 434 l 347 434 l 347 174 l 174 174 l 174 608 l 347 608 l 347 521 l 521 521 l 521 694 l 434 694 l 434 781 l 87 781 l 87 694 l 0 694 l 0 87 l 87 87 z m 174 868 l 347 868 l 347 1042 l 174 1042 z "},"ġ":{"ha":608,"x_min":0,"x_max":0,"o":"m 347 260 l 174 260 l 174 521 l 347 521 z m 0 -174 l 434 -174 l 434 -87 l 521 -87 l 521 694 l 87 694 l 87 608 l 0 608 l 0 174 l 87 174 l 87 87 l 347 87 l 347 0 l 0 0 z m 174 781 l 347 781 l 347 955 l 174 955 z "},"Ģ":{"ha":608,"x_min":0,"x_max":0,"o":"m 87 -260 l 260 -260 l 260 -174 l 347 -174 l 347 -87 l 174 -87 l 174 -174 l 87 -174 z m 87 0 l 521 0 l 521 434 l 347 434 l 347 174 l 174 174 l 174 608 l 347 608 l 347 521 l 521 521 l 521 694 l 434 694 l 434 781 l 87 781 l 87 694 l 0 694 l 0 87 l 87 87 z "},"ģ":{"ha":608,"x_min":0,"x_max":0,"o":"m 347 260 l 174 260 l 174 521 l 347 521 z m 0 -174 l 434 -174 l 434 -87 l 521 -87 l 521 694 l 87 694 l 87 608 l 0 608 l 0 174 l 87 174 l 87 87 l 347 87 l 347 0 l 0 0 z m 174 781 l 347 781 l 347 868 l 434 868 l 434 955 l 260 955 l 260 868 l 174 868 z "},"Ĥ":{"ha":608,"x_min":0,"x_max":0,"o":"m 0 0 l 174 0 l 174 347 l 347 347 l 347 0 l 521 0 l 521 781 l 347 781 l 347 521 l 174 521 l 174 781 l 0 781 z m 87 868 l 434 868 l 434 955 l 347 955 l 347 1042 l 174 1042 l 174 955 l 87 955 z "},"ĥ":{"ha":608,"x_min":0,"x_max":0,"o":"m 0 0 l 174 0 l 174 521 l 347 521 l 347 0 l 521 0 l 521 608 l 434 608 l 434 694 l 174 694 l 174 868 l 0 868 z m 0 955 l 347 955 l 347 1042 l 260 1042 l 260 1128 l 87 1128 l 87 1042 l 0 1042 z "},"Ħ":{"ha":781,"x_min":0,"x_max":0,"o":"m 434 521 l 260 521 l 260 608 l 434 608 z m 87 0 l 260 0 l 260 347 l 434 347 l 434 0 l 608 0 l 608 608 l 694 608 l 694 694 l 608 694 l 608 781 l 434 781 l 434 694 l 260 694 l 260 781 l 87 781 l 87 694 l 0 694 l 0 608 l 87 608 z "},"ħ":{"ha":694,"x_min":0,"x_max":0,"o":"m 87 0 l 260 0 l 260 434 l 434 434 l 434 0 l 608 0 l 608 521 l 521 521 l 521 608 l 260 608 l 260 694 l 434 694 l 434 781 l 260 781 l 260 868 l 87 868 l 87 781 l 0 781 l 0 694 l 87 694 z "},"Ĩ":{"ha":434,"x_min":0,"x_max":0,"o":"m 0 0 l 347 0 l 347 174 l 260 174 l 260 608 l 347 608 l 347 781 l 0 781 l 0 608 l 87 608 l 87 174 l 0 174 z m 0 868 l 87 868 l 87 955 l 0 955 z m 174 868 l 260 868 l 260 955 l 174 955 z m 87 955 l 174 955 l 174 1042 l 87 1042 z m 260 955 l 347 955 l 347 1042 l 260 1042 z "},"ĩ":{"ha":347,"x_min":0,"x_max":0,"o":"m 0 0 l 174 0 l 174 608 l 0 608 z m -87 694 l 0 694 l 0 781 l -87 781 z m 87 694 l 174 694 l 174 781 l 87 781 z m 0 781 l 87 781 l 87 868 l 0 868 z m 174 781 l 260 781 l 260 868 l 174 868 z "},"Ī":{"ha":434,"x_min":0,"x_max":0,"o":"m 0 0 l 347 0 l 347 174 l 260 174 l 260 608 l 347 608 l 347 781 l 0 781 l 0 608 l 87 608 l 87 174 l 0 174 z m 0 868 l 347 868 l 347 955 l 0 955 z "},"ī":{"ha":347,"x_min":0,"x_max":0,"o":"m 0 0 l 174 0 l 174 694 l 0 694 z m -87 781 l 260 781 l 260 868 l -87 868 z "},"Ĭ":{"ha":434,"x_min":0,"x_max":0,"o":"m 0 0 l 347 0 l 347 174 l 260 174 l 260 608 l 347 608 l 347 781 l 0 781 l 0 608 l 87 608 l 87 174 l 0 174 z m 87 868 l 260 868 l 260 955 l 87 955 z m 0 955 l 87 955 l 87 1042 l 0 1042 z m 260 955 l 347 955 l 347 1042 l 260 1042 z "},"ĭ":{"ha":347,"x_min":0,"x_max":0,"o":"m 0 0 l 174 0 l 174 608 l 0 608 z m 0 694 l 174 694 l 174 781 l 0 781 z m -87 781 l 0 781 l 0 868 l -87 868 z m 174 781 l 260 781 l 260 868 l 174 868 z "},"Į":{"ha":434,"x_min":0,"x_max":0,"o":"m 174 -174 l 347 -174 l 347 -87 l 260 -87 l 260 0 l 347 0 l 347 174 l 260 174 l 260 608 l 347 608 l 347 781 l 0 781 l 0 608 l 87 608 l 87 174 l 0 174 l 0 0 l 174 0 z "},"į":{"ha":260,"x_min":0,"x_max":0,"o":"m 0 -174 l 174 -174 l 174 -87 l 87 -87 l 87 0 l 174 0 l 174 608 l 0 608 z m 0 694 l 174 694 l 174 868 l 0 868 z "},"İ":{"ha":434,"x_min":0,"x_max":0,"o":"m 0 0 l 347 0 l 347 174 l 260 174 l 260 608 l 347 608 l 347 781 l 0 781 l 0 608 l 87 608 l 87 174 l 0 174 z m 87 868 l 260 868 l 260 1042 l 87 1042 z "},"ı":{"ha":260,"x_min":0,"x_max":0,"o":"m 0 0 l 174 0 l 174 694 l 0 694 z "},"Ĳ":{"ha":608,"x_min":0,"x_max":0,"o":"m 0 347 l 174 347 l 174 781 l 0 781 z m 87 0 l 434 0 l 434 87 l 521 87 l 521 781 l 347 781 l 347 174 l 174 174 l 174 260 l 0 260 l 0 87 l 87 87 z "},"ĳ":{"ha":521,"x_min":0,"x_max":0,"o":"m 0 87 l 174 87 l 174 608 l 0 608 z m 0 -174 l 347 -174 l 347 -87 l 434 -87 l 434 608 l 260 608 l 260 0 l 0 0 z m 0 694 l 174 694 l 174 868 l 0 868 z m 260 694 l 434 694 l 434 868 l 260 868 z "},"Ĵ":{"ha":608,"x_min":0,"x_max":0,"o":"m 87 0 l 434 0 l 434 87 l 521 87 l 521 781 l 347 781 l 347 174 l 174 174 l 174 260 l 0 260 l 0 87 l 87 87 z m 174 868 l 521 868 l 521 955 l 434 955 l 434 1042 l 260 1042 l 260 955 l 174 955 z "},"ĵ":{"ha":434,"x_min":0,"x_max":0,"o":"m 0 -174 l 174 -174 l 174 -87 l 260 -87 l 260 694 l 0 694 l 0 521 l 87 521 l 87 0 l 0 0 z m 0 781 l 347 781 l 347 868 l 260 868 l 260 955 l 87 955 l 87 868 l 0 868 z "},"Ķ":{"ha":608,"x_min":0,"x_max":0,"o":"m 87 -260 l 260 -260 l 260 -174 l 347 -174 l 347 -87 l 174 -87 l 174 -174 l 87 -174 z m 0 0 l 174 0 l 174 347 l 347 347 l 347 0 l 521 0 l 521 347 l 434 347 l 434 521 l 521 521 l 521 781 l 347 781 l 347 521 l 174 521 l 174 781 l 0 781 z "},"ķ":{"ha":608,"x_min":0,"x_max":0,"o":"m 87 -260 l 260 -260 l 260 -174 l 347 -174 l 347 -87 l 174 -87 l 174 -174 l 87 -174 z m 0 0 l 174 0 l 174 260 l 347 260 l 347 0 l 521 0 l 521 347 l 434 347 l 434 434 l 521 434 l 521 694 l 347 694 l 347 434 l 174 434 l 174 868 l 0 868 z "},"ĸ":{"ha":608,"x_min":0,"x_max":0,"o":"m 0 0 l 174 0 l 174 260 l 347 260 l 347 0 l 521 0 l 521 347 l 434 347 l 434 434 l 521 434 l 521 694 l 347 694 l 347 434 l 174 434 l 174 694 l 0 694 z "},"Ĺ":{"ha":608,"x_min":0,"x_max":0,"o":"m 0 0 l 521 0 l 521 174 l 174 174 l 174 781 l 0 781 z m 87 868 l 260 868 l 260 955 l 347 955 l 347 1042 l 174 1042 l 174 955 l 87 955 z "},"ĺ":{"ha":347,"x_min":0,"x_max":0,"o":"m 87 0 l 260 0 l 260 174 l 174 174 l 174 868 l 0 868 l 0 87 l 87 87 z m 0 955 l 174 955 l 174 1042 l 260 1042 l 260 1128 l 87 1128 l 87 1042 l 0 1042 z "},"Ļ":{"ha":608,"x_min":0,"x_max":0,"o":"m 87 -260 l 260 -260 l 260 -174 l 347 -174 l 347 -87 l 174 -87 l 174 -174 l 87 -174 z m 0 0 l 521 0 l 521 174 l 174 174 l 174 781 l 0 781 z "},"ļ":{"ha":347,"x_min":0,"x_max":0,"o":"m 0 -260 l 174 -260 l 174 -174 l 260 -174 l 260 -87 l 87 -87 l 87 -174 l 0 -174 z m 87 0 l 260 0 l 260 174 l 174 174 l 174 868 l 0 868 l 0 87 l 87 87 z "},"Ľ":{"ha":608,"x_min":0,"x_max":0,"o":"m 0 0 l 521 0 l 521 174 l 174 174 l 174 781 l 0 781 z m 347 521 l 434 521 l 434 608 l 521 608 l 521 781 l 347 781 z "},"ľ":{"ha":521,"x_min":0,"x_max":0,"o":"m 87 0 l 260 0 l 260 174 l 174 174 l 174 868 l 0 868 l 0 87 l 87 87 z m 260 608 l 347 608 l 347 694 l 434 694 l 434 868 l 260 868 z "},"Ŀ":{"ha":608,"x_min":0,"x_max":0,"o":"m 260 347 l 434 347 l 434 521 l 260 521 z m 0 0 l 521 0 l 521 174 l 174 174 l 174 781 l 0 781 z "},"ŀ":{"ha":521,"x_min":0,"x_max":0,"o":"m 260 347 l 434 347 l 434 521 l 260 521 z m 87 0 l 260 0 l 260 174 l 174 174 l 174 868 l 0 868 l 0 87 l 87 87 z "},"Ł":{"ha":694,"x_min":0,"x_max":0,"o":"m 87 0 l 608 0 l 608 174 l 260 174 l 260 434 l 434 434 l 434 521 l 260 521 l 260 781 l 87 781 l 87 434 l 0 434 l 0 347 l 87 347 z "},"ł":{"ha":434,"x_min":0,"x_max":0,"o":"m 174 0 l 347 0 l 347 174 l 260 174 l 260 434 l 347 434 l 347 521 l 260 521 l 260 868 l 87 868 l 87 434 l 0 434 l 0 347 l 87 347 l 87 87 l 174 87 z "},"Ń":{"ha":608,"x_min":0,"x_max":0,"o":"m 0 0 l 174 0 l 174 608 l 347 608 l 347 0 l 521 0 l 521 694 l 434 694 l 434 781 l 87 781 l 87 694 l 0 694 z m 174 868 l 347 868 l 347 955 l 434 955 l 434 1042 l 260 1042 l 260 955 l 174 955 z "},"ń":{"ha":608,"x_min":0,"x_max":0,"o":"m 0 0 l 174 0 l 174 521 l 347 521 l 347 0 l 521 0 l 521 608 l 434 608 l 434 694 l 0 694 z m 174 781 l 347 781 l 347 868 l 434 868 l 434 955 l 260 955 l 260 868 l 174 868 z "},"Ņ":{"ha":608,"x_min":0,"x_max":0,"o":"m 87 -260 l 260 -260 l 260 -174 l 347 -174 l 347 -87 l 174 -87 l 174 -174 l 87 -174 z m 0 0 l 174 0 l 174 608 l 347 608 l 347 0 l 521 0 l 521 694 l 434 694 l 434 781 l 87 781 l 87 694 l 0 694 z "},"ņ":{"ha":608,"x_min":0,"x_max":0,"o":"m 87 -260 l 260 -260 l 260 -174 l 347 -174 l 347 -87 l 174 -87 l 174 -174 l 87 -174 z m 0 0 l 174 0 l 174 521 l 347 521 l 347 0 l 521 0 l 521 608 l 434 608 l 434 694 l 0 694 z "},"Ň":{"ha":608,"x_min":0,"x_max":0,"o":"m 0 0 l 174 0 l 174 608 l 347 608 l 347 0 l 521 0 l 521 694 l 434 694 l 434 781 l 87 781 l 87 694 l 0 694 z m 174 868 l 347 868 l 347 955 l 434 955 l 434 1042 l 87 1042 l 87 955 l 174 955 z "},"ň":{"ha":608,"x_min":0,"x_max":0,"o":"m 0 0 l 174 0 l 174 521 l 347 521 l 347 0 l 521 0 l 521 608 l 434 608 l 434 694 l 0 694 z m 174 781 l 347 781 l 347 868 l 434 868 l 434 955 l 87 955 l 87 868 l 174 868 z "},"ŉ":{"ha":868,"x_min":0,"x_max":0,"o":"m 260 0 l 434 0 l 434 521 l 608 521 l 608 0 l 781 0 l 781 608 l 694 608 l 694 694 l 260 694 z m 0 608 l 87 608 l 87 694 l 174 694 l 174 868 l 0 868 z "},"Ŋ":{"ha":608,"x_min":0,"x_max":0,"o":"m 87 -174 l 434 -174 l 434 -87 l 521 -87 l 521 694 l 434 694 l 434 781 l 87 781 l 87 694 l 0 694 l 0 87 l 174 87 l 174 608 l 347 608 l 347 0 l 87 0 z "},"ŋ":{"ha":608,"x_min":0,"x_max":0,"o":"m 87 -174 l 434 -174 l 434 -87 l 521 -87 l 521 608 l 434 608 l 434 694 l 0 694 l 0 87 l 174 87 l 174 521 l 347 521 l 347 0 l 87 0 z "},"Ō":{"ha":608,"x_min":0,"x_max":0,"o":"m 347 174 l 174 174 l 174 608 l 347 608 z m 87 0 l 434 0 l 434 87 l 521 87 l 521 694 l 434 694 l 434 781 l 87 781 l 87 694 l 0 694 l 0 87 l 87 87 z m 87 868 l 434 868 l 434 955 l 87 955 z "},"ō":{"ha":608,"x_min":0,"x_max":0,"o":"m 347 174 l 174 174 l 174 521 l 347 521 z m 87 0 l 434 0 l 434 87 l 521 87 l 521 608 l 434 608 l 434 694 l 87 694 l 87 608 l 0 608 l 0 87 l 87 87 z m 87 781 l 434 781 l 434 868 l 87 868 z "},"Ŏ":{"ha":608,"x_min":0,"x_max":0,"o":"m 347 174 l 174 174 l 174 608 l 347 608 z m 87 0 l 434 0 l 434 87 l 521 87 l 521 694 l 434 694 l 434 781 l 87 781 l 87 694 l 0 694 l 0 87 l 87 87 z m 174 868 l 347 868 l 347 955 l 174 955 z m 87 955 l 174 955 l 174 1042 l 87 1042 z m 347 955 l 434 955 l 434 1042 l 347 1042 z "},"ŏ":{"ha":608,"x_min":0,"x_max":0,"o":"m 347 174 l 174 174 l 174 521 l 347 521 z m 87 0 l 434 0 l 434 87 l 521 87 l 521 608 l 434 608 l 434 694 l 87 694 l 87 608 l 0 608 l 0 87 l 87 87 z m 174 781 l 347 781 l 347 868 l 174 868 z m 87 868 l 174 868 l 174 955 l 87 955 z m 347 868 l 434 868 l 434 955 l 347 955 z "},"Ő":{"ha":608,"x_min":0,"x_max":0,"o":"m 347 174 l 174 174 l 174 608 l 347 608 z m 87 0 l 434 0 l 434 87 l 521 87 l 521 694 l 434 694 l 434 781 l 87 781 l 87 694 l 0 694 l 0 87 l 87 87 z m 87 868 l 174 868 l 174 955 l 87 955 z m 347 868 l 434 868 l 434 955 l 347 955 z m 174 955 l 260 955 l 260 1042 l 174 1042 z m 434 955 l 521 955 l 521 1042 l 434 1042 z "},"ő":{"ha":608,"x_min":0,"x_max":0,"o":"m 347 174 l 174 174 l 174 521 l 347 521 z m 87 0 l 434 0 l 434 87 l 521 87 l 521 608 l 434 608 l 434 694 l 87 694 l 87 608 l 0 608 l 0 87 l 87 87 z m 87 781 l 174 781 l 174 868 l 87 868 z m 347 781 l 434 781 l 434 868 l 347 868 z m 174 868 l 260 868 l 260 955 l 174 955 z m 434 868 l 521 868 l 521 955 l 434 955 z "},"Œ":{"ha":781,"x_min":0,"x_max":0,"o":"m 260 174 l 174 174 l 174 608 l 260 608 z m 87 0 l 694 0 l 694 174 l 434 174 l 434 347 l 694 347 l 694 521 l 434 521 l 434 608 l 694 608 l 694 781 l 87 781 l 87 694 l 0 694 l 0 87 l 87 87 z "},"œ":{"ha":781,"x_min":0,"x_max":0,"o":"m 260 174 l 174 174 l 174 521 l 260 521 z m 521 434 l 434 434 l 434 521 l 521 521 z m 87 0 l 260 0 l 260 87 l 347 87 l 347 0 l 694 0 l 694 174 l 434 174 l 434 260 l 694 260 l 694 608 l 608 608 l 608 694 l 434 694 l 434 608 l 347 608 l 347 694 l 87 694 l 87 608 l 0 608 l 0 87 l 87 87 z "},"Ŕ":{"ha":608,"x_min":0,"x_max":0,"o":"m 347 434 l 174 434 l 174 608 l 347 608 z m 0 0 l 174 0 l 174 260 l 347 260 l 347 0 l 521 0 l 521 347 l 434 347 l 434 434 l 521 434 l 521 694 l 434 694 l 434 781 l 0 781 z m 174 868 l 347 868 l 347 955 l 434 955 l 434 1042 l 260 1042 l 260 955 l 174 955 z "},"ŕ":{"ha":521,"x_min":0,"x_max":0,"o":"m 0 0 l 174 0 l 174 434 l 260 434 l 260 521 l 434 521 l 434 694 l 260 694 l 260 608 l 174 608 l 174 694 l 0 694 z m 87 781 l 260 781 l 260 868 l 347 868 l 347 955 l 174 955 l 174 868 l 87 868 z "},"Ŗ":{"ha":608,"x_min":0,"x_max":0,"o":"m 87 -260 l 260 -260 l 260 -174 l 347 -174 l 347 -87 l 174 -87 l 174 -174 l 87 -174 z m 347 434 l 174 434 l 174 608 l 347 608 z m 0 0 l 174 0 l 174 260 l 347 260 l 347 0 l 521 0 l 521 347 l 434 347 l 434 434 l 521 434 l 521 694 l 434 694 l 434 781 l 0 781 z "},"ŗ":{"ha":521,"x_min":0,"x_max":0,"o":"m 0 -260 l 174 -260 l 174 -174 l 260 -174 l 260 -87 l 87 -87 l 87 -174 l 0 -174 z m 0 0 l 174 0 l 174 434 l 260 434 l 260 521 l 434 521 l 434 694 l 260 694 l 260 608 l 174 608 l 174 694 l 0 694 z "},"Ř":{"ha":608,"x_min":0,"x_max":0,"o":"m 347 434 l 174 434 l 174 608 l 347 608 z m 0 0 l 174 0 l 174 260 l 347 260 l 347 0 l 521 0 l 521 347 l 434 347 l 434 434 l 521 434 l 521 694 l 434 694 l 434 781 l 0 781 z m 174 868 l 347 868 l 347 955 l 434 955 l 434 1042 l 87 1042 l 87 955 l 174 955 z "},"ř":{"ha":521,"x_min":0,"x_max":0,"o":"m 0 0 l 174 0 l 174 434 l 260 434 l 260 521 l 434 521 l 434 694 l 260 694 l 260 608 l 174 608 l 174 694 l 0 694 z m 87 781 l 260 781 l 260 868 l 347 868 l 347 955 l 0 955 l 0 868 l 87 868 z "},"Ś":{"ha":608,"x_min":0,"x_max":0,"o":"m 87 0 l 434 0 l 434 87 l 521 87 l 521 347 l 434 347 l 434 434 l 260 434 l 260 521 l 174 521 l 174 608 l 347 608 l 347 521 l 521 521 l 521 694 l 434 694 l 434 781 l 87 781 l 87 694 l 0 694 l 0 434 l 87 434 l 87 347 l 260 347 l 260 260 l 347 260 l 347 174 l 174 174 l 174 260 l 0 260 l 0 87 l 87 87 z m 174 868 l 347 868 l 347 955 l 434 955 l 434 1042 l 260 1042 l 260 955 l 174 955 z "},"ś":{"ha":608,"x_min":0,"x_max":0,"o":"m 0 0 l 434 0 l 434 87 l 521 87 l 521 347 l 434 347 l 434 434 l 174 434 l 174 521 l 521 521 l 521 694 l 87 694 l 87 608 l 0 608 l 0 347 l 87 347 l 87 260 l 347 260 l 347 174 l 0 174 z m 174 781 l 347 781 l 347 868 l 434 868 l 434 955 l 260 955 l 260 868 l 174 868 z "},"Ŝ":{"ha":608,"x_min":0,"x_max":0,"o":"m 87 0 l 434 0 l 434 87 l 521 87 l 521 347 l 434 347 l 434 434 l 260 434 l 260 521 l 174 521 l 174 608 l 347 608 l 347 521 l 521 521 l 521 694 l 434 694 l 434 781 l 87 781 l 87 694 l 0 694 l 0 434 l 87 434 l 87 347 l 260 347 l 260 260 l 347 260 l 347 174 l 174 174 l 174 260 l 0 260 l 0 87 l 87 87 z m 87 868 l 434 868 l 434 955 l 347 955 l 347 1042 l 174 1042 l 174 955 l 87 955 z "},"ŝ":{"ha":608,"x_min":0,"x_max":0,"o":"m 0 0 l 434 0 l 434 87 l 521 87 l 521 347 l 434 347 l 434 434 l 174 434 l 174 521 l 521 521 l 521 694 l 87 694 l 87 608 l 0 608 l 0 347 l 87 347 l 87 260 l 347 260 l 347 174 l 0 174 z m 87 781 l 434 781 l 434 868 l 347 868 l 347 955 l 174 955 l 174 868 l 87 868 z "},"Ş":{"ha":608,"x_min":0,"x_max":0,"o":"m 87 -174 l 260 -174 l 260 -87 l 347 -87 l 347 0 l 434 0 l 434 87 l 521 87 l 521 347 l 434 347 l 434 434 l 260 434 l 260 521 l 174 521 l 174 608 l 347 608 l 347 521 l 521 521 l 521 694 l 434 694 l 434 781 l 87 781 l 87 694 l 0 694 l 0 434 l 87 434 l 87 347 l 260 347 l 260 260 l 347 260 l 347 174 l 174 174 l 174 260 l 0 260 l 0 87 l 87 87 l 87 0 l 174 0 l 174 -87 l 87 -87 z "},"ş":{"ha":608,"x_min":0,"x_max":0,"o":"m 87 -174 l 260 -174 l 260 -87 l 347 -87 l 347 0 l 434 0 l 434 87 l 521 87 l 521 347 l 434 347 l 434 434 l 174 434 l 174 521 l 521 521 l 521 694 l 87 694 l 87 608 l 0 608 l 0 347 l 87 347 l 87 260 l 347 260 l 347 174 l 0 174 l 0 0 l 174 0 l 174 -87 l 87 -87 z "},"Š":{"ha":608,"x_min":0,"x_max":0,"o":"m 87 0 l 434 0 l 434 87 l 521 87 l 521 347 l 434 347 l 434 434 l 260 434 l 260 521 l 174 521 l 174 608 l 347 608 l 347 521 l 521 521 l 521 694 l 434 694 l 434 781 l 87 781 l 87 694 l 0 694 l 0 434 l 87 434 l 87 347 l 260 347 l 260 260 l 347 260 l 347 174 l 174 174 l 174 260 l 0 260 l 0 87 l 87 87 z m 174 868 l 347 868 l 347 955 l 434 955 l 434 1042 l 87 1042 l 87 955 l 174 955 z "},"š":{"ha":608,"x_min":0,"x_max":0,"o":"m 0 0 l 434 0 l 434 87 l 521 87 l 521 347 l 434 347 l 434 434 l 174 434 l 174 521 l 521 521 l 521 694 l 87 694 l 87 608 l 0 608 l 0 347 l 87 347 l 87 260 l 347 260 l 347 174 l 0 174 z m 174 781 l 347 781 l 347 868 l 434 868 l 434 955 l 87 955 l 87 868 l 174 868 z "},"Ţ":{"ha":608,"x_min":0,"x_max":0,"o":"m 174 -174 l 347 -174 l 347 -87 l 434 -87 l 434 0 l 347 0 l 347 608 l 521 608 l 521 781 l 0 781 l 0 608 l 174 608 l 174 0 l 260 0 l 260 -87 l 174 -87 z "},"ţ":{"ha":434,"x_min":0,"x_max":0,"o":"m 0 -174 l 174 -174 l 174 -87 l 260 -87 l 260 0 l 347 0 l 347 174 l 174 174 l 174 521 l 347 521 l 347 694 l 174 694 l 174 868 l 0 868 l 0 87 l 87 87 l 87 -87 l 0 -87 z "},"Ť":{"ha":608,"x_min":0,"x_max":0,"o":"m 174 0 l 347 0 l 347 608 l 521 608 l 521 781 l 0 781 l 0 608 l 174 608 z m 174 868 l 347 868 l 347 955 l 434 955 l 434 1042 l 87 1042 l 87 955 l 174 955 z "},"ť":{"ha":694,"x_min":0,"x_max":0,"o":"m 87 0 l 347 0 l 347 174 l 174 174 l 174 521 l 347 521 l 347 694 l 174 694 l 174 868 l 0 868 l 0 87 l 87 87 z m 434 608 l 521 608 l 521 694 l 608 694 l 608 868 l 434 868 z "},"Ŧ":{"ha":608,"x_min":0,"x_max":0,"o":"m 174 0 l 347 0 l 347 347 l 434 347 l 434 521 l 347 521 l 347 608 l 521 608 l 521 781 l 0 781 l 0 608 l 174 608 l 174 521 l 87 521 l 87 347 l 174 347 z "},"ŧ":{"ha":434,"x_min":0,"x_max":0,"o":"m 87 0 l 347 0 l 347 174 l 174 174 l 174 347 l 347 347 l 347 434 l 174 434 l 174 521 l 347 521 l 347 694 l 174 694 l 174 868 l 0 868 l 0 87 l 87 87 z "},"Ũ":{"ha":608,"x_min":0,"x_max":0,"o":"m 87 0 l 434 0 l 434 87 l 521 87 l 521 781 l 347 781 l 347 174 l 174 174 l 174 781 l 0 781 l 0 87 l 87 87 z m 87 868 l 174 868 l 174 955 l 87 955 z m 260 868 l 347 868 l 347 955 l 260 955 z m 174 955 l 260 955 l 260 1042 l 174 1042 z m 347 955 l 434 955 l 434 1042 l 347 1042 z "},"ũ":{"ha":608,"x_min":0,"x_max":0,"o":"m 87 0 l 521 0 l 521 694 l 347 694 l 347 174 l 174 174 l 174 694 l 0 694 l 0 87 l 87 87 z m 87 781 l 174 781 l 174 868 l 87 868 z m 260 781 l 347 781 l 347 868 l 260 868 z m 174 868 l 260 868 l 260 955 l 174 955 z m 347 868 l 434 868 l 434 955 l 347 955 z "},"Ū":{"ha":608,"x_min":0,"x_max":0,"o":"m 87 0 l 434 0 l 434 87 l 521 87 l 521 781 l 347 781 l 347 174 l 174 174 l 174 781 l 0 781 l 0 87 l 87 87 z m 87 868 l 434 868 l 434 955 l 87 955 z "},"ū":{"ha":608,"x_min":0,"x_max":0,"o":"m 87 0 l 521 0 l 521 694 l 347 694 l 347 174 l 174 174 l 174 694 l 0 694 l 0 87 l 87 87 z m 87 781 l 434 781 l 434 868 l 87 868 z "},"Ŭ":{"ha":608,"x_min":0,"x_max":0,"o":"m 87 0 l 434 0 l 434 87 l 521 87 l 521 781 l 347 781 l 347 174 l 174 174 l 174 781 l 0 781 l 0 87 l 87 87 z m 174 868 l 347 868 l 347 955 l 174 955 z m 87 955 l 174 955 l 174 1042 l 87 1042 z m 347 955 l 434 955 l 434 1042 l 347 1042 z "},"ŭ":{"ha":608,"x_min":0,"x_max":0,"o":"m 87 0 l 521 0 l 521 694 l 347 694 l 347 174 l 174 174 l 174 694 l 0 694 l 0 87 l 87 87 z m 174 781 l 347 781 l 347 868 l 174 868 z m 87 868 l 174 868 l 174 955 l 87 955 z m 347 868 l 434 868 l 434 955 l 347 955 z "},"Ů":{"ha":608,"x_min":0,"x_max":0,"o":"m 87 0 l 434 0 l 434 87 l 521 87 l 521 781 l 347 781 l 347 174 l 174 174 l 174 781 l 0 781 l 0 87 l 87 87 z m 174 781 l 347 781 l 347 868 l 174 868 z m 87 868 l 174 868 l 174 955 l 87 955 z m 347 868 l 434 868 l 434 955 l 347 955 z m 174 955 l 347 955 l 347 1042 l 174 1042 z "},"ů":{"ha":608,"x_min":0,"x_max":0,"o":"m 87 0 l 521 0 l 521 694 l 347 694 l 347 174 l 174 174 l 174 694 l 0 694 l 0 87 l 87 87 z m 174 694 l 347 694 l 347 781 l 174 781 z m 87 781 l 174 781 l 174 868 l 87 868 z m 347 781 l 434 781 l 434 868 l 347 868 z m 174 868 l 347 868 l 347 955 l 174 955 z "},"Ű":{"ha":608,"x_min":0,"x_max":0,"o":"m 87 0 l 434 0 l 434 87 l 521 87 l 521 781 l 347 781 l 347 174 l 174 174 l 174 781 l 0 781 l 0 87 l 87 87 z m 87 868 l 174 868 l 174 955 l 87 955 z m 347 868 l 434 868 l 434 955 l 347 955 z m 174 955 l 260 955 l 260 1042 l 174 1042 z m 434 955 l 521 955 l 521 1042 l 434 1042 z "},"ű":{"ha":608,"x_min":0,"x_max":0,"o":"m 87 0 l 521 0 l 521 694 l 347 694 l 347 174 l 174 174 l 174 694 l 0 694 l 0 87 l 87 87 z m 87 781 l 174 781 l 174 868 l 87 868 z m 347 781 l 434 781 l 434 868 l 347 868 z m 174 868 l 260 868 l 260 955 l 174 955 z m 434 868 l 521 868 l 521 955 l 434 955 z "},"Ų":{"ha":608,"x_min":0,"x_max":0,"o":"m 260 -174 l 434 -174 l 434 -87 l 347 -87 l 347 0 l 434 0 l 434 87 l 521 87 l 521 781 l 347 781 l 347 174 l 174 174 l 174 781 l 0 781 l 0 87 l 87 87 l 87 0 l 260 0 z "},"ų":{"ha":608,"x_min":0,"x_max":0,"o":"m 347 -174 l 521 -174 l 521 -87 l 434 -87 l 434 0 l 521 0 l 521 694 l 347 694 l 347 174 l 174 174 l 174 694 l 0 694 l 0 87 l 87 87 l 87 0 l 347 0 z "},"Ŵ":{"ha":781,"x_min":0,"x_max":0,"o":"m 87 0 l 608 0 l 608 87 l 694 87 l 694 781 l 521 781 l 521 174 l 434 174 l 434 781 l 260 781 l 260 174 l 174 174 l 174 781 l 0 781 l 0 87 l 87 87 z m 174 868 l 521 868 l 521 955 l 434 955 l 434 1042 l 260 1042 l 260 955 l 174 955 z "},"ŵ":{"ha":781,"x_min":0,"x_max":0,"o":"m 87 0 l 608 0 l 608 87 l 694 87 l 694 694 l 521 694 l 521 174 l 434 174 l 434 694 l 260 694 l 260 174 l 174 174 l 174 694 l 0 694 l 0 87 l 87 87 z m 174 781 l 521 781 l 521 868 l 434 868 l 434 955 l 260 955 l 260 868 l 174 868 z "},"Ŷ":{"ha":608,"x_min":0,"x_max":0,"o":"m 0 0 l 434 0 l 434 87 l 521 87 l 521 781 l 347 781 l 347 434 l 174 434 l 174 781 l 0 781 l 0 347 l 87 347 l 87 260 l 347 260 l 347 174 l 0 174 z m 87 868 l 434 868 l 434 955 l 347 955 l 347 1042 l 174 1042 l 174 955 l 87 955 z "},"ŷ":{"ha":608,"x_min":0,"x_max":0,"o":"m 0 -174 l 434 -174 l 434 -87 l 521 -87 l 521 694 l 347 694 l 347 260 l 174 260 l 174 694 l 0 694 l 0 174 l 87 174 l 87 87 l 347 87 l 347 0 l 0 0 z m 87 781 l 434 781 l 434 868 l 347 868 l 347 955 l 174 955 l 174 868 l 87 868 z "},"Ÿ":{"ha":608,"x_min":0,"x_max":0,"o":"m 0 0 l 434 0 l 434 87 l 521 87 l 521 781 l 347 781 l 347 434 l 174 434 l 174 781 l 0 781 l 0 347 l 87 347 l 87 260 l 347 260 l 347 174 l 0 174 z m 87 868 l 174 868 l 174 955 l 87 955 z m 347 868 l 434 868 l 434 955 l 347 955 z "},"Ź":{"ha":608,"x_min":0,"x_max":0,"o":"m 0 0 l 521 0 l 521 174 l 174 174 l 174 260 l 260 260 l 260 347 l 434 347 l 434 434 l 521 434 l 521 781 l 0 781 l 0 608 l 347 608 l 347 521 l 260 521 l 260 434 l 87 434 l 87 347 l 0 347 z m 174 868 l 347 868 l 347 955 l 434 955 l 434 1042 l 260 1042 l 260 955 l 174 955 z "},"ź":{"ha":608,"x_min":0,"x_max":0,"o":"m 0 0 l 521 0 l 521 174 l 174 174 l 174 260 l 434 260 l 434 347 l 521 347 l 521 694 l 0 694 l 0 521 l 347 521 l 347 434 l 87 434 l 87 347 l 0 347 z m 174 781 l 347 781 l 347 868 l 434 868 l 434 955 l 260 955 l 260 868 l 174 868 z "},"Ż":{"ha":608,"x_min":0,"x_max":0,"o":"m 0 0 l 521 0 l 521 174 l 174 174 l 174 260 l 260 260 l 260 347 l 434 347 l 434 434 l 521 434 l 521 781 l 0 781 l 0 608 l 347 608 l 347 521 l 260 521 l 260 434 l 87 434 l 87 347 l 0 347 z m 174 868 l 347 868 l 347 1042 l 174 1042 z "},"ż":{"ha":608,"x_min":0,"x_max":0,"o":"m 0 0 l 521 0 l 521 174 l 174 174 l 174 260 l 434 260 l 434 347 l 521 347 l 521 694 l 0 694 l 0 521 l 347 521 l 347 434 l 87 434 l 87 347 l 0 347 z m 174 781 l 347 781 l 347 955 l 174 955 z "},"Ž":{"ha":608,"x_min":0,"x_max":0,"o":"m 0 0 l 521 0 l 521 174 l 174 174 l 174 260 l 260 260 l 260 347 l 434 347 l 434 434 l 521 434 l 521 781 l 0 781 l 0 608 l 347 608 l 347 521 l 260 521 l 260 434 l 87 434 l 87 347 l 0 347 z m 174 868 l 347 868 l 347 955 l 434 955 l 434 1042 l 87 1042 l 87 955 l 174 955 z "},"ž":{"ha":608,"x_min":0,"x_max":0,"o":"m 0 0 l 521 0 l 521 174 l 174 174 l 174 260 l 434 260 l 434 347 l 521 347 l 521 694 l 0 694 l 0 521 l 347 521 l 347 434 l 87 434 l 87 347 l 0 347 z m 174 781 l 347 781 l 347 868 l 434 868 l 434 955 l 87 955 l 87 868 l 174 868 z "},"ſ":{"ha":434,"x_min":0,"x_max":0,"o":"m 0 0 l 174 0 l 174 694 l 347 694 l 347 868 l 87 868 l 87 781 l 0 781 z "},"ƀ":{"ha":608,"x_min":0,"x_max":0,"o":"m 347 174 l 174 174 l 174 434 l 347 434 z m 0 0 l 434 0 l 434 87 l 521 87 l 521 521 l 434 521 l 434 608 l 174 608 l 174 694 l 260 694 l 260 781 l 174 781 l 174 868 l 0 868 l 0 781 l -87 781 l -87 694 l 0 694 z "},"Ɓ":{"ha":781,"x_min":0,"x_max":0,"o":"m 521 174 l 347 174 l 347 347 l 521 347 z m 521 521 l 347 521 l 347 608 l 521 608 z m 0 521 l 87 521 l 87 694 l 0 694 z m 174 0 l 608 0 l 608 87 l 694 87 l 694 434 l 608 434 l 608 521 l 694 521 l 694 694 l 608 694 l 608 781 l 87 781 l 87 694 l 174 694 z "},"Ƃ":{"ha":608,"x_min":0,"x_max":0,"o":"m 347 174 l 174 174 l 174 347 l 347 347 z m 0 0 l 434 0 l 434 87 l 521 87 l 521 434 l 434 434 l 434 521 l 174 521 l 174 608 l 521 608 l 521 781 l 0 781 z "},"ƃ":{"ha":608,"x_min":0,"x_max":0,"o":"m 347 174 l 174 174 l 174 434 l 347 434 z m 0 0 l 434 0 l 434 87 l 521 87 l 521 521 l 434 521 l 434 608 l 174 608 l 174 694 l 434 694 l 434 868 l 87 868 l 87 781 l 0 781 z "},"Ƅ":{"ha":694,"x_min":0,"x_max":0,"o":"m 434 174 l 260 174 l 260 347 l 434 347 z m 87 0 l 521 0 l 521 87 l 608 87 l 608 434 l 521 434 l 521 521 l 260 521 l 260 781 l 87 781 l 87 694 l 0 694 l 0 521 l 87 521 z "},"ƅ":{"ha":694,"x_min":0,"x_max":0,"o":"m 434 174 l 260 174 l 260 521 l 434 521 z m 87 0 l 521 0 l 521 87 l 608 87 l 608 608 l 521 608 l 521 694 l 260 694 l 260 868 l 87 868 l 87 781 l 0 781 l 0 608 l 87 608 z "},"Ɔ":{"ha":608,"x_min":0,"x_max":0,"o":"m 87 0 l 434 0 l 434 87 l 521 87 l 521 694 l 434 694 l 434 781 l 87 781 l 87 694 l 0 694 l 0 521 l 174 521 l 174 608 l 347 608 l 347 174 l 174 174 l 174 260 l 0 260 l 0 87 l 87 87 z "},"Ƈ":{"ha":694,"x_min":0,"x_max":0,"o":"m 87 0 l 434 0 l 434 87 l 521 87 l 521 260 l 347 260 l 347 174 l 174 174 l 174 608 l 347 608 l 347 521 l 521 521 l 521 694 l 608 694 l 608 868 l 434 868 l 434 781 l 87 781 l 87 694 l 0 694 l 0 87 l 87 87 z "},"ƈ":{"ha":694,"x_min":0,"x_max":0,"o":"m 87 0 l 434 0 l 434 87 l 521 87 l 521 260 l 347 260 l 347 174 l 174 174 l 174 521 l 347 521 l 347 434 l 521 434 l 521 694 l 608 694 l 608 868 l 434 868 l 434 781 l 347 781 l 347 694 l 87 694 l 87 608 l 0 608 l 0 87 l 87 87 z "},"Ɖ":{"ha":694,"x_min":0,"x_max":0,"o":"m 434 174 l 260 174 l 260 347 l 347 347 l 347 521 l 260 521 l 260 608 l 434 608 z m 87 0 l 521 0 l 521 87 l 608 87 l 608 694 l 521 694 l 521 781 l 87 781 l 87 521 l 0 521 l 0 347 l 87 347 z "},"Ɗ":{"ha":781,"x_min":0,"x_max":0,"o":"m 521 174 l 347 174 l 347 608 l 521 608 z m 0 521 l 87 521 l 87 694 l 0 694 z m 174 0 l 608 0 l 608 87 l 694 87 l 694 694 l 608 694 l 608 781 l 87 781 l 87 694 l 174 694 z "},"Ƌ":{"ha":608,"x_min":0,"x_max":0,"o":"m 347 174 l 174 174 l 174 347 l 347 347 z m 87 0 l 521 0 l 521 781 l 0 781 l 0 608 l 347 608 l 347 521 l 87 521 l 87 434 l 0 434 l 0 87 l 87 87 z "},"ƌ":{"ha":608,"x_min":0,"x_max":0,"o":"m 347 174 l 174 174 l 174 434 l 347 434 z m 87 0 l 521 0 l 521 781 l 434 781 l 434 868 l 0 868 l 0 694 l 347 694 l 347 608 l 87 608 l 87 521 l 0 521 l 0 87 l 87 87 z "},"ƍ":{"ha":608,"x_min":0,"x_max":0,"o":"m 347 260 l 174 260 l 174 521 l 347 521 z m 0 -174 l 434 -174 l 434 -87 l 521 -87 l 521 87 l 434 87 l 434 174 l 521 174 l 521 608 l 434 608 l 434 694 l 87 694 l 87 608 l 0 608 l 0 174 l 87 174 l 87 87 l 347 87 l 347 0 l 0 0 z "},"Ǝ":{"ha":608,"x_min":0,"x_max":0,"o":"m 0 0 l 521 0 l 521 781 l 0 781 l 0 608 l 347 608 l 347 521 l 87 521 l 87 347 l 347 347 l 347 174 l 0 174 z "},"Ə":{"ha":608,"x_min":0,"x_max":0,"o":"m 347 174 l 174 174 l 174 260 l 347 260 z m 87 0 l 434 0 l 434 87 l 521 87 l 521 694 l 434 694 l 434 781 l 87 781 l 87 694 l 0 694 l 0 521 l 174 521 l 174 608 l 347 608 l 347 434 l 0 434 l 0 87 l 87 87 z "},"Ɛ":{"ha":608,"x_min":0,"x_max":0,"o":"m 87 0 l 434 0 l 434 87 l 521 87 l 521 260 l 347 260 l 347 174 l 174 174 l 174 347 l 347 347 l 347 521 l 174 521 l 174 608 l 347 608 l 347 521 l 521 521 l 521 694 l 434 694 l 434 781 l 87 781 l 87 694 l 0 694 l 0 434 l 87 434 l 87 347 l 0 347 l 0 87 l 87 87 z "},"Ƒ":{"ha":694,"x_min":0,"x_max":0,"o":"m 0 -174 l 174 -174 l 174 -87 l 260 -87 l 260 260 l 521 260 l 521 434 l 260 434 l 260 608 l 608 608 l 608 781 l 87 781 l 87 0 l 0 0 z "},"ƒ":{"ha":521,"x_min":0,"x_max":0,"o":"m 0 -174 l 174 -174 l 174 -87 l 260 -87 l 260 434 l 434 434 l 434 608 l 260 608 l 260 694 l 434 694 l 434 868 l 174 868 l 174 781 l 87 781 l 87 608 l 0 608 l 0 434 l 87 434 l 87 0 l 0 0 z "},"Ɠ":{"ha":694,"x_min":0,"x_max":0,"o":"m 87 0 l 521 0 l 521 434 l 347 434 l 347 174 l 174 174 l 174 608 l 347 608 l 347 521 l 521 521 l 521 694 l 608 694 l 608 868 l 434 868 l 434 781 l 87 781 l 87 694 l 0 694 l 0 87 l 87 87 z "},"Ɣ":{"ha":608,"x_min":0,"x_max":0,"o":"m 347 0 l 174 0 l 174 87 l 347 87 z m 174 -174 l 347 -174 l 347 -87 l 434 -87 l 434 174 l 347 174 l 347 260 l 434 260 l 434 347 l 521 347 l 521 781 l 347 781 l 347 347 l 174 347 l 174 781 l 0 781 l 0 347 l 87 347 l 87 260 l 174 260 l 174 174 l 87 174 l 87 -87 l 174 -87 z "},"ƕ":{"ha":955,"x_min":0,"x_max":0,"o":"m 0 0 l 174 0 l 174 521 l 347 521 l 347 87 l 434 87 l 434 0 l 781 0 l 781 87 l 868 87 l 868 608 l 781 608 l 781 694 l 608 694 l 608 521 l 694 521 l 694 174 l 521 174 l 521 608 l 434 608 l 434 694 l 174 694 l 174 868 l 0 868 z "},"Ɩ":{"ha":347,"x_min":0,"x_max":0,"o":"m 87 0 l 260 0 l 260 174 l 174 174 l 174 781 l 0 781 l 0 87 l 87 87 z "},"Ɨ":{"ha":434,"x_min":0,"x_max":0,"o":"m 87 0 l 260 0 l 260 347 l 347 347 l 347 521 l 260 521 l 260 781 l 87 781 l 87 521 l 0 521 l 0 347 l 87 347 z "},"Ƙ":{"ha":608,"x_min":0,"x_max":0,"o":"m 0 0 l 174 0 l 174 347 l 347 347 l 347 0 l 521 0 l 521 434 l 434 434 l 434 521 l 347 521 l 347 608 l 521 608 l 521 781 l 347 781 l 347 694 l 260 694 l 260 521 l 174 521 l 174 781 l 0 781 z "},"ƙ":{"ha":608,"x_min":0,"x_max":0,"o":"m 0 0 l 174 0 l 174 260 l 347 260 l 347 0 l 521 0 l 521 347 l 434 347 l 434 434 l 521 434 l 521 694 l 347 694 l 347 434 l 174 434 l 174 694 l 260 694 l 260 868 l 87 868 l 87 781 l 0 781 z "},"ƚ":{"ha":434,"x_min":0,"x_max":0,"o":"m 174 0 l 347 0 l 347 174 l 260 174 l 260 434 l 347 434 l 347 608 l 260 608 l 260 868 l 87 868 l 87 608 l 0 608 l 0 434 l 87 434 l 87 87 l 174 87 z "},"ƛ":{"ha":608,"x_min":0,"x_max":0,"o":"m 0 0 l 174 0 l 174 347 l 347 347 l 347 0 l 521 0 l 521 347 l 434 347 l 434 521 l 347 521 l 347 608 l 521 608 l 521 694 l 347 694 l 347 781 l 260 781 l 260 868 l 0 868 l 0 694 l 174 694 l 174 608 l 0 608 l 0 521 l 87 521 l 87 347 l 0 347 z "},"Ɯ":{"ha":781,"x_min":0,"x_max":0,"o":"m 87 0 l 260 0 l 260 87 l 347 87 l 347 0 l 694 0 l 694 781 l 521 781 l 521 174 l 434 174 l 434 781 l 260 781 l 260 174 l 174 174 l 174 781 l 0 781 l 0 87 l 87 87 z "},"Ɲ":{"ha":694,"x_min":0,"x_max":0,"o":"m 0 -174 l 174 -174 l 174 -87 l 260 -87 l 260 608 l 434 608 l 434 0 l 608 0 l 608 694 l 521 694 l 521 781 l 87 781 l 87 0 l 0 0 z "},"ƞ":{"ha":608,"x_min":0,"x_max":0,"o":"m 347 -174 l 521 -174 l 521 608 l 434 608 l 434 694 l 0 694 l 0 0 l 174 0 l 174 521 l 347 521 z "},"Ɵ":{"ha":608,"x_min":0,"x_max":0,"o":"m 347 174 l 174 174 l 174 347 l 347 347 z m 347 521 l 174 521 l 174 608 l 347 608 z m 87 0 l 434 0 l 434 87 l 521 87 l 521 694 l 434 694 l 434 781 l 87 781 l 87 694 l 0 694 l 0 87 l 87 87 z "},"Ơ":{"ha":694,"x_min":0,"x_max":0,"o":"m 347 174 l 174 174 l 174 608 l 347 608 z m 87 0 l 434 0 l 434 87 l 521 87 l 521 521 l 608 521 l 608 781 l 521 781 l 521 608 l 434 608 l 434 781 l 87 781 l 87 694 l 0 694 l 0 87 l 87 87 z "},"ơ":{"ha":694,"x_min":0,"x_max":0,"o":"m 347 174 l 174 174 l 174 521 l 347 521 z m 87 0 l 434 0 l 434 87 l 521 87 l 521 434 l 608 434 l 608 694 l 521 694 l 521 521 l 434 521 l 434 694 l 87 694 l 87 608 l 0 608 l 0 87 l 87 87 z "},"Ƣ":{"ha":868,"x_min":0,"x_max":0,"o":"m 347 174 l 174 174 l 174 608 l 347 608 z m 87 0 l 434 0 l 434 87 l 521 87 l 521 608 l 608 608 l 608 0 l 781 0 l 781 694 l 694 694 l 694 781 l 521 781 l 521 694 l 434 694 l 434 781 l 87 781 l 87 694 l 0 694 l 0 87 l 87 87 z "},"ƣ":{"ha":868,"x_min":0,"x_max":0,"o":"m 347 174 l 174 174 l 174 521 l 347 521 z m 608 -174 l 781 -174 l 781 608 l 694 608 l 694 694 l 521 694 l 521 608 l 434 608 l 434 694 l 87 694 l 87 608 l 0 608 l 0 87 l 87 87 l 87 0 l 434 0 l 434 87 l 521 87 l 521 521 l 608 521 z "},"Ƥ":{"ha":781,"x_min":0,"x_max":0,"o":"m 521 434 l 347 434 l 347 608 l 521 608 z m 0 521 l 87 521 l 87 694 l 0 694 z m 174 0 l 347 0 l 347 260 l 608 260 l 608 347 l 694 347 l 694 694 l 608 694 l 608 781 l 87 781 l 87 694 l 174 694 z "},"ƥ":{"ha":608,"x_min":0,"x_max":0,"o":"m 347 174 l 174 174 l 174 434 l 347 434 z m 0 -174 l 174 -174 l 174 0 l 434 0 l 434 87 l 521 87 l 521 521 l 434 521 l 434 608 l 174 608 l 174 694 l 260 694 l 260 868 l 87 868 l 87 781 l 0 781 z "},"Ʀ":{"ha":608,"x_min":0,"x_max":0,"o":"m 347 347 l 174 347 l 174 521 l 347 521 z m 347 -174 l 521 -174 l 521 174 l 434 174 l 434 260 l 521 260 l 521 608 l 434 608 l 434 694 l 174 694 l 174 781 l 0 781 l 0 0 l 174 0 l 174 174 l 347 174 z "},"Ƨ":{"ha":608,"x_min":0,"x_max":0,"o":"m 87 0 l 434 0 l 434 87 l 521 87 l 521 260 l 347 260 l 347 174 l 174 174 l 174 260 l 260 260 l 260 347 l 434 347 l 434 434 l 521 434 l 521 694 l 434 694 l 434 781 l 87 781 l 87 694 l 0 694 l 0 521 l 174 521 l 174 608 l 347 608 l 347 521 l 260 521 l 260 434 l 87 434 l 87 347 l 0 347 l 0 87 l 87 87 z "},"ƨ":{"ha":608,"x_min":0,"x_max":0,"o":"m 87 0 l 521 0 l 521 174 l 174 174 l 174 260 l 434 260 l 434 347 l 521 347 l 521 608 l 434 608 l 434 694 l 0 694 l 0 521 l 347 521 l 347 434 l 87 434 l 87 347 l 0 347 l 0 87 l 87 87 z "},"Ʃ":{"ha":608,"x_min":0,"x_max":0,"o":"m 0 0 l 521 0 l 521 174 l 174 174 l 174 347 l 434 347 l 434 521 l 174 521 l 174 608 l 521 608 l 521 781 l 0 781 l 0 521 l 87 521 l 87 347 l 0 347 z "},"ƪ":{"ha":521,"x_min":0,"x_max":0,"o":"m 174 -174 l 434 -174 l 434 0 l 260 0 l 260 521 l 434 521 l 434 694 l 260 694 l 260 868 l 87 868 l 87 781 l 174 781 l 174 694 l 87 694 l 87 781 l 0 781 l 0 521 l 87 521 l 87 -87 l 174 -87 z "},"ƫ":{"ha":434,"x_min":0,"x_max":0,"o":"m 87 -174 l 260 -174 l 260 -87 l 347 -87 l 347 174 l 174 174 l 174 521 l 347 521 l 347 694 l 174 694 l 174 868 l 0 868 l 0 87 l 87 87 l 87 0 l 174 0 l 174 -87 l 87 -87 z "},"Ƭ":{"ha":608,"x_min":0,"x_max":0,"o":"m 174 0 l 347 0 l 347 608 l 521 608 l 521 781 l 87 781 l 87 694 l 0 694 l 0 434 l 87 434 l 87 608 l 174 608 z "},"ƭ":{"ha":434,"x_min":0,"x_max":0,"o":"m 87 -174 l 347 -174 l 347 0 l 174 0 l 174 434 l 347 434 l 347 608 l 174 608 l 174 694 l 347 694 l 347 868 l 87 868 l 87 781 l 0 781 l 0 -87 l 87 -87 z "},"Ʈ":{"ha":608,"x_min":0,"x_max":0,"o":"m 260 -174 l 521 -174 l 521 0 l 347 0 l 347 608 l 521 608 l 521 781 l 0 781 l 0 608 l 174 608 l 174 -87 l 260 -87 z "},"Ư":{"ha":694,"x_min":0,"x_max":0,"o":"m 87 0 l 434 0 l 434 87 l 521 87 l 521 521 l 608 521 l 608 781 l 521 781 l 521 608 l 434 608 l 434 781 l 347 781 l 347 174 l 174 174 l 174 781 l 0 781 l 0 87 l 87 87 z "},"ư":{"ha":694,"x_min":0,"x_max":0,"o":"m 87 0 l 521 0 l 521 434 l 608 434 l 608 694 l 521 694 l 521 521 l 434 521 l 434 694 l 347 694 l 347 174 l 174 174 l 174 694 l 0 694 l 0 87 l 87 87 z "},"Ʊ":{"ha":694,"x_min":0,"x_max":0,"o":"m 87 0 l 521 0 l 521 87 l 608 87 l 608 521 l 521 521 l 521 608 l 608 608 l 608 781 l 347 781 l 347 521 l 434 521 l 434 174 l 174 174 l 174 521 l 260 521 l 260 781 l 0 781 l 0 608 l 87 608 l 87 521 l 0 521 l 0 87 l 87 87 z "},"Ʋ":{"ha":608,"x_min":0,"x_max":0,"o":"m 87 0 l 347 0 l 347 87 l 434 87 l 434 174 l 521 174 l 521 608 l 434 608 l 434 694 l 260 694 l 260 521 l 347 521 l 347 260 l 260 260 l 260 174 l 174 174 l 174 781 l 0 781 l 0 87 l 87 87 z "},"Ƴ":{"ha":694,"x_min":0,"x_max":0,"o":"m 521 521 l 608 521 l 608 694 l 521 694 z m 174 0 l 347 0 l 347 260 l 434 260 l 434 694 l 521 694 l 521 781 l 347 781 l 347 694 l 260 694 l 260 434 l 174 434 l 174 781 l 0 781 l 0 347 l 87 347 l 87 260 l 174 260 z "},"ƴ":{"ha":694,"x_min":0,"x_max":0,"o":"m 521 434 l 608 434 l 608 608 l 521 608 z m 0 -174 l 434 -174 l 434 -87 l 521 -87 l 521 347 l 434 347 l 434 608 l 347 608 l 347 260 l 174 260 l 174 694 l 0 694 l 0 174 l 87 174 l 87 87 l 347 87 l 347 0 l 0 0 z m 434 608 l 521 608 l 521 694 l 434 694 z "},"Ƶ":{"ha":608,"x_min":0,"x_max":0,"o":"m 0 0 l 521 0 l 521 174 l 174 174 l 174 260 l 260 260 l 260 347 l 521 347 l 521 521 l 434 521 l 434 608 l 521 608 l 521 781 l 0 781 l 0 608 l 260 608 l 260 521 l 0 521 l 0 347 l 87 347 l 87 260 l 0 260 z "},"ƶ":{"ha":608,"x_min":0,"x_max":0,"o":"m 0 0 l 521 0 l 521 174 l 260 174 l 260 260 l 521 260 l 521 434 l 434 434 l 434 521 l 521 521 l 521 694 l 0 694 l 0 521 l 260 521 l 260 434 l 0 434 l 0 260 l 87 260 l 87 174 l 0 174 z "},"Ʒ":{"ha":608,"x_min":0,"x_max":0,"o":"m 87 0 l 434 0 l 434 87 l 521 87 l 521 347 l 434 347 l 434 434 l 521 434 l 521 781 l 0 781 l 0 608 l 347 608 l 347 521 l 87 521 l 87 347 l 347 347 l 347 174 l 174 174 l 174 260 l 0 260 l 0 87 l 87 87 z "},"Ƹ":{"ha":608,"x_min":0,"x_max":0,"o":"m 87 0 l 434 0 l 434 87 l 521 87 l 521 260 l 347 260 l 347 174 l 174 174 l 174 347 l 434 347 l 434 521 l 174 521 l 174 608 l 521 608 l 521 781 l 0 781 l 0 434 l 87 434 l 87 347 l 0 347 l 0 87 l 87 87 z "},"ƹ":{"ha":608,"x_min":0,"x_max":0,"o":"m 87 -174 l 434 -174 l 434 -87 l 521 -87 l 521 87 l 347 87 l 347 0 l 174 0 l 174 260 l 434 260 l 434 434 l 174 434 l 174 521 l 521 521 l 521 694 l 0 694 l 0 347 l 87 347 l 87 260 l 0 260 l 0 -87 l 87 -87 z "},"ƺ":{"ha":608,"x_min":0,"x_max":0,"o":"m 87 -174 l 521 -174 l 521 0 l 174 0 l 174 87 l 434 87 l 434 174 l 521 174 l 521 347 l 434 347 l 434 434 l 521 434 l 521 694 l 0 694 l 0 521 l 347 521 l 347 434 l 0 434 l 0 347 l 347 347 l 347 260 l 87 260 l 87 174 l 0 174 l 0 -87 l 87 -87 z "},"ƻ":{"ha":608,"x_min":0,"x_max":0,"o":"m 0 0 l 521 0 l 521 174 l 260 174 l 260 260 l 521 260 l 521 434 l 434 434 l 434 521 l 521 521 l 521 694 l 434 694 l 434 781 l 87 781 l 87 694 l 0 694 l 0 521 l 174 521 l 174 608 l 347 608 l 347 521 l 260 521 l 260 434 l 0 434 l 0 260 l 87 260 l 87 174 l 0 174 z "},"Ƽ":{"ha":608,"x_min":0,"x_max":0,"o":"m 87 0 l 434 0 l 434 87 l 521 87 l 521 434 l 434 434 l 434 521 l 174 521 l 174 608 l 521 608 l 521 781 l 0 781 l 0 347 l 347 347 l 347 174 l 174 174 l 174 260 l 0 260 l 0 87 l 87 87 z "},"ƽ":{"ha":608,"x_min":0,"x_max":0,"o":"m 87 -174 l 434 -174 l 434 -87 l 521 -87 l 521 260 l 434 260 l 434 347 l 174 347 l 174 521 l 521 521 l 521 694 l 0 694 l 0 174 l 347 174 l 347 0 l 174 0 l 174 87 l 0 87 l 0 -87 l 87 -87 z "},"ƾ":{"ha":608,"x_min":0,"x_max":0,"o":"m 87 0 l 434 0 l 434 87 l 521 87 l 521 434 l 434 434 l 434 521 l 347 521 l 347 608 l 434 608 l 434 781 l 347 781 l 347 868 l 174 868 l 174 781 l 87 781 l 87 608 l 174 608 l 174 347 l 347 347 l 347 174 l 174 174 l 174 260 l 0 260 l 0 87 l 87 87 z "},"ƿ":{"ha":608,"x_min":0,"x_max":0,"o":"m 260 260 l 174 260 l 174 521 l 347 521 l 347 347 l 260 347 z m 0 -174 l 174 -174 l 174 0 l 260 0 l 260 87 l 347 87 l 347 174 l 434 174 l 434 260 l 521 260 l 521 608 l 434 608 l 434 694 l 0 694 z "},"ǀ":{"ha":260,"x_min":0,"x_max":0,"o":"m 0 -174 l 174 -174 l 174 868 l 0 868 z "},"ǁ":{"ha":347,"x_min":0,"x_max":0,"o":"m 0 -174 l 87 -174 l 87 868 l 0 868 z m 174 -174 l 260 -174 l 260 868 l 174 868 z "},"ǂ":{"ha":434,"x_min":0,"x_max":0,"o":"m 87 -174 l 260 -174 l 260 87 l 347 87 l 347 260 l 260 260 l 260 434 l 347 434 l 347 608 l 260 608 l 260 868 l 87 868 l 87 608 l 0 608 l 0 434 l 87 434 l 87 260 l 0 260 l 0 87 l 87 87 z "},"ǃ":{"ha":434,"x_min":0,"x_max":0,"o":"m 87 0 l 260 0 l 260 174 l 87 174 z m 0 260 l 347 260 l 347 434 l 260 434 l 260 694 l 347 694 l 347 868 l 0 868 l 0 694 l 87 694 l 87 434 l 0 434 z "},"Ǎ":{"ha":608,"x_min":0,"x_max":0,"o":"m 347 434 l 174 434 l 174 608 l 347 608 z m 0 0 l 174 0 l 174 260 l 347 260 l 347 0 l 521 0 l 521 694 l 434 694 l 434 781 l 87 781 l 87 694 l 0 694 z m 174 868 l 347 868 l 347 955 l 434 955 l 434 1042 l 87 1042 l 87 955 l 174 955 z "},"ǎ":{"ha":608,"x_min":0,"x_max":0,"o":"m 347 174 l 174 174 l 174 260 l 347 260 z m 87 0 l 521 0 l 521 608 l 434 608 l 434 694 l 0 694 l 0 521 l 347 521 l 347 434 l 87 434 l 87 347 l 0 347 l 0 87 l 87 87 z m 174 781 l 347 781 l 347 868 l 434 868 l 434 955 l 87 955 l 87 868 l 174 868 z "},"Ǐ":{"ha":434,"x_min":0,"x_max":0,"o":"m 0 0 l 347 0 l 347 174 l 260 174 l 260 608 l 347 608 l 347 781 l 0 781 l 0 608 l 87 608 l 87 174 l 0 174 z m 87 868 l 260 868 l 260 955 l 347 955 l 347 1042 l 0 1042 l 0 955 l 87 955 z "},"ǐ":{"ha":434,"x_min":0,"x_max":0,"o":"m 87 0 l 260 0 l 260 608 l 87 608 z m 87 694 l 260 694 l 260 781 l 347 781 l 347 868 l 0 868 l 0 781 l 87 781 z "},"Ǒ":{"ha":608,"x_min":0,"x_max":0,"o":"m 347 174 l 174 174 l 174 608 l 347 608 z m 87 0 l 434 0 l 434 87 l 521 87 l 521 694 l 434 694 l 434 781 l 87 781 l 87 694 l 0 694 l 0 87 l 87 87 z m 174 868 l 347 868 l 347 955 l 434 955 l 434 1042 l 87 1042 l 87 955 l 174 955 z "},"ǒ":{"ha":608,"x_min":0,"x_max":0,"o":"m 347 174 l 174 174 l 174 521 l 347 521 z m 87 0 l 434 0 l 434 87 l 521 87 l 521 608 l 434 608 l 434 694 l 87 694 l 87 608 l 0 608 l 0 87 l 87 87 z m 174 781 l 347 781 l 347 868 l 434 868 l 434 955 l 87 955 l 87 868 l 174 868 z "},"Ǔ":{"ha":608,"x_min":0,"x_max":0,"o":"m 87 0 l 434 0 l 434 87 l 521 87 l 521 781 l 347 781 l 347 174 l 174 174 l 174 781 l 0 781 l 0 87 l 87 87 z m 174 868 l 347 868 l 347 955 l 434 955 l 434 1042 l 87 1042 l 87 955 l 174 955 z "},"ǔ":{"ha":608,"x_min":0,"x_max":0,"o":"m 87 0 l 521 0 l 521 694 l 347 694 l 347 174 l 174 174 l 174 694 l 0 694 l 0 87 l 87 87 z m 174 781 l 347 781 l 347 868 l 434 868 l 434 955 l 87 955 l 87 868 l 174 868 z "},"Ǖ":{"ha":608,"x_min":0,"x_max":0,"o":"m 87 0 l 434 0 l 434 87 l 521 87 l 521 781 l 347 781 l 347 174 l 174 174 l 174 781 l 0 781 l 0 87 l 87 87 z m 87 868 l 174 868 l 174 955 l 87 955 z m 347 868 l 434 868 l 434 955 l 347 955 z m 87 1042 l 434 1042 l 434 1128 l 87 1128 z "},"ǖ":{"ha":608,"x_min":0,"x_max":0,"o":"m 87 0 l 521 0 l 521 694 l 347 694 l 347 174 l 174 174 l 174 694 l 0 694 l 0 87 l 87 87 z m 87 781 l 174 781 l 174 868 l 87 868 z m 347 781 l 434 781 l 434 868 l 347 868 z m 87 955 l 434 955 l 434 1042 l 87 1042 z "},"Ǘ":{"ha":608,"x_min":0,"x_max":0,"o":"m 87 0 l 434 0 l 434 87 l 521 87 l 521 781 l 347 781 l 347 174 l 174 174 l 174 781 l 0 781 l 0 87 l 87 87 z m 87 868 l 174 868 l 174 955 l 87 955 z m 347 868 l 434 868 l 434 955 l 347 955 z m 174 1042 l 347 1042 l 347 1128 l 434 1128 l 434 1215 l 260 1215 l 260 1128 l 174 1128 z "},"ǘ":{"ha":608,"x_min":0,"x_max":0,"o":"m 87 0 l 521 0 l 521 694 l 347 694 l 347 174 l 174 174 l 174 694 l 0 694 l 0 87 l 87 87 z m 87 781 l 174 781 l 174 868 l 87 868 z m 347 781 l 434 781 l 434 868 l 347 868 z m 174 955 l 347 955 l 347 1042 l 434 1042 l 434 1128 l 260 1128 l 260 1042 l 174 1042 z "},"Ǚ":{"ha":608,"x_min":0,"x_max":0,"o":"m 87 0 l 434 0 l 434 87 l 521 87 l 521 781 l 347 781 l 347 174 l 174 174 l 174 781 l 0 781 l 0 87 l 87 87 z m 87 868 l 174 868 l 174 955 l 87 955 z m 347 868 l 434 868 l 434 955 l 347 955 z m 174 1042 l 347 1042 l 347 1128 l 434 1128 l 434 1215 l 87 1215 l 87 1128 l 174 1128 z "},"ǚ":{"ha":608,"x_min":0,"x_max":0,"o":"m 87 0 l 521 0 l 521 694 l 347 694 l 347 174 l 174 174 l 174 694 l 0 694 l 0 87 l 87 87 z m 87 781 l 174 781 l 174 868 l 87 868 z m 347 781 l 434 781 l 434 868 l 347 868 z m 174 955 l 347 955 l 347 1042 l 434 1042 l 434 1128 l 87 1128 l 87 1042 l 174 1042 z "},"Ǜ":{"ha":608,"x_min":0,"x_max":0,"o":"m 87 0 l 434 0 l 434 87 l 521 87 l 521 781 l 347 781 l 347 174 l 174 174 l 174 781 l 0 781 l 0 87 l 87 87 z m 87 868 l 174 868 l 174 955 l 87 955 z m 347 868 l 434 868 l 434 955 l 347 955 z m 174 1042 l 347 1042 l 347 1128 l 260 1128 l 260 1215 l 87 1215 l 87 1128 l 174 1128 z "},"ǜ":{"ha":608,"x_min":0,"x_max":0,"o":"m 87 0 l 521 0 l 521 694 l 347 694 l 347 174 l 174 174 l 174 694 l 0 694 l 0 87 l 87 87 z m 87 781 l 174 781 l 174 868 l 87 868 z m 347 781 l 434 781 l 434 868 l 347 868 z m 174 955 l 347 955 l 347 1042 l 260 1042 l 260 1128 l 87 1128 l 87 1042 l 174 1042 z "},"ǝ":{"ha":608,"x_min":0,"x_max":0,"o":"m 347 174 l 174 174 l 174 260 l 347 260 z m 87 0 l 434 0 l 434 87 l 521 87 l 521 608 l 434 608 l 434 694 l 0 694 l 0 521 l 347 521 l 347 434 l 0 434 l 0 87 l 87 87 z "},"Ș":{"ha":608,"x_min":0,"x_max":0,"o":"m 87 -260 l 260 -260 l 260 -174 l 347 -174 l 347 -87 l 174 -87 l 174 -174 l 87 -174 z m 87 0 l 434 0 l 434 87 l 521 87 l 521 347 l 434 347 l 434 434 l 260 434 l 260 521 l 174 521 l 174 608 l 347 608 l 347 521 l 521 521 l 521 694 l 434 694 l 434 781 l 87 781 l 87 694 l 0 694 l 0 434 l 87 434 l 87 347 l 260 347 l 260 260 l 347 260 l 347 174 l 174 174 l 174 260 l 0 260 l 0 87 l 87 87 z "},"ș":{"ha":608,"x_min":0,"x_max":0,"o":"m 87 -260 l 260 -260 l 260 -174 l 347 -174 l 347 -87 l 174 -87 l 174 -174 l 87 -174 z m 0 0 l 434 0 l 434 87 l 521 87 l 521 347 l 434 347 l 434 434 l 174 434 l 174 521 l 521 521 l 521 694 l 87 694 l 87 608 l 0 608 l 0 347 l 87 347 l 87 260 l 347 260 l 347 174 l 0 174 z "},"Ț":{"ha":608,"x_min":0,"x_max":0,"o":"m 87 -260 l 260 -260 l 260 -174 l 347 -174 l 347 -87 l 174 -87 l 174 -174 l 87 -174 z m 174 0 l 347 0 l 347 608 l 521 608 l 521 781 l 0 781 l 0 608 l 174 608 z "},"ț":{"ha":434,"x_min":0,"x_max":0,"o":"m 0 -260 l 174 -260 l 174 -174 l 260 -174 l 260 -87 l 87 -87 l 87 -174 l 0 -174 z m 87 0 l 347 0 l 347 174 l 174 174 l 174 521 l 347 521 l 347 694 l 174 694 l 174 868 l 0 868 l 0 87 l 87 87 z "},"ɐ":{"ha":608,"x_min":0,"x_max":0,"o":"m 347 434 l 174 434 l 174 521 l 347 521 z m 87 0 l 521 0 l 521 174 l 174 174 l 174 260 l 434 260 l 434 347 l 521 347 l 521 608 l 434 608 l 434 694 l 0 694 l 0 87 l 87 87 z "},"ɑ":{"ha":608,"x_min":0,"x_max":0,"o":"m 260 174 l 174 174 l 174 521 l 347 521 l 347 260 l 260 260 z m 87 0 l 260 0 l 260 87 l 347 87 l 347 0 l 521 0 l 521 694 l 87 694 l 87 608 l 0 608 l 0 87 l 87 87 z "},"ɒ":{"ha":608,"x_min":0,"x_max":0,"o":"m 347 174 l 174 174 l 174 434 l 260 434 l 260 521 l 347 521 z m 0 0 l 434 0 l 434 87 l 521 87 l 521 608 l 434 608 l 434 694 l 260 694 l 260 608 l 174 608 l 174 694 l 0 694 z "},"ɓ":{"ha":608,"x_min":0,"x_max":0,"o":"m 347 174 l 174 174 l 174 434 l 347 434 z m 0 0 l 434 0 l 434 87 l 521 87 l 521 521 l 434 521 l 434 608 l 174 608 l 174 694 l 434 694 l 434 868 l 87 868 l 87 781 l 0 781 z "},"ɔ":{"ha":608,"x_min":0,"x_max":0,"o":"m 87 0 l 434 0 l 434 87 l 521 87 l 521 608 l 434 608 l 434 694 l 87 694 l 87 608 l 0 608 l 0 434 l 174 434 l 174 521 l 347 521 l 347 174 l 174 174 l 174 260 l 0 260 l 0 87 l 87 87 z "},"ɕ":{"ha":608,"x_min":0,"x_max":0,"o":"m 434 87 l 347 87 l 347 174 l 434 174 z m 174 -174 l 347 -174 l 347 0 l 521 0 l 521 260 l 260 260 l 260 174 l 174 174 l 174 521 l 347 521 l 347 434 l 521 434 l 521 608 l 434 608 l 434 694 l 87 694 l 87 608 l 0 608 l 0 87 l 87 87 l 87 0 l 174 0 z "},"ɖ":{"ha":694,"x_min":0,"x_max":0,"o":"m 347 174 l 174 174 l 174 521 l 347 521 z m 434 -174 l 608 -174 l 608 0 l 521 0 l 521 868 l 347 868 l 347 694 l 87 694 l 87 608 l 0 608 l 0 87 l 87 87 l 87 0 l 347 0 l 347 -87 l 434 -87 z "},"ɗ":{"ha":694,"x_min":0,"x_max":0,"o":"m 347 174 l 174 174 l 174 521 l 347 521 z m 87 0 l 521 0 l 521 694 l 608 694 l 608 868 l 434 868 l 434 781 l 347 781 l 347 694 l 87 694 l 87 608 l 0 608 l 0 87 l 87 87 z "},"ɘ":{"ha":608,"x_min":0,"x_max":0,"o":"m 347 434 l 174 434 l 174 521 l 347 521 z m 0 0 l 434 0 l 434 87 l 521 87 l 521 608 l 434 608 l 434 694 l 87 694 l 87 608 l 0 608 l 0 260 l 347 260 l 347 174 l 0 174 z "},"ə":{"ha":608,"x_min":0,"x_max":0,"o":"m 347 174 l 174 174 l 174 260 l 347 260 z m 87 0 l 434 0 l 434 87 l 521 87 l 521 608 l 434 608 l 434 694 l 0 694 l 0 521 l 347 521 l 347 434 l 0 434 l 0 87 l 87 87 z "},"ɚ":{"ha":781,"x_min":0,"x_max":0,"o":"m 347 174 l 174 174 l 174 260 l 347 260 z m 87 0 l 434 0 l 434 87 l 521 87 l 521 347 l 608 347 l 608 260 l 694 260 l 694 434 l 521 434 l 521 608 l 434 608 l 434 694 l 0 694 l 0 521 l 347 521 l 347 434 l 0 434 l 0 87 l 87 87 z "},"ɛ":{"ha":608,"x_min":0,"x_max":0,"o":"m 87 0 l 521 0 l 521 174 l 174 174 l 174 260 l 434 260 l 434 434 l 174 434 l 174 521 l 521 521 l 521 694 l 87 694 l 87 608 l 0 608 l 0 434 l 87 434 l 87 347 l 0 347 l 0 87 l 87 87 z "},"ɜ":{"ha":608,"x_min":0,"x_max":0,"o":"m 0 0 l 434 0 l 434 87 l 521 87 l 521 347 l 434 347 l 434 434 l 521 434 l 521 608 l 434 608 l 434 694 l 0 694 l 0 521 l 347 521 l 347 434 l 87 434 l 87 260 l 347 260 l 347 174 l 0 174 z "},"ɝ":{"ha":781,"x_min":0,"x_max":0,"o":"m 0 0 l 434 0 l 434 87 l 521 87 l 521 347 l 434 347 l 434 434 l 608 434 l 608 347 l 694 347 l 694 521 l 521 521 l 521 608 l 434 608 l 434 694 l 0 694 l 0 521 l 347 521 l 347 434 l 87 434 l 87 260 l 347 260 l 347 174 l 0 174 z "},"ɞ":{"ha":608,"x_min":0,"x_max":0,"o":"m 347 174 l 174 174 l 174 521 l 347 521 l 347 434 l 260 434 l 260 260 l 347 260 z m 87 0 l 434 0 l 434 87 l 521 87 l 521 347 l 434 347 l 434 434 l 521 434 l 521 608 l 434 608 l 434 694 l 87 694 l 87 608 l 0 608 l 0 87 l 87 87 z "},"ɟ":{"ha":521,"x_min":0,"x_max":0,"o":"m 0 -174 l 260 -174 l 260 -87 l 347 -87 l 347 260 l 434 260 l 434 434 l 347 434 l 347 694 l 174 694 l 174 434 l 0 434 l 0 260 l 174 260 l 174 0 l 0 0 z "},"ɠ":{"ha":694,"x_min":0,"x_max":0,"o":"m 347 260 l 174 260 l 174 521 l 347 521 z m 0 -174 l 434 -174 l 434 -87 l 521 -87 l 521 694 l 608 694 l 608 868 l 434 868 l 434 781 l 347 781 l 347 694 l 87 694 l 87 608 l 0 608 l 0 174 l 87 174 l 87 87 l 347 87 l 347 0 l 0 0 z "},"ɡ":{"ha":608,"x_min":0,"x_max":0,"o":"m 347 260 l 174 260 l 174 521 l 347 521 z m 0 -174 l 434 -174 l 434 -87 l 521 -87 l 521 694 l 87 694 l 87 608 l 0 608 l 0 174 l 87 174 l 87 87 l 347 87 l 347 0 l 0 0 z "},"ɢ":{"ha":608,"x_min":0,"x_max":0,"o":"m 87 0 l 521 0 l 521 434 l 260 434 l 260 260 l 347 260 l 347 174 l 174 174 l 174 521 l 521 521 l 521 694 l 87 694 l 87 608 l 0 608 l 0 87 l 87 87 z "},"ɣ":{"ha":608,"x_min":0,"x_max":0,"o":"m 174 -174 l 347 -174 l 347 -87 l 434 -87 l 434 87 l 347 87 l 347 0 l 174 0 l 174 87 l 87 87 l 87 -87 l 174 -87 z m 174 87 l 347 87 l 347 174 l 434 174 l 434 260 l 521 260 l 521 694 l 347 694 l 347 260 l 174 260 l 174 694 l 0 694 l 0 260 l 87 260 l 87 174 l 174 174 z "},"ɤ":{"ha":608,"x_min":0,"x_max":0,"o":"m 174 0 l 347 0 l 347 87 l 434 87 l 434 260 l 347 260 l 347 174 l 174 174 l 174 260 l 87 260 l 87 87 l 174 87 z m 174 260 l 347 260 l 347 347 l 434 347 l 434 434 l 521 434 l 521 694 l 347 694 l 347 434 l 174 434 l 174 694 l 0 694 l 0 434 l 87 434 l 87 347 l 174 347 z "},"ɥ":{"ha":608,"x_min":0,"x_max":0,"o":"m 347 -174 l 521 -174 l 521 694 l 347 694 l 347 174 l 174 174 l 174 694 l 0 694 l 0 87 l 87 87 l 87 0 l 347 0 z "},"ɦ":{"ha":608,"x_min":0,"x_max":0,"o":"m 0 0 l 174 0 l 174 434 l 347 434 l 347 0 l 521 0 l 521 521 l 434 521 l 434 608 l 174 608 l 174 694 l 347 694 l 347 868 l 87 868 l 87 781 l 0 781 z "},"ɧ":{"ha":608,"x_min":0,"x_max":0,"o":"m 174 -174 l 434 -174 l 434 -87 l 521 -87 l 521 521 l 434 521 l 434 608 l 174 608 l 174 694 l 347 694 l 347 868 l 87 868 l 87 781 l 0 781 l 0 0 l 174 0 l 174 434 l 347 434 l 347 0 l 174 0 z "},"ɨ":{"ha":434,"x_min":0,"x_max":0,"o":"m 87 0 l 260 0 l 260 260 l 347 260 l 347 434 l 260 434 l 260 608 l 87 608 l 87 434 l 0 434 l 0 260 l 87 260 z m 87 694 l 260 694 l 260 868 l 87 868 z "},"ɩ":{"ha":347,"x_min":0,"x_max":0,"o":"m 87 0 l 260 0 l 260 174 l 174 174 l 174 694 l 0 694 l 0 87 l 87 87 z "},"ɪ":{"ha":434,"x_min":0,"x_max":0,"o":"m 0 0 l 347 0 l 347 174 l 260 174 l 260 521 l 347 521 l 347 694 l 0 694 l 0 521 l 87 521 l 87 174 l 0 174 z "},"ɫ":{"ha":434,"x_min":0,"x_max":0,"o":"m 174 0 l 347 0 l 347 174 l 260 174 l 260 434 l 347 434 l 347 608 l 260 608 l 260 868 l 87 868 l 87 521 l 0 521 l 0 347 l 87 347 l 87 87 l 174 87 z "},"ɬ":{"ha":434,"x_min":0,"x_max":0,"o":"m 174 434 l 87 434 l 87 521 l 174 521 z m 174 0 l 347 0 l 347 174 l 260 174 l 260 347 l 347 347 l 347 521 l 260 521 l 260 868 l 87 868 l 87 608 l 0 608 l 0 347 l 87 347 l 87 87 l 174 87 z "},"ɭ":{"ha":347,"x_min":0,"x_max":0,"o":"m 87 -174 l 260 -174 l 260 0 l 174 0 l 174 868 l 0 868 l 0 -87 l 87 -87 z "},"ɮ":{"ha":694,"x_min":0,"x_max":0,"o":"m 174 -174 l 521 -174 l 521 -87 l 608 -87 l 608 347 l 521 347 l 521 434 l 608 434 l 608 694 l 174 694 l 174 868 l 0 868 l 0 0 l 174 0 l 174 521 l 434 521 l 434 434 l 260 434 l 260 260 l 434 260 l 434 0 l 174 0 z "},"ɯ":{"ha":781,"x_min":0,"x_max":0,"o":"m 87 0 l 260 0 l 260 87 l 347 87 l 347 0 l 694 0 l 694 694 l 521 694 l 521 174 l 434 174 l 434 694 l 260 694 l 260 174 l 174 174 l 174 694 l 0 694 l 0 87 l 87 87 z "},"ɰ":{"ha":781,"x_min":0,"x_max":0,"o":"m 521 -174 l 694 -174 l 694 694 l 521 694 l 521 174 l 434 174 l 434 694 l 260 694 l 260 174 l 174 174 l 174 694 l 0 694 l 0 87 l 87 87 l 87 0 l 260 0 l 260 87 l 347 87 l 347 0 l 521 0 z "},"ɱ":{"ha":781,"x_min":0,"x_max":0,"o":"m 434 -174 l 608 -174 l 608 -87 l 694 -87 l 694 608 l 608 608 l 608 694 l 434 694 l 434 608 l 347 608 l 347 694 l 0 694 l 0 0 l 174 0 l 174 521 l 260 521 l 260 0 l 434 0 l 434 521 l 521 521 l 521 0 l 434 0 z "},"ɲ":{"ha":694,"x_min":0,"x_max":0,"o":"m 0 -174 l 174 -174 l 174 -87 l 260 -87 l 260 521 l 434 521 l 434 0 l 608 0 l 608 608 l 521 608 l 521 694 l 87 694 l 87 0 l 0 0 z "},"ɳ":{"ha":694,"x_min":0,"x_max":0,"o":"m 434 -174 l 608 -174 l 608 0 l 521 0 l 521 608 l 434 608 l 434 694 l 0 694 l 0 0 l 174 0 l 174 521 l 347 521 l 347 -87 l 434 -87 z "},"ɴ":{"ha":608,"x_min":0,"x_max":0,"o":"m 0 0 l 174 0 l 174 347 l 260 347 l 260 260 l 347 260 l 347 0 l 521 0 l 521 694 l 347 694 l 347 521 l 260 521 l 260 608 l 174 608 l 174 694 l 0 694 z "},"ɵ":{"ha":608,"x_min":0,"x_max":0,"o":"m 347 174 l 174 174 l 174 260 l 347 260 z m 347 434 l 174 434 l 174 521 l 347 521 z m 87 0 l 434 0 l 434 87 l 521 87 l 521 608 l 434 608 l 434 694 l 87 694 l 87 608 l 0 608 l 0 87 l 87 87 z "},"ɶ":{"ha":868,"x_min":0,"x_max":0,"o":"m 347 174 l 174 174 l 174 521 l 347 521 z m 87 0 l 781 0 l 781 174 l 521 174 l 521 260 l 694 260 l 694 434 l 521 434 l 521 521 l 781 521 l 781 694 l 87 694 l 87 608 l 0 608 l 0 87 l 87 87 z "},"ɷ":{"ha":781,"x_min":0,"x_max":0,"o":"m 521 174 l 434 174 l 434 434 l 260 434 l 260 174 l 174 174 l 174 521 l 521 521 z m 87 0 l 260 0 l 260 87 l 347 87 l 347 0 l 608 0 l 608 87 l 694 87 l 694 608 l 608 608 l 608 694 l 87 694 l 87 608 l 0 608 l 0 87 l 87 87 z "},"ɸ":{"ha":781,"x_min":0,"x_max":0,"o":"m 260 174 l 174 174 l 174 521 l 260 521 z m 521 174 l 434 174 l 434 521 l 521 521 z m 260 -174 l 434 -174 l 434 0 l 608 0 l 608 87 l 694 87 l 694 608 l 608 608 l 608 694 l 434 694 l 434 868 l 260 868 l 260 694 l 87 694 l 87 608 l 0 608 l 0 87 l 87 87 l 87 0 l 260 0 z "},"ɹ":{"ha":521,"x_min":0,"x_max":0,"o":"m 0 0 l 174 0 l 174 87 l 260 87 l 260 0 l 434 0 l 434 694 l 260 694 l 260 260 l 174 260 l 174 174 l 0 174 z "},"ɺ":{"ha":521,"x_min":0,"x_max":0,"o":"m 0 0 l 174 0 l 174 87 l 260 87 l 260 0 l 434 0 l 434 868 l 260 868 l 260 260 l 174 260 l 174 174 l 0 174 z "},"ɻ":{"ha":608,"x_min":0,"x_max":0,"o":"m 347 -174 l 521 -174 l 521 0 l 434 0 l 434 868 l 260 868 l 260 260 l 174 260 l 174 174 l 0 174 l 0 0 l 174 0 l 174 87 l 260 87 l 260 -87 l 347 -87 z "},"ɼ":{"ha":521,"x_min":0,"x_max":0,"o":"m 0 -174 l 174 -174 l 174 434 l 260 434 l 260 521 l 434 521 l 434 694 l 260 694 l 260 608 l 174 608 l 174 694 l 0 694 z "},"ɽ":{"ha":521,"x_min":0,"x_max":0,"o":"m 87 -174 l 347 -174 l 347 0 l 174 0 l 174 434 l 260 434 l 260 521 l 434 521 l 434 694 l 260 694 l 260 608 l 174 608 l 174 694 l 0 694 l 0 -87 l 87 -87 z "},"ɾ":{"ha":608,"x_min":0,"x_max":0,"o":"m 0 0 l 434 0 l 434 174 l 260 174 l 260 521 l 521 521 l 521 694 l 174 694 l 174 608 l 87 608 l 87 174 l 0 174 z "},"ɿ":{"ha":608,"x_min":0,"x_max":0,"o":"m 87 0 l 521 0 l 521 174 l 434 174 l 434 608 l 347 608 l 347 694 l 0 694 l 0 521 l 260 521 l 260 174 l 87 174 z "},"ʀ":{"ha":608,"x_min":0,"x_max":0,"o":"m 347 434 l 174 434 l 174 521 l 347 521 z m 0 0 l 174 0 l 174 260 l 347 260 l 347 0 l 521 0 l 521 260 l 434 260 l 434 347 l 521 347 l 521 608 l 434 608 l 434 694 l 0 694 z "},"ʁ":{"ha":608,"x_min":0,"x_max":0,"o":"m 347 174 l 174 174 l 174 260 l 347 260 z m 0 0 l 434 0 l 434 87 l 521 87 l 521 347 l 434 347 l 434 434 l 521 434 l 521 694 l 347 694 l 347 434 l 174 434 l 174 694 l 0 694 z "},"ʂ":{"ha":608,"x_min":0,"x_max":0,"o":"m 87 -174 l 260 -174 l 260 -87 l 174 -87 l 174 0 l 434 0 l 434 87 l 521 87 l 521 347 l 434 347 l 434 434 l 174 434 l 174 521 l 521 521 l 521 694 l 87 694 l 87 608 l 0 608 l 0 347 l 87 347 l 87 260 l 347 260 l 347 174 l 0 174 l 0 -87 l 87 -87 z "},"ʃ":{"ha":434,"x_min":0,"x_max":0,"o":"m 0 -174 l 174 -174 l 174 -87 l 260 -87 l 260 694 l 347 694 l 347 868 l 174 868 l 174 781 l 87 781 l 87 0 l 0 0 z "},"ʄ":{"ha":434,"x_min":0,"x_max":0,"o":"m 0 -174 l 174 -174 l 174 -87 l 260 -87 l 260 347 l 347 347 l 347 521 l 260 521 l 260 694 l 347 694 l 347 868 l 174 868 l 174 781 l 87 781 l 87 521 l 0 521 l 0 347 l 87 347 l 87 0 l 0 0 z "},"ʅ":{"ha":608,"x_min":0,"x_max":0,"o":"m 347 -174 l 521 -174 l 521 0 l 434 0 l 434 608 l 347 608 l 347 694 l 0 694 l 0 521 l 260 521 l 260 -87 l 347 -87 z "},"ʆ":{"ha":521,"x_min":0,"x_max":0,"o":"m 87 -174 l 260 -174 l 260 -87 l 347 -87 l 347 0 l 434 0 l 434 174 l 347 174 l 347 694 l 434 694 l 434 868 l 260 868 l 260 781 l 174 781 l 174 174 l 87 174 l 87 87 l 174 87 l 174 0 l 87 0 l 87 87 l 0 87 l 0 -87 l 87 -87 z "},"ʇ":{"ha":434,"x_min":0,"x_max":0,"o":"m 174 -174 l 347 -174 l 347 608 l 260 608 l 260 694 l 0 694 l 0 521 l 174 521 l 174 174 l 0 174 l 0 0 l 174 0 z "},"ʈ":{"ha":434,"x_min":0,"x_max":0,"o":"m 87 -174 l 347 -174 l 347 0 l 174 0 l 174 521 l 347 521 l 347 694 l 174 694 l 174 868 l 0 868 l 0 -87 l 87 -87 z "},"ʉ":{"ha":781,"x_min":0,"x_max":0,"o":"m 434 174 l 260 174 l 260 260 l 434 260 z m 174 0 l 608 0 l 608 260 l 694 260 l 694 434 l 608 434 l 608 694 l 434 694 l 434 434 l 260 434 l 260 694 l 87 694 l 87 434 l 0 434 l 0 260 l 87 260 l 87 87 l 174 87 z "},"ʊ":{"ha":694,"x_min":0,"x_max":0,"o":"m 87 0 l 521 0 l 521 87 l 608 87 l 608 434 l 521 434 l 521 521 l 608 521 l 608 694 l 347 694 l 347 434 l 434 434 l 434 174 l 174 174 l 174 434 l 260 434 l 260 694 l 0 694 l 0 521 l 87 521 l 87 434 l 0 434 l 0 87 l 87 87 z "},"ʋ":{"ha":608,"x_min":0,"x_max":0,"o":"m 87 0 l 434 0 l 434 87 l 521 87 l 521 608 l 434 608 l 434 694 l 260 694 l 260 521 l 347 521 l 347 174 l 174 174 l 174 694 l 0 694 l 0 87 l 87 87 z "},"ʌ":{"ha":608,"x_min":0,"x_max":0,"o":"m 0 0 l 174 0 l 174 347 l 347 347 l 347 0 l 521 0 l 521 347 l 434 347 l 434 521 l 347 521 l 347 694 l 174 694 l 174 521 l 87 521 l 87 347 l 0 347 z "},"ʍ":{"ha":781,"x_min":0,"x_max":0,"o":"m 0 0 l 174 0 l 174 434 l 260 434 l 260 174 l 434 174 l 434 434 l 521 434 l 521 0 l 694 0 l 694 521 l 608 521 l 608 694 l 434 694 l 434 521 l 260 521 l 260 694 l 87 694 l 87 521 l 0 521 z "},"ʎ":{"ha":608,"x_min":0,"x_max":0,"o":"m 0 0 l 174 0 l 174 434 l 347 434 l 347 0 l 521 0 l 521 434 l 434 434 l 434 608 l 347 608 l 347 694 l 521 694 l 521 868 l 260 868 l 260 781 l 174 781 l 174 608 l 87 608 l 87 434 l 0 434 z "},"ʏ":{"ha":608,"x_min":0,"x_max":0,"o":"m 174 0 l 347 0 l 347 260 l 434 260 l 434 347 l 521 347 l 521 694 l 347 694 l 347 434 l 174 434 l 174 694 l 0 694 l 0 347 l 87 347 l 87 260 l 174 260 z "},"ʐ":{"ha":694,"x_min":0,"x_max":0,"o":"m 434 -174 l 608 -174 l 608 0 l 521 0 l 521 174 l 174 174 l 174 260 l 434 260 l 434 347 l 521 347 l 521 694 l 0 694 l 0 521 l 347 521 l 347 434 l 87 434 l 87 347 l 0 347 l 0 0 l 347 0 l 347 -87 l 434 -87 z "},"ʑ":{"ha":608,"x_min":0,"x_max":0,"o":"m 434 87 l 347 87 l 347 174 l 434 174 z m 260 174 l 174 174 l 174 260 l 260 260 z m 174 -174 l 347 -174 l 347 0 l 521 0 l 521 260 l 434 260 l 434 347 l 521 347 l 521 694 l 0 694 l 0 521 l 347 521 l 347 434 l 87 434 l 87 347 l 0 347 l 0 0 l 174 0 z "},"ʒ":{"ha":608,"x_min":0,"x_max":0,"o":"m 87 -174 l 434 -174 l 434 -87 l 521 -87 l 521 347 l 434 347 l 434 434 l 521 434 l 521 694 l 0 694 l 0 521 l 347 521 l 347 434 l 87 434 l 87 260 l 347 260 l 347 0 l 174 0 l 174 87 l 0 87 l 0 -87 l 87 -87 z "},"ʓ":{"ha":608,"x_min":0,"x_max":0,"o":"m 87 -174 l 347 -174 l 347 -87 l 434 -87 l 434 -174 l 521 -174 l 521 347 l 434 347 l 434 434 l 521 434 l 521 694 l 0 694 l 0 521 l 347 521 l 347 434 l 87 434 l 87 260 l 347 260 l 347 87 l 260 87 l 260 0 l 174 0 l 174 87 l 260 87 l 260 174 l 87 174 l 87 87 l 0 87 l 0 -87 l 87 -87 z "},"ʔ":{"ha":608,"x_min":0,"x_max":0,"o":"m 174 0 l 347 0 l 347 347 l 434 347 l 434 434 l 521 434 l 521 781 l 434 781 l 434 868 l 87 868 l 87 781 l 0 781 l 0 608 l 174 608 l 174 694 l 347 694 l 347 521 l 174 521 z "},"ʕ":{"ha":608,"x_min":0,"x_max":0,"o":"m 174 0 l 347 0 l 347 521 l 174 521 l 174 694 l 347 694 l 347 608 l 521 608 l 521 781 l 434 781 l 434 868 l 87 868 l 87 781 l 0 781 l 0 434 l 87 434 l 87 347 l 174 347 z "},"ʖ":{"ha":608,"x_min":0,"x_max":0,"o":"m 87 0 l 434 0 l 434 87 l 521 87 l 521 434 l 434 434 l 434 521 l 347 521 l 347 868 l 174 868 l 174 347 l 347 347 l 347 174 l 174 174 l 174 260 l 0 260 l 0 87 l 87 87 z "},"ʗ":{"ha":608,"x_min":0,"x_max":0,"o":"m 87 -174 l 434 -174 l 434 -87 l 521 -87 l 521 87 l 347 87 l 347 0 l 174 0 l 174 694 l 347 694 l 347 608 l 521 608 l 521 781 l 434 781 l 434 868 l 87 868 l 87 781 l 0 781 l 0 -87 l 87 -87 z "},"ʘ":{"ha":694,"x_min":0,"x_max":0,"o":"m 260 347 l 347 347 l 347 434 l 260 434 z m 434 174 l 174 174 l 174 608 l 434 608 z m 87 0 l 521 0 l 521 87 l 608 87 l 608 694 l 521 694 l 521 781 l 87 781 l 87 694 l 0 694 l 0 87 l 87 87 z "},"ʙ":{"ha":608,"x_min":0,"x_max":0,"o":"m 347 174 l 174 174 l 174 260 l 347 260 z m 347 434 l 174 434 l 174 521 l 347 521 z m 0 0 l 434 0 l 434 87 l 521 87 l 521 347 l 434 347 l 434 434 l 521 434 l 521 608 l 434 608 l 434 694 l 0 694 z "},"ʚ":{"ha":608,"x_min":0,"x_max":0,"o":"m 347 174 l 174 174 l 174 260 l 260 260 l 260 434 l 174 434 l 174 521 l 347 521 z m 87 0 l 434 0 l 434 87 l 521 87 l 521 608 l 434 608 l 434 694 l 87 694 l 87 608 l 0 608 l 0 434 l 87 434 l 87 347 l 0 347 l 0 87 l 87 87 z "},"ʛ":{"ha":694,"x_min":0,"x_max":0,"o":"m 87 0 l 521 0 l 521 434 l 260 434 l 260 260 l 347 260 l 347 174 l 174 174 l 174 521 l 521 521 l 521 694 l 608 694 l 608 868 l 434 868 l 434 781 l 347 781 l 347 694 l 87 694 l 87 608 l 0 608 l 0 87 l 87 87 z "},"ʜ":{"ha":608,"x_min":0,"x_max":0,"o":"m 0 0 l 174 0 l 174 260 l 347 260 l 347 0 l 521 0 l 521 694 l 347 694 l 347 434 l 174 434 l 174 694 l 0 694 z "},"ʝ":{"ha":521,"x_min":0,"x_max":0,"o":"m 87 -174 l 260 -174 l 260 -87 l 347 -87 l 347 0 l 434 0 l 434 174 l 347 174 l 347 608 l 174 608 l 174 174 l 87 174 l 87 87 l 174 87 l 174 0 l 87 0 l 87 87 l 0 87 l 0 -87 l 87 -87 z m 174 694 l 347 694 l 347 868 l 174 868 z "},"ʞ":{"ha":608,"x_min":0,"x_max":0,"o":"m 347 -174 l 521 -174 l 521 694 l 347 694 l 347 434 l 174 434 l 174 694 l 0 694 l 0 347 l 87 347 l 87 260 l 0 260 l 0 0 l 174 0 l 174 260 l 347 260 z "},"ʟ":{"ha":608,"x_min":0,"x_max":0,"o":"m 0 0 l 521 0 l 521 174 l 174 174 l 174 694 l 0 694 z "},"ʠ":{"ha":694,"x_min":0,"x_max":0,"o":"m 347 174 l 174 174 l 174 521 l 347 521 z m 347 -174 l 521 -174 l 521 694 l 608 694 l 608 868 l 434 868 l 434 781 l 347 781 l 347 694 l 87 694 l 87 608 l 0 608 l 0 87 l 87 87 l 87 0 l 347 0 z "},"ʡ":{"ha":608,"x_min":0,"x_max":0,"o":"m 174 0 l 347 0 l 347 87 l 521 87 l 521 260 l 347 260 l 347 347 l 434 347 l 434 434 l 521 434 l 521 781 l 434 781 l 434 868 l 87 868 l 87 781 l 0 781 l 0 608 l 174 608 l 174 694 l 347 694 l 347 521 l 174 521 l 174 260 l 0 260 l 0 87 l 174 87 z "},"ʢ":{"ha":608,"x_min":0,"x_max":0,"o":"m 174 0 l 347 0 l 347 87 l 521 87 l 521 260 l 347 260 l 347 521 l 174 521 l 174 694 l 347 694 l 347 608 l 521 608 l 521 781 l 434 781 l 434 868 l 87 868 l 87 781 l 0 781 l 0 434 l 87 434 l 87 347 l 174 347 l 174 260 l 0 260 l 0 87 l 174 87 z "},"ʮ":{"ha":694,"x_min":0,"x_max":0,"o":"m 434 -174 l 608 -174 l 608 694 l 434 694 l 434 174 l 260 174 l 260 781 l 174 781 l 174 868 l 0 868 l 0 694 l 87 694 l 87 87 l 174 87 l 174 0 l 434 0 z "},"ʯ":{"ha":781,"x_min":0,"x_max":0,"o":"m 521 -174 l 694 -174 l 694 0 l 608 0 l 608 694 l 434 694 l 434 174 l 260 174 l 260 781 l 174 781 l 174 868 l 0 868 l 0 694 l 87 694 l 87 87 l 174 87 l 174 0 l 434 0 l 434 -87 l 521 -87 z "},"ʰ":{"ha":347,"x_min":0,"x_max":0,"o":"m 174 434 l 260 434 l 260 608 l 174 608 z m 0 434 l 87 434 l 87 608 l 174 608 l 174 694 l 87 694 l 87 868 l 0 868 z "},"ʱ":{"ha":347,"x_min":0,"x_max":0,"o":"m 174 434 l 260 434 l 260 608 l 174 608 z m 0 434 l 87 434 l 87 608 l 174 608 l 174 694 l 87 694 l 87 781 l 0 781 z m 87 781 l 260 781 l 260 868 l 87 868 z "},"ʲ":{"ha":260,"x_min":0,"x_max":0,"o":"m 0 347 l 87 347 l 87 434 l 0 434 z m 87 434 l 174 434 l 174 694 l 87 694 z m 87 781 l 174 781 l 174 868 l 87 868 z "},"ʳ":{"ha":347,"x_min":0,"x_max":0,"o":"m 0 434 l 87 434 l 87 694 l 260 694 l 260 781 l 0 781 z "},"ʴ":{"ha":347,"x_min":0,"x_max":0,"o":"m 0 434 l 260 434 l 260 781 l 174 781 l 174 521 l 0 521 z "},"ʵ":{"ha":434,"x_min":0,"x_max":0,"o":"m 174 347 l 347 347 l 347 434 l 260 434 l 260 781 l 174 781 l 174 521 l 0 521 l 0 434 l 174 434 z "},"ʶ":{"ha":347,"x_min":0,"x_max":0,"o":"m 0 434 l 260 434 l 260 608 l 174 608 l 174 521 l 87 521 l 87 608 l 174 608 l 174 694 l 87 694 l 87 781 l 0 781 z m 174 694 l 260 694 l 260 781 l 174 781 z "},"ʷ":{"ha":521,"x_min":0,"x_max":0,"o":"m 174 521 l 260 521 l 260 694 l 174 694 z m 0 434 l 174 434 l 174 521 l 87 521 l 87 781 l 0 781 z m 260 434 l 434 434 l 434 781 l 347 781 l 347 521 l 260 521 z "},"ʸ":{"ha":347,"x_min":0,"x_max":0,"o":"m 0 347 l 87 347 l 87 434 l 0 434 z m 87 434 l 174 434 l 174 608 l 87 608 z m 0 608 l 87 608 l 87 781 l 0 781 z m 174 608 l 260 608 l 260 781 l 174 781 z "},"ʹ":{"ha":174,"x_min":0,"x_max":0,"o":"m 0 608 l 87 608 l 87 868 l 0 868 z "},"ʺ":{"ha":347,"x_min":0,"x_max":0,"o":"m 0 608 l 87 608 l 87 868 l 0 868 z m 174 608 l 260 608 l 260 868 l 174 868 z "},"ʻ":{"ha":260,"x_min":0,"x_max":0,"o":"m 0 608 l 87 608 l 87 781 l 0 781 z m 87 781 l 174 781 l 174 868 l 87 868 z "},"ʼ":{"ha":260,"x_min":0,"x_max":0,"o":"m 0 608 l 87 608 l 87 694 l 0 694 z m 87 694 l 174 694 l 174 868 l 87 868 z "},"ʽ":{"ha":260,"x_min":0,"x_max":0,"o":"m 87 608 l 174 608 l 174 694 l 87 694 z m 0 694 l 87 694 l 87 868 l 0 868 z "},"ʾ":{"ha":347,"x_min":0,"x_max":0,"o":"m 0 521 l 174 521 l 174 608 l 0 608 z m 174 608 l 260 608 l 260 781 l 174 781 z m 0 781 l 174 781 l 174 868 l 0 868 z "},"ʿ":{"ha":347,"x_min":0,"x_max":0,"o":"m 87 521 l 260 521 l 260 608 l 87 608 z m 0 608 l 87 608 l 87 781 l 0 781 z m 87 781 l 260 781 l 260 868 l 87 868 z "},"ˀ":{"ha":347,"x_min":0,"x_max":0,"o":"m 87 434 l 174 434 l 174 694 l 87 694 z m 174 694 l 260 694 l 260 781 l 174 781 z m 0 781 l 174 781 l 174 868 l 0 868 z "},"ˁ":{"ha":347,"x_min":0,"x_max":0,"o":"m 87 434 l 174 434 l 174 694 l 87 694 z m 0 694 l 87 694 l 87 781 l 0 781 z m 87 781 l 260 781 l 260 868 l 87 868 z "},"˂":{"ha":347,"x_min":0,"x_max":0,"o":"m 87 608 l 260 608 l 260 694 l 87 694 z m 0 694 l 87 694 l 87 781 l 0 781 z m 87 781 l 260 781 l 260 868 l 87 868 z "},"˃":{"ha":347,"x_min":0,"x_max":0,"o":"m 0 608 l 174 608 l 174 694 l 0 694 z m 174 694 l 260 694 l 260 781 l 174 781 z m 0 781 l 174 781 l 174 868 l 0 868 z "},"˄":{"ha":347,"x_min":0,"x_max":0,"o":"m 0 608 l 87 608 l 87 781 l 0 781 z m 174 608 l 260 608 l 260 781 l 174 781 z m 87 781 l 174 781 l 174 868 l 87 868 z "},"˅":{"ha":347,"x_min":0,"x_max":0,"o":"m 87 608 l 174 608 l 174 694 l 87 694 z m 0 694 l 87 694 l 87 868 l 0 868 z m 174 694 l 260 694 l 260 868 l 174 868 z "},"ˆ":{"ha":434,"x_min":0,"x_max":0,"o":"m 0 694 l 347 694 l 347 781 l 260 781 l 260 868 l 87 868 l 87 781 l 0 781 z "},"ˇ":{"ha":434,"x_min":0,"x_max":0,"o":"m 87 694 l 260 694 l 260 781 l 347 781 l 347 868 l 0 868 l 0 781 l 87 781 z "},"ˈ":{"ha":260,"x_min":0,"x_max":0,"o":"m 0 521 l 174 521 l 174 868 l 0 868 z "},"ˉ":{"ha":434,"x_min":0,"x_max":0,"o":"m 0 694 l 347 694 l 347 868 l 0 868 z "},"ˊ":{"ha":347,"x_min":0,"x_max":0,"o":"m 0 694 l 174 694 l 174 781 l 260 781 l 260 868 l 87 868 l 87 781 l 0 781 z "},"ˋ":{"ha":347,"x_min":0,"x_max":0,"o":"m 87 694 l 260 694 l 260 781 l 174 781 l 174 868 l 0 868 l 0 781 l 87 781 z "},"ˌ":{"ha":260,"x_min":0,"x_max":0,"o":"m 0 -174 l 174 -174 l 174 174 l 0 174 z "},"ˍ":{"ha":434,"x_min":0,"x_max":0,"o":"m 0 -174 l 347 -174 l 347 0 l 0 0 z "},"ˎ":{"ha":347,"x_min":0,"x_max":0,"o":"m 87 -174 l 260 -174 l 260 -87 l 174 -87 l 174 0 l 0 0 l 0 -87 l 87 -87 z "},"ˏ":{"ha":347,"x_min":0,"x_max":0,"o":"m 0 -174 l 174 -174 l 174 -87 l 260 -87 l 260 0 l 87 0 l 87 -87 l 0 -87 z "},"ː":{"ha":347,"x_min":0,"x_max":0,"o":"m 0 0 l 260 0 l 260 87 l 174 87 l 174 260 l 87 260 l 87 87 l 0 87 z m 87 434 l 174 434 l 174 608 l 260 608 l 260 694 l 0 694 l 0 608 l 87 608 z "},"ˑ":{"ha":347,"x_min":0,"x_max":0,"o":"m 87 434 l 174 434 l 174 608 l 260 608 l 260 694 l 0 694 l 0 608 l 87 608 z "},"˒":{"ha":347,"x_min":0,"x_max":0,"o":"m 0 260 l 174 260 l 174 347 l 0 347 z m 174 347 l 260 347 l 260 521 l 174 521 z m 0 521 l 174 521 l 174 608 l 0 608 z "},"˓":{"ha":347,"x_min":0,"x_max":0,"o":"m 87 260 l 260 260 l 260 347 l 87 347 z m 0 347 l 87 347 l 87 521 l 0 521 z m 87 521 l 260 521 l 260 608 l 87 608 z "},"˔":{"ha":347,"x_min":0,"x_max":0,"o":"m 0 347 l 260 347 l 260 434 l 174 434 l 174 521 l 87 521 l 87 434 l 0 434 z "},"˕":{"ha":347,"x_min":0,"x_max":0,"o":"m 87 260 l 174 260 l 174 347 l 260 347 l 260 434 l 0 434 l 0 347 l 87 347 z "},"˖":{"ha":347,"x_min":0,"x_max":0,"o":"m 87 260 l 174 260 l 174 347 l 260 347 l 260 434 l 174 434 l 174 521 l 87 521 l 87 434 l 0 434 l 0 347 l 87 347 z "},"˗":{"ha":347,"x_min":0,"x_max":0,"o":"m 0 347 l 260 347 l 260 434 l 0 434 z "},"˘":{"ha":434,"x_min":0,"x_max":0,"o":"m 87 608 l 260 608 l 260 694 l 87 694 z m 0 694 l 87 694 l 87 868 l 0 868 z m 260 694 l 347 694 l 347 868 l 260 868 z "},"˙":{"ha":260,"x_min":0,"x_max":0,"o":"m 0 694 l 174 694 l 174 868 l 0 868 z "},"˚":{"ha":434,"x_min":0,"x_max":0,"o":"m 87 608 l 260 608 l 260 694 l 87 694 z m 0 694 l 87 694 l 87 781 l 0 781 z m 260 694 l 347 694 l 347 781 l 260 781 z m 87 781 l 260 781 l 260 868 l 87 868 z "},"˛":{"ha":347,"x_min":0,"x_max":0,"o":"m 87 -174 l 260 -174 l 260 -87 l 87 -87 z m 0 -87 l 87 -87 l 87 87 l 0 87 z "},"˜":{"ha":434,"x_min":0,"x_max":0,"o":"m 0 694 l 87 694 l 87 781 l 0 781 z m 174 694 l 260 694 l 260 781 l 174 781 z m 87 781 l 174 781 l 174 868 l 87 868 z m 260 781 l 347 781 l 347 868 l 260 868 z "},"˝":{"ha":521,"x_min":0,"x_max":0,"o":"m 0 694 l 87 694 l 87 781 l 0 781 z m 260 694 l 347 694 l 347 781 l 260 781 z m 87 781 l 174 781 l 174 868 l 87 868 z m 347 781 l 434 781 l 434 868 l 347 868 z "},"˞":{"ha":174,"x_min":0,"x_max":0,"o":"m 0 347 l 87 347 l 87 521 l -87 521 l -87 434 l 0 434 z "},"˟":{"ha":347,"x_min":0,"x_max":0,"o":"m 0 608 l 87 608 l 87 694 l 0 694 z m 174 608 l 260 608 l 260 694 l 174 694 z m 87 694 l 174 694 l 174 781 l 87 781 z m 0 781 l 87 781 l 87 868 l 0 868 z m 174 781 l 260 781 l 260 868 l 174 868 z "},"ˠ":{"ha":347,"x_min":0,"x_max":0,"o":"m 87 347 l 174 347 l 174 434 l 87 434 z m 0 434 l 87 434 l 87 521 l 0 521 z m 174 434 l 260 434 l 260 521 l 174 521 z m 87 521 l 174 521 l 174 608 l 87 608 z m 0 608 l 87 608 l 87 781 l 0 781 z m 174 608 l 260 608 l 260 781 l 174 781 z "},"ˡ":{"ha":260,"x_min":0,"x_max":0,"o":"m 87 434 l 174 434 l 174 521 l 87 521 z m 0 521 l 87 521 l 87 868 l 0 868 z "},"ˢ":{"ha":347,"x_min":0,"x_max":0,"o":"m 0 434 l 174 434 l 174 521 l 0 521 z m 174 521 l 260 521 l 260 608 l 174 608 z m 0 608 l 87 608 l 87 694 l 0 694 z m 87 694 l 260 694 l 260 781 l 87 781 z "},"ˣ":{"ha":347,"x_min":0,"x_max":0,"o":"m 0 434 l 87 434 l 87 521 l 0 521 z m 174 434 l 260 434 l 260 521 l 174 521 z m 87 521 l 174 521 l 174 694 l 87 694 z m 0 694 l 87 694 l 87 781 l 0 781 z m 174 694 l 260 694 l 260 781 l 174 781 z "},"ˤ":{"ha":347,"x_min":0,"x_max":0,"o":"m 87 434 l 174 434 l 174 694 l 87 694 z m 0 694 l 87 694 l 87 781 l 0 781 z m 87 781 l 260 781 l 260 868 l 87 868 z "},"˥":{"ha":434,"x_min":0,"x_max":0,"o":"m 174 0 l 347 0 l 347 868 l 0 868 l 0 694 l 174 694 z "},"˦":{"ha":434,"x_min":0,"x_max":0,"o":"m 174 0 l 347 0 l 347 868 l 174 868 l 174 694 l 0 694 l 0 521 l 174 521 z "},"˧":{"ha":434,"x_min":0,"x_max":0,"o":"m 174 0 l 347 0 l 347 868 l 174 868 l 174 521 l 0 521 l 0 347 l 174 347 z "},"˨":{"ha":434,"x_min":0,"x_max":0,"o":"m 174 0 l 347 0 l 347 868 l 174 868 l 174 347 l 0 347 l 0 174 l 174 174 z "},"˩":{"ha":434,"x_min":0,"x_max":0,"o":"m 0 0 l 347 0 l 347 868 l 174 868 l 174 174 l 0 174 z "},"˪":{"ha":434,"x_min":0,"x_max":0,"o":"m 0 0 l 347 0 l 347 174 l 174 174 l 174 521 l 0 521 z "},"˫":{"ha":434,"x_min":0,"x_max":0,"o":"m 0 0 l 174 0 l 174 174 l 347 174 l 347 347 l 174 347 l 174 521 l 0 521 z "},"ˬ":{"ha":434,"x_min":0,"x_max":0,"o":"m 87 -174 l 260 -174 l 260 -87 l 347 -87 l 347 0 l 0 0 l 0 -87 l 87 -87 z "},"˭":{"ha":347,"x_min":0,"x_max":0,"o":"m 0 608 l 260 608 l 260 694 l 0 694 z m 0 781 l 260 781 l 260 868 l 0 868 z "},"ˮ":{"ha":347,"x_min":0,"x_max":0,"o":"m 0 608 l 87 608 l 87 868 l 0 868 z m 174 608 l 260 608 l 260 868 l 174 868 z "},"Ͱ":{"ha":608,"x_min":0,"x_max":0,"o":"m 0 0 l 174 0 l 174 347 l 521 347 l 521 521 l 174 521 l 174 781 l 0 781 z "},"ͱ":{"ha":608,"x_min":0,"x_max":0,"o":"m 0 0 l 174 0 l 174 260 l 521 260 l 521 434 l 174 434 l 174 694 l 0 694 z "},"Ͳ":{"ha":608,"x_min":0,"x_max":0,"o":"m 174 0 l 347 0 l 347 608 l 434 608 l 434 434 l 521 434 l 521 781 l 0 781 l 0 434 l 87 434 l 87 608 l 174 608 z "},"ͳ":{"ha":608,"x_min":0,"x_max":0,"o":"m 174 0 l 347 0 l 347 521 l 434 521 l 434 347 l 521 347 l 521 694 l 0 694 l 0 347 l 87 347 l 87 521 l 174 521 z "},"ʹ":{"ha":260,"x_min":0,"x_max":0,"o":"m 0 521 l 174 521 l 174 781 l 0 781 z "},"͵":{"ha":260,"x_min":0,"x_max":0,"o":"m 0 -174 l 174 -174 l 174 87 l 0 87 z "},"Ͷ":{"ha":608,"x_min":0,"x_max":0,"o":"m 0 0 l 174 0 l 174 87 l 260 87 l 260 174 l 347 174 l 347 0 l 521 0 l 521 781 l 347 781 l 347 434 l 260 434 l 260 347 l 174 347 l 174 781 l 0 781 z "},"ͷ":{"ha":608,"x_min":0,"x_max":0,"o":"m 0 0 l 174 0 l 174 87 l 260 87 l 260 174 l 347 174 l 347 0 l 521 0 l 521 694 l 347 694 l 347 434 l 260 434 l 260 347 l 174 347 l 174 694 l 0 694 z "},"ͺ":{"ha":174,"x_min":0,"x_max":0,"o":"m 0 -260 l 87 -260 l 87 -87 l 0 -87 z "},"ͻ":{"ha":608,"x_min":0,"x_max":0,"o":"m 87 0 l 434 0 l 434 87 l 521 87 l 521 608 l 434 608 l 434 694 l 87 694 l 87 608 l 0 608 l 0 434 l 174 434 l 174 521 l 347 521 l 347 174 l 174 174 l 174 260 l 0 260 l 0 87 l 87 87 z "},"ͼ":{"ha":608,"x_min":0,"x_max":0,"o":"m 260 260 l 434 260 l 434 434 l 260 434 z m 87 0 l 521 0 l 521 174 l 174 174 l 174 521 l 521 521 l 521 694 l 87 694 l 87 608 l 0 608 l 0 87 l 87 87 z "},"ͽ":{"ha":608,"x_min":0,"x_max":0,"o":"m 87 260 l 260 260 l 260 434 l 87 434 z m 0 0 l 434 0 l 434 87 l 521 87 l 521 608 l 434 608 l 434 694 l 0 694 l 0 521 l 347 521 l 347 174 l 0 174 z "},";":{"ha":260,"x_min":0,"x_max":0,"o":"m 0 -87 l 87 -87 l 87 0 l 174 0 l 174 174 l 0 174 z m 0 521 l 174 521 l 174 694 l 0 694 z "},"Ϳ":{"ha":608,"x_min":0,"x_max":0,"o":"m 87 0 l 434 0 l 434 87 l 521 87 l 521 781 l 347 781 l 347 174 l 174 174 l 174 260 l 0 260 l 0 87 l 87 87 z "},"΄":{"ha":347,"x_min":0,"x_max":0,"o":"m 0 781 l 174 781 l 174 868 l 260 868 l 260 955 l 87 955 l 87 868 l 0 868 z "},"΅":{"ha":434,"x_min":0,"x_max":0,"o":"m 0 781 l 87 781 l 87 868 l 0 868 z m 260 781 l 347 781 l 347 868 l 260 868 z m 87 955 l 260 955 l 260 1042 l 347 1042 l 347 1128 l 174 1128 l 174 1042 l 87 1042 z "},"Ά":{"ha":868,"x_min":0,"x_max":0,"o":"m 608 434 l 434 434 l 434 608 l 608 608 z m 0 521 l 87 521 l 87 608 l 174 608 l 174 781 l 0 781 z m 260 0 l 434 0 l 434 260 l 608 260 l 608 0 l 781 0 l 781 694 l 694 694 l 694 781 l 347 781 l 347 694 l 260 694 z "},"·":{"ha":260,"x_min":0,"x_max":0,"o":"m 0 260 l 174 260 l 174 434 l 0 434 z "},"Έ":{"ha":868,"x_min":0,"x_max":0,"o":"m 0 521 l 87 521 l 87 608 l 174 608 l 174 781 l 0 781 z m 260 0 l 781 0 l 781 174 l 434 174 l 434 347 l 694 347 l 694 521 l 434 521 l 434 608 l 781 608 l 781 781 l 260 781 z "},"Ή":{"ha":868,"x_min":0,"x_max":0,"o":"m 0 521 l 87 521 l 87 608 l 174 608 l 174 781 l 0 781 z m 260 0 l 434 0 l 434 347 l 608 347 l 608 0 l 781 0 l 781 781 l 608 781 l 608 521 l 434 521 l 434 781 l 260 781 z "},"Ί":{"ha":694,"x_min":0,"x_max":0,"o":"m 0 521 l 87 521 l 87 608 l 174 608 l 174 781 l 0 781 z m 260 0 l 608 0 l 608 174 l 521 174 l 521 608 l 608 608 l 608 781 l 260 781 l 260 608 l 347 608 l 347 174 l 260 174 z "},"Ό":{"ha":868,"x_min":0,"x_max":0,"o":"m 608 174 l 434 174 l 434 608 l 608 608 z m 0 521 l 87 521 l 87 608 l 174 608 l 174 781 l 0 781 z m 347 0 l 694 0 l 694 87 l 781 87 l 781 694 l 694 694 l 694 781 l 347 781 l 347 694 l 260 694 l 260 87 l 347 87 z "},"Ύ":{"ha":868,"x_min":0,"x_max":0,"o":"m 0 521 l 87 521 l 87 608 l 174 608 l 174 781 l 0 781 z m 434 0 l 608 0 l 608 260 l 694 260 l 694 347 l 781 347 l 781 781 l 608 781 l 608 434 l 434 434 l 434 781 l 260 781 l 260 347 l 347 347 l 347 260 l 434 260 z "},"Ώ":{"ha":955,"x_min":0,"x_max":0,"o":"m 0 521 l 87 521 l 87 608 l 174 608 l 174 781 l 0 781 z m 260 0 l 521 0 l 521 260 l 434 260 l 434 608 l 694 608 l 694 260 l 608 260 l 608 0 l 868 0 l 868 174 l 781 174 l 781 260 l 868 260 l 868 694 l 781 694 l 781 781 l 347 781 l 347 694 l 260 694 l 260 260 l 347 260 l 347 174 l 260 174 z "},"ΐ":{"ha":434,"x_min":0,"x_max":0,"o":"m 174 0 l 347 0 l 347 174 l 260 174 l 260 694 l 87 694 l 87 87 l 174 87 z m 0 781 l 87 781 l 87 868 l 0 868 z m 260 781 l 347 781 l 347 868 l 260 868 z m 87 955 l 260 955 l 260 1042 l 347 1042 l 347 1128 l 174 1128 l 174 1042 l 87 1042 z "},"Α":{"ha":608,"x_min":0,"x_max":0,"o":"m 347 434 l 174 434 l 174 608 l 347 608 z m 0 0 l 174 0 l 174 260 l 347 260 l 347 0 l 521 0 l 521 694 l 434 694 l 434 781 l 87 781 l 87 694 l 0 694 z "},"Β":{"ha":608,"x_min":0,"x_max":0,"o":"m 347 174 l 174 174 l 174 347 l 347 347 z m 347 521 l 174 521 l 174 608 l 347 608 z m 0 0 l 434 0 l 434 87 l 521 87 l 521 434 l 434 434 l 434 521 l 521 521 l 521 694 l 434 694 l 434 781 l 0 781 z "},"Γ":{"ha":608,"x_min":0,"x_max":0,"o":"m 0 0 l 174 0 l 174 608 l 521 608 l 521 781 l 0 781 z "},"Δ":{"ha":608,"x_min":0,"x_max":0,"o":"m 347 174 l 174 174 l 174 434 l 347 434 z m 0 0 l 521 0 l 521 434 l 434 434 l 434 608 l 347 608 l 347 781 l 174 781 l 174 608 l 87 608 l 87 434 l 0 434 z "},"Ε":{"ha":608,"x_min":0,"x_max":0,"o":"m 0 0 l 521 0 l 521 174 l 174 174 l 174 347 l 434 347 l 434 521 l 174 521 l 174 608 l 521 608 l 521 781 l 0 781 z "},"Ζ":{"ha":608,"x_min":0,"x_max":0,"o":"m 0 0 l 521 0 l 521 174 l 174 174 l 174 260 l 260 260 l 260 347 l 434 347 l 434 434 l 521 434 l 521 781 l 0 781 l 0 608 l 347 608 l 347 521 l 260 521 l 260 434 l 87 434 l 87 347 l 0 347 z "},"Η":{"ha":608,"x_min":0,"x_max":0,"o":"m 0 0 l 174 0 l 174 347 l 347 347 l 347 0 l 521 0 l 521 781 l 347 781 l 347 521 l 174 521 l 174 781 l 0 781 z "},"Θ":{"ha":608,"x_min":0,"x_max":0,"o":"m 347 174 l 174 174 l 174 347 l 347 347 z m 347 434 l 174 434 l 174 608 l 347 608 z m 87 0 l 434 0 l 434 87 l 521 87 l 521 694 l 434 694 l 434 781 l 87 781 l 87 694 l 0 694 l 0 87 l 87 87 z "},"Ι":{"ha":434,"x_min":0,"x_max":0,"o":"m 0 0 l 347 0 l 347 174 l 260 174 l 260 608 l 347 608 l 347 781 l 0 781 l 0 608 l 87 608 l 87 174 l 0 174 z "},"Κ":{"ha":608,"x_min":0,"x_max":0,"o":"m 0 0 l 174 0 l 174 347 l 347 347 l 347 0 l 521 0 l 521 347 l 434 347 l 434 521 l 521 521 l 521 781 l 347 781 l 347 521 l 174 521 l 174 781 l 0 781 z "},"Λ":{"ha":608,"x_min":0,"x_max":0,"o":"m 0 0 l 174 0 l 174 434 l 347 434 l 347 0 l 521 0 l 521 434 l 434 434 l 434 608 l 347 608 l 347 781 l 174 781 l 174 608 l 87 608 l 87 434 l 0 434 z "},"Μ":{"ha":781,"x_min":0,"x_max":0,"o":"m 0 0 l 174 0 l 174 608 l 260 608 l 260 0 l 434 0 l 434 608 l 521 608 l 521 0 l 694 0 l 694 694 l 608 694 l 608 781 l 87 781 l 87 694 l 0 694 z "},"Ν":{"ha":608,"x_min":0,"x_max":0,"o":"m 0 0 l 174 0 l 174 434 l 260 434 l 260 347 l 347 347 l 347 0 l 521 0 l 521 781 l 347 781 l 347 608 l 260 608 l 260 694 l 174 694 l 174 781 l 0 781 z "},"Ξ":{"ha":608,"x_min":0,"x_max":0,"o":"m 0 0 l 521 0 l 521 174 l 0 174 z m 87 347 l 434 347 l 434 521 l 87 521 z m 0 608 l 521 608 l 521 781 l 0 781 z "},"Ο":{"ha":608,"x_min":0,"x_max":0,"o":"m 347 174 l 174 174 l 174 608 l 347 608 z m 87 0 l 434 0 l 434 87 l 521 87 l 521 694 l 434 694 l 434 781 l 87 781 l 87 694 l 0 694 l 0 87 l 87 87 z "},"Π":{"ha":608,"x_min":0,"x_max":0,"o":"m 0 0 l 174 0 l 174 608 l 347 608 l 347 0 l 521 0 l 521 781 l 0 781 z "},"Ρ":{"ha":608,"x_min":0,"x_max":0,"o":"m 347 434 l 174 434 l 174 608 l 347 608 z m 0 0 l 174 0 l 174 260 l 434 260 l 434 347 l 521 347 l 521 694 l 434 694 l 434 781 l 0 781 z "},"Σ":{"ha":608,"x_min":0,"x_max":0,"o":"m 0 0 l 521 0 l 521 174 l 174 174 l 174 347 l 434 347 l 434 521 l 174 521 l 174 608 l 521 608 l 521 781 l 0 781 l 0 521 l 87 521 l 87 347 l 0 347 z "},"Τ":{"ha":608,"x_min":0,"x_max":0,"o":"m 174 0 l 347 0 l 347 608 l 521 608 l 521 781 l 0 781 l 0 608 l 174 608 z "},"Υ":{"ha":608,"x_min":0,"x_max":0,"o":"m 174 0 l 347 0 l 347 260 l 434 260 l 434 347 l 521 347 l 521 781 l 347 781 l 347 434 l 174 434 l 174 781 l 0 781 l 0 347 l 87 347 l 87 260 l 174 260 z "},"Φ":{"ha":781,"x_min":0,"x_max":0,"o":"m 260 260 l 174 260 l 174 521 l 260 521 z m 521 260 l 434 260 l 434 521 l 521 521 z m 260 0 l 434 0 l 434 87 l 608 87 l 608 174 l 694 174 l 694 608 l 608 608 l 608 694 l 434 694 l 434 781 l 260 781 l 260 694 l 87 694 l 87 608 l 0 608 l 0 174 l 87 174 l 87 87 l 260 87 z "},"Χ":{"ha":608,"x_min":0,"x_max":0,"o":"m 0 0 l 174 0 l 174 347 l 347 347 l 347 0 l 521 0 l 521 347 l 434 347 l 434 521 l 521 521 l 521 781 l 347 781 l 347 521 l 174 521 l 174 781 l 0 781 l 0 521 l 87 521 l 87 347 l 0 347 z "},"Ψ":{"ha":781,"x_min":0,"x_max":0,"o":"m 260 0 l 434 0 l 434 260 l 608 260 l 608 347 l 694 347 l 694 781 l 521 781 l 521 434 l 434 434 l 434 781 l 260 781 l 260 434 l 174 434 l 174 781 l 0 781 l 0 347 l 87 347 l 87 260 l 260 260 z "},"Ω":{"ha":694,"x_min":0,"x_max":0,"o":"m 0 0 l 260 0 l 260 260 l 174 260 l 174 608 l 434 608 l 434 260 l 347 260 l 347 0 l 608 0 l 608 174 l 521 174 l 521 260 l 608 260 l 608 694 l 521 694 l 521 781 l 87 781 l 87 694 l 0 694 l 0 260 l 87 260 l 87 174 l 0 174 z "},"Ϊ":{"ha":434,"x_min":0,"x_max":0,"o":"m 0 0 l 347 0 l 347 174 l 260 174 l 260 608 l 347 608 l 347 781 l 0 781 l 0 608 l 87 608 l 87 174 l 0 174 z m 0 868 l 87 868 l 87 955 l 0 955 z m 260 868 l 347 868 l 347 955 l 260 955 z "},"Ϋ":{"ha":608,"x_min":0,"x_max":0,"o":"m 174 0 l 347 0 l 347 260 l 434 260 l 434 347 l 521 347 l 521 781 l 347 781 l 347 434 l 174 434 l 174 781 l 0 781 l 0 347 l 87 347 l 87 260 l 174 260 z m 87 868 l 174 868 l 174 955 l 87 955 z m 347 868 l 434 868 l 434 955 l 347 955 z "},"ά":{"ha":608,"x_min":0,"x_max":0,"o":"m 260 174 l 174 174 l 174 521 l 347 521 l 347 260 l 260 260 z m 87 0 l 260 0 l 260 87 l 347 87 l 347 0 l 521 0 l 521 694 l 87 694 l 87 608 l 0 608 l 0 87 l 87 87 z m 174 781 l 347 781 l 347 868 l 434 868 l 434 955 l 260 955 l 260 868 l 174 868 z "},"έ":{"ha":608,"x_min":0,"x_max":0,"o":"m 87 0 l 521 0 l 521 174 l 174 174 l 174 260 l 347 260 l 347 434 l 174 434 l 174 521 l 521 521 l 521 694 l 87 694 l 87 608 l 0 608 l 0 434 l 87 434 l 87 347 l 0 347 l 0 87 l 87 87 z m 174 781 l 347 781 l 347 868 l 434 868 l 434 955 l 260 955 l 260 868 l 174 868 z "},"ή":{"ha":608,"x_min":0,"x_max":0,"o":"m 347 -174 l 521 -174 l 521 608 l 434 608 l 434 694 l 0 694 l 0 0 l 174 0 l 174 521 l 347 521 z m 174 781 l 347 781 l 347 868 l 434 868 l 434 955 l 260 955 l 260 868 l 174 868 z "},"ί":{"ha":347,"x_min":0,"x_max":0,"o":"m 87 0 l 260 0 l 260 174 l 174 174 l 174 694 l 0 694 l 0 87 l 87 87 z m 0 781 l 174 781 l 174 868 l 260 868 l 260 955 l 87 955 l 87 868 l 0 868 z "},"ΰ":{"ha":608,"x_min":0,"x_max":0,"o":"m 87 0 l 434 0 l 434 87 l 521 87 l 521 694 l 347 694 l 347 174 l 174 174 l 174 694 l 0 694 l 0 87 l 87 87 z m 87 781 l 174 781 l 174 868 l 87 868 z m 347 781 l 434 781 l 434 868 l 347 868 z m 174 955 l 347 955 l 347 1042 l 434 1042 l 434 1128 l 260 1128 l 260 1042 l 174 1042 z "},"α":{"ha":608,"x_min":0,"x_max":0,"o":"m 260 174 l 174 174 l 174 521 l 347 521 l 347 260 l 260 260 z m 87 0 l 260 0 l 260 87 l 347 87 l 347 0 l 521 0 l 521 694 l 87 694 l 87 608 l 0 608 l 0 87 l 87 87 z "},"β":{"ha":608,"x_min":0,"x_max":0,"o":"m 347 174 l 260 174 l 260 260 l 174 260 l 174 694 l 347 694 l 347 521 l 260 521 l 260 347 l 347 347 z m 0 -174 l 174 -174 l 174 87 l 260 87 l 260 0 l 434 0 l 434 87 l 521 87 l 521 434 l 434 434 l 434 521 l 521 521 l 521 781 l 434 781 l 434 868 l 87 868 l 87 781 l 0 781 z "},"γ":{"ha":608,"x_min":0,"x_max":0,"o":"m 174 -174 l 347 -174 l 347 87 l 434 87 l 434 260 l 521 260 l 521 694 l 347 694 l 347 260 l 174 260 l 174 694 l 0 694 l 0 260 l 87 260 l 87 87 l 174 87 z "},"δ":{"ha":608,"x_min":0,"x_max":0,"o":"m 347 174 l 174 174 l 174 434 l 347 434 z m 87 0 l 434 0 l 434 87 l 521 87 l 521 521 l 434 521 l 434 608 l 174 608 l 174 694 l 521 694 l 521 868 l 87 868 l 87 781 l 0 781 l 0 521 l 87 521 l 87 434 l 0 434 l 0 87 l 87 87 z "},"ε":{"ha":608,"x_min":0,"x_max":0,"o":"m 87 0 l 521 0 l 521 174 l 174 174 l 174 260 l 347 260 l 347 434 l 174 434 l 174 521 l 521 521 l 521 694 l 87 694 l 87 608 l 0 608 l 0 434 l 87 434 l 87 347 l 0 347 l 0 87 l 87 87 z "},"ζ":{"ha":608,"x_min":0,"x_max":0,"o":"m 347 -174 l 521 -174 l 521 174 l 174 174 l 174 347 l 260 347 l 260 434 l 434 434 l 434 521 l 521 521 l 521 781 l 434 781 l 434 868 l 0 868 l 0 694 l 347 694 l 347 608 l 174 608 l 174 521 l 87 521 l 87 434 l 0 434 l 0 87 l 87 87 l 87 0 l 347 0 z "},"η":{"ha":608,"x_min":0,"x_max":0,"o":"m 347 -174 l 521 -174 l 521 608 l 434 608 l 434 694 l 0 694 l 0 0 l 174 0 l 174 521 l 347 521 z "},"θ":{"ha":608,"x_min":0,"x_max":0,"o":"m 347 174 l 174 174 l 174 347 l 347 347 z m 347 521 l 174 521 l 174 694 l 347 694 z m 87 0 l 434 0 l 434 87 l 521 87 l 521 781 l 434 781 l 434 868 l 87 868 l 87 781 l 0 781 l 0 87 l 87 87 z "},"ι":{"ha":347,"x_min":0,"x_max":0,"o":"m 87 0 l 260 0 l 260 174 l 174 174 l 174 694 l 0 694 l 0 87 l 87 87 z "},"κ":{"ha":608,"x_min":0,"x_max":0,"o":"m 0 0 l 174 0 l 174 260 l 347 260 l 347 0 l 521 0 l 521 260 l 434 260 l 434 434 l 521 434 l 521 694 l 347 694 l 347 434 l 174 434 l 174 694 l 0 694 z "},"λ":{"ha":608,"x_min":0,"x_max":0,"o":"m 0 0 l 174 0 l 174 260 l 260 260 l 260 434 l 347 434 l 347 0 l 521 0 l 521 434 l 434 434 l 434 608 l 347 608 l 347 781 l 260 781 l 260 868 l 0 868 l 0 694 l 174 694 l 174 521 l 87 521 l 87 347 l 0 347 z "},"μ":{"ha":694,"x_min":0,"x_max":0,"o":"m 0 -174 l 174 -174 l 174 0 l 347 0 l 347 87 l 434 87 l 434 0 l 608 0 l 608 174 l 521 174 l 521 694 l 347 694 l 347 174 l 174 174 l 174 694 l 0 694 z "},"ν":{"ha":608,"x_min":0,"x_max":0,"o":"m 174 0 l 347 0 l 347 174 l 434 174 l 434 347 l 521 347 l 521 694 l 347 694 l 347 347 l 174 347 l 174 694 l 0 694 l 0 347 l 87 347 l 87 174 l 174 174 z "},"ξ":{"ha":608,"x_min":0,"x_max":0,"o":"m 347 -174 l 521 -174 l 521 174 l 174 174 l 174 347 l 521 347 l 521 521 l 174 521 l 174 694 l 521 694 l 521 868 l 87 868 l 87 781 l 0 781 l 0 434 l 87 434 l 87 347 l 0 347 l 0 87 l 87 87 l 87 0 l 347 0 z "},"ο":{"ha":608,"x_min":0,"x_max":0,"o":"m 347 174 l 174 174 l 174 521 l 347 521 z m 87 0 l 434 0 l 434 87 l 521 87 l 521 608 l 434 608 l 434 694 l 87 694 l 87 608 l 0 608 l 0 87 l 87 87 z "},"π":{"ha":608,"x_min":0,"x_max":0,"o":"m 0 0 l 174 0 l 174 521 l 347 521 l 347 0 l 521 0 l 521 694 l 0 694 z "},"ρ":{"ha":608,"x_min":0,"x_max":0,"o":"m 347 174 l 174 174 l 174 521 l 347 521 z m 0 -174 l 174 -174 l 174 0 l 434 0 l 434 87 l 521 87 l 521 608 l 434 608 l 434 694 l 87 694 l 87 608 l 0 608 z "},"ς":{"ha":608,"x_min":0,"x_max":0,"o":"m 347 -174 l 521 -174 l 521 174 l 174 174 l 174 521 l 521 521 l 521 694 l 87 694 l 87 608 l 0 608 l 0 87 l 87 87 l 87 0 l 347 0 z "},"σ":{"ha":608,"x_min":0,"x_max":0,"o":"m 347 174 l 174 174 l 174 521 l 260 521 l 260 434 l 347 434 z m 87 0 l 434 0 l 434 87 l 521 87 l 521 434 l 434 434 l 434 521 l 521 521 l 521 694 l 87 694 l 87 608 l 0 608 l 0 87 l 87 87 z "},"τ":{"ha":608,"x_min":0,"x_max":0,"o":"m 174 0 l 347 0 l 347 521 l 521 521 l 521 694 l 0 694 l 0 521 l 174 521 z "},"υ":{"ha":608,"x_min":0,"x_max":0,"o":"m 87 0 l 434 0 l 434 87 l 521 87 l 521 694 l 347 694 l 347 174 l 174 174 l 174 694 l 0 694 l 0 87 l 87 87 z "},"φ":{"ha":781,"x_min":0,"x_max":0,"o":"m 521 174 l 434 174 l 434 521 l 521 521 z m 260 -174 l 434 -174 l 434 0 l 608 0 l 608 87 l 694 87 l 694 608 l 608 608 l 608 694 l 347 694 l 347 608 l 260 608 l 260 174 l 174 174 l 174 694 l 0 694 l 0 87 l 87 87 l 87 0 l 260 0 z "},"χ":{"ha":608,"x_min":0,"x_max":0,"o":"m 0 -174 l 174 -174 l 174 174 l 347 174 l 347 -174 l 521 -174 l 521 174 l 434 174 l 434 347 l 521 347 l 521 694 l 347 694 l 347 347 l 174 347 l 174 694 l 0 694 l 0 347 l 87 347 l 87 174 l 0 174 z "},"ψ":{"ha":781,"x_min":0,"x_max":0,"o":"m 260 -174 l 434 -174 l 434 0 l 608 0 l 608 87 l 694 87 l 694 694 l 521 694 l 521 174 l 434 174 l 434 868 l 260 868 l 260 174 l 174 174 l 174 694 l 0 694 l 0 87 l 87 87 l 87 0 l 260 0 z "},"ω":{"ha":781,"x_min":0,"x_max":0,"o":"m 87 0 l 608 0 l 608 87 l 694 87 l 694 608 l 608 608 l 608 694 l 434 694 l 434 521 l 521 521 l 521 174 l 434 174 l 434 434 l 260 434 l 260 174 l 174 174 l 174 521 l 260 521 l 260 694 l 87 694 l 87 608 l 0 608 l 0 87 l 87 87 z "},"ϊ":{"ha":434,"x_min":0,"x_max":0,"o":"m 174 0 l 347 0 l 347 174 l 260 174 l 260 694 l 87 694 l 87 87 l 174 87 z m 0 781 l 87 781 l 87 868 l 0 868 z m 260 781 l 347 781 l 347 868 l 260 868 z "},"ϋ":{"ha":608,"x_min":0,"x_max":0,"o":"m 87 0 l 434 0 l 434 87 l 521 87 l 521 694 l 347 694 l 347 174 l 174 174 l 174 694 l 0 694 l 0 87 l 87 87 z m 87 781 l 174 781 l 174 868 l 87 868 z m 347 781 l 434 781 l 434 868 l 347 868 z "},"ό":{"ha":608,"x_min":0,"x_max":0,"o":"m 347 174 l 174 174 l 174 521 l 347 521 z m 87 0 l 434 0 l 434 87 l 521 87 l 521 608 l 434 608 l 434 694 l 87 694 l 87 608 l 0 608 l 0 87 l 87 87 z m 174 781 l 347 781 l 347 868 l 434 868 l 434 955 l 260 955 l 260 868 l 174 868 z "},"ύ":{"ha":608,"x_min":0,"x_max":0,"o":"m 87 0 l 434 0 l 434 87 l 521 87 l 521 694 l 347 694 l 347 174 l 174 174 l 174 694 l 0 694 l 0 87 l 87 87 z m 174 781 l 347 781 l 347 868 l 434 868 l 434 955 l 260 955 l 260 868 l 174 868 z "},"ώ":{"ha":781,"x_min":0,"x_max":0,"o":"m 87 0 l 608 0 l 608 87 l 694 87 l 694 608 l 608 608 l 608 694 l 434 694 l 434 521 l 521 521 l 521 174 l 434 174 l 434 434 l 260 434 l 260 174 l 174 174 l 174 521 l 260 521 l 260 694 l 87 694 l 87 608 l 0 608 l 0 87 l 87 87 z m 260 781 l 434 781 l 434 868 l 521 868 l 521 955 l 347 955 l 347 868 l 260 868 z "},"Ϗ":{"ha":608,"x_min":0,"x_max":0,"o":"m 260 -174 l 434 -174 l 434 -87 l 521 -87 l 521 347 l 434 347 l 434 521 l 521 521 l 521 781 l 347 781 l 347 521 l 174 521 l 174 781 l 0 781 l 0 0 l 174 0 l 174 347 l 347 347 l 347 0 l 260 0 z "},"ϐ":{"ha":608,"x_min":0,"x_max":0,"o":"m 347 174 l 174 174 l 174 434 l 347 434 z m 347 608 l 174 608 l 174 694 l 347 694 z m 87 0 l 434 0 l 434 87 l 521 87 l 521 434 l 434 434 l 434 608 l 521 608 l 521 781 l 434 781 l 434 868 l 87 868 l 87 781 l 0 781 l 0 87 l 87 87 z "},"ϑ":{"ha":694,"x_min":0,"x_max":0,"o":"m 347 608 l 174 608 l 174 694 l 347 694 z m 87 0 l 434 0 l 434 87 l 521 87 l 521 434 l 608 434 l 608 608 l 521 608 l 521 781 l 434 781 l 434 868 l 87 868 l 87 781 l 0 781 l 0 608 l 87 608 l 87 521 l 174 521 l 174 434 l 347 434 l 347 174 l 174 174 l 174 347 l 87 347 l 87 434 l 0 434 l 0 87 l 87 87 z "},"ϒ":{"ha":608,"x_min":0,"x_max":0,"o":"m 174 0 l 347 0 l 347 260 l 434 260 l 434 347 l 521 347 l 521 781 l 434 781 l 434 694 l 347 694 l 347 434 l 174 434 l 174 694 l 87 694 l 87 781 l 0 781 l 0 347 l 87 347 l 87 260 l 174 260 z "},"ϓ":{"ha":781,"x_min":0,"x_max":0,"o":"m 0 608 l 87 608 l 87 781 l 0 781 z m 347 0 l 521 0 l 521 260 l 608 260 l 608 347 l 694 347 l 694 781 l 608 781 l 608 694 l 521 694 l 521 434 l 347 434 l 347 694 l 260 694 l 260 781 l 174 781 l 174 347 l 260 347 l 260 260 l 347 260 z "},"ϔ":{"ha":608,"x_min":0,"x_max":0,"o":"m 174 0 l 347 0 l 347 260 l 434 260 l 434 347 l 521 347 l 521 781 l 434 781 l 434 694 l 347 694 l 347 434 l 174 434 l 174 694 l 87 694 l 87 781 l 0 781 l 0 347 l 87 347 l 87 260 l 174 260 z m 87 868 l 174 868 l 174 955 l 87 955 z m 347 868 l 434 868 l 434 955 l 347 955 z "},"ϕ":{"ha":781,"x_min":0,"x_max":0,"o":"m 260 174 l 174 174 l 174 521 l 260 521 z m 521 174 l 434 174 l 434 521 l 521 521 z m 260 -174 l 434 -174 l 434 0 l 608 0 l 608 87 l 694 87 l 694 608 l 608 608 l 608 694 l 434 694 l 434 868 l 260 868 l 260 694 l 87 694 l 87 608 l 0 608 l 0 87 l 87 87 l 87 0 l 260 0 z "},"ϖ":{"ha":781,"x_min":0,"x_max":0,"o":"m 260 174 l 174 174 l 174 521 l 260 521 z m 521 174 l 434 174 l 434 521 l 521 521 z m 87 0 l 608 0 l 608 87 l 694 87 l 694 434 l 608 434 l 608 521 l 694 521 l 694 694 l 0 694 l 0 521 l 87 521 l 87 434 l 0 434 l 0 87 l 87 87 z "},"ϗ":{"ha":694,"x_min":0,"x_max":0,"o":"m 260 -174 l 521 -174 l 521 -87 l 608 -87 l 608 174 l 521 174 l 521 521 l 608 521 l 608 694 l 434 694 l 434 521 l 347 521 l 347 434 l 260 434 l 260 608 l 174 608 l 174 694 l 0 694 l 0 521 l 87 521 l 87 174 l 0 174 l 0 0 l 174 0 l 174 174 l 260 174 l 260 260 l 347 260 l 347 87 l 434 87 l 434 0 l 260 0 z "},"Ϙ":{"ha":608,"x_min":0,"x_max":0,"o":"m 347 174 l 174 174 l 174 608 l 347 608 z m 174 -174 l 347 -174 l 347 0 l 434 0 l 434 87 l 521 87 l 521 694 l 434 694 l 434 781 l 87 781 l 87 694 l 0 694 l 0 87 l 87 87 l 87 0 l 174 0 z "},"ϙ":{"ha":608,"x_min":0,"x_max":0,"o":"m 347 174 l 174 174 l 174 521 l 347 521 z m 174 -174 l 347 -174 l 347 0 l 434 0 l 434 87 l 521 87 l 521 608 l 434 608 l 434 694 l 87 694 l 87 608 l 0 608 l 0 87 l 87 87 l 87 0 l 174 0 z "},"Ϛ":{"ha":608,"x_min":0,"x_max":0,"o":"m 347 -174 l 521 -174 l 521 174 l 174 174 l 174 608 l 347 608 l 347 521 l 521 521 l 521 694 l 434 694 l 434 781 l 87 781 l 87 694 l 0 694 l 0 87 l 87 87 l 87 0 l 347 0 z "},"ϛ":{"ha":608,"x_min":0,"x_max":0,"o":"m 347 -174 l 521 -174 l 521 174 l 174 174 l 174 521 l 347 521 l 347 434 l 521 434 l 521 608 l 434 608 l 434 694 l 87 694 l 87 608 l 0 608 l 0 87 l 87 87 l 87 0 l 347 0 z "},"Ϝ":{"ha":608,"x_min":0,"x_max":0,"o":"m 0 0 l 174 0 l 174 260 l 347 260 l 347 174 l 434 174 l 434 434 l 174 434 l 174 608 l 521 608 l 521 781 l 0 781 z "},"ϝ":{"ha":521,"x_min":0,"x_max":0,"o":"m 0 -174 l 174 -174 l 174 260 l 347 260 l 347 174 l 434 174 l 434 434 l 174 434 l 174 521 l 434 521 l 434 694 l 87 694 l 87 608 l 0 608 z "},"Ϟ":{"ha":608,"x_min":0,"x_max":0,"o":"m 434 0 l 521 0 l 521 694 l 347 694 l 347 608 l 260 608 l 260 521 l 174 521 l 174 694 l 87 694 l 87 781 l 0 781 l 0 174 l 174 174 l 174 260 l 260 260 l 260 347 l 347 347 l 347 87 l 434 87 z "},"ϟ":{"ha":608,"x_min":0,"x_max":0,"o":"m 174 0 l 347 0 l 347 87 l 434 87 l 434 260 l 521 260 l 521 521 l 174 521 l 174 608 l 260 608 l 260 694 l 347 694 l 347 868 l 174 868 l 174 781 l 87 781 l 87 608 l 0 608 l 0 347 l 347 347 l 347 260 l 260 260 l 260 174 l 174 174 z "},"Ϡ":{"ha":608,"x_min":0,"x_max":0,"o":"m 174 -174 l 434 -174 l 434 -87 l 521 -87 l 521 694 l 434 694 l 434 781 l 87 781 l 87 694 l 0 694 l 0 521 l 174 521 l 174 608 l 347 608 l 347 434 l 174 434 l 174 347 l 87 347 l 87 260 l 260 260 l 260 347 l 347 347 l 347 174 l 174 174 l 174 87 l 347 87 l 347 0 l 174 0 z "},"ϡ":{"ha":608,"x_min":0,"x_max":0,"o":"m 347 -174 l 521 -174 l 521 434 l 434 434 l 434 694 l 347 694 l 347 781 l 174 781 l 174 868 l 0 868 l 0 694 l 174 694 l 174 608 l 260 608 l 260 521 l 174 521 l 174 434 l 87 434 l 87 347 l 260 347 l 260 434 l 347 434 l 347 260 l 174 260 l 174 174 l 347 174 z "},"Ϣ":{"ha":781,"x_min":0,"x_max":0,"o":"m 260 -174 l 608 -174 l 608 -87 l 694 -87 l 694 694 l 608 694 l 608 781 l 434 781 l 434 608 l 521 608 l 521 260 l 434 260 l 434 608 l 260 608 l 260 260 l 174 260 l 174 608 l 260 608 l 260 781 l 87 781 l 87 694 l 0 694 l 0 174 l 87 174 l 87 87 l 521 87 l 521 0 l 260 0 z "},"ϣ":{"ha":781,"x_min":0,"x_max":0,"o":"m 260 -174 l 608 -174 l 608 -87 l 694 -87 l 694 608 l 608 608 l 608 694 l 434 694 l 434 521 l 521 521 l 521 260 l 434 260 l 434 521 l 260 521 l 260 260 l 174 260 l 174 521 l 260 521 l 260 694 l 87 694 l 87 608 l 0 608 l 0 174 l 87 174 l 87 87 l 521 87 l 521 0 l 260 0 z "},"Ϥ":{"ha":608,"x_min":0,"x_max":0,"o":"m 347 0 l 521 0 l 521 781 l 347 781 l 347 347 l 174 347 l 174 608 l 260 608 l 260 781 l 87 781 l 87 694 l 0 694 l 0 260 l 87 260 l 87 174 l 347 174 z "},"ϥ":{"ha":608,"x_min":0,"x_max":0,"o":"m 347 -174 l 521 -174 l 521 694 l 347 694 l 347 174 l 174 174 l 174 521 l 260 521 l 260 694 l 87 694 l 87 608 l 0 608 l 0 87 l 87 87 l 87 0 l 347 0 z "},"Ϧ":{"ha":608,"x_min":0,"x_max":0,"o":"m 260 -174 l 434 -174 l 434 87 l 521 87 l 521 521 l 434 521 l 434 608 l 174 608 l 174 781 l 0 781 l 0 0 l 174 0 l 174 434 l 347 434 l 347 174 l 260 174 z "},"ϧ":{"ha":608,"x_min":0,"x_max":0,"o":"m 260 -174 l 434 -174 l 434 87 l 521 87 l 521 608 l 434 608 l 434 694 l 174 694 l 174 868 l 0 868 l 0 0 l 174 0 l 174 521 l 347 521 l 347 174 l 260 174 z "},"Ϩ":{"ha":608,"x_min":0,"x_max":0,"o":"m 87 0 l 521 0 l 521 174 l 174 174 l 174 260 l 434 260 l 434 347 l 521 347 l 521 694 l 434 694 l 434 781 l 87 781 l 87 694 l 0 694 l 0 521 l 174 521 l 174 608 l 347 608 l 347 434 l 0 434 l 0 87 l 87 87 z "},"ϩ":{"ha":608,"x_min":0,"x_max":0,"o":"m 87 0 l 434 0 l 434 87 l 521 87 l 521 174 l 174 174 l 174 260 l 521 260 l 521 608 l 434 608 l 434 694 l 87 694 l 87 608 l 0 608 l 0 434 l 174 434 l 174 521 l 347 521 l 347 434 l 174 434 l 174 347 l 0 347 l 0 87 l 87 87 z "},"Ϫ":{"ha":694,"x_min":0,"x_max":0,"o":"m 434 174 l 260 174 l 260 347 l 434 347 z m 0 0 l 608 0 l 608 347 l 521 347 l 521 521 l 608 521 l 608 781 l 434 781 l 434 521 l 260 521 l 260 781 l 87 781 l 87 521 l 174 521 l 174 347 l 87 347 l 87 174 l 0 174 z "},"ϫ":{"ha":694,"x_min":0,"x_max":0,"o":"m 434 174 l 260 174 l 260 260 l 434 260 z m 0 0 l 608 0 l 608 347 l 521 347 l 521 434 l 608 434 l 608 694 l 434 694 l 434 434 l 260 434 l 260 694 l 87 694 l 87 434 l 174 434 l 174 347 l 87 347 l 87 174 l 0 174 z "},"Ϭ":{"ha":608,"x_min":0,"x_max":0,"o":"m 347 174 l 174 174 l 174 347 l 347 347 z m 87 0 l 434 0 l 434 87 l 521 87 l 521 434 l 434 434 l 434 521 l 174 521 l 174 608 l 434 608 l 434 694 l 521 694 l 521 781 l 87 781 l 87 694 l 0 694 l 0 87 l 87 87 z "},"ϭ":{"ha":608,"x_min":0,"x_max":0,"o":"m 347 174 l 174 174 l 174 521 l 260 521 l 260 347 l 347 347 z m 87 0 l 434 0 l 434 87 l 521 87 l 521 434 l 434 434 l 434 521 l 347 521 l 347 608 l 521 608 l 521 781 l 260 781 l 260 694 l 87 694 l 87 608 l 0 608 l 0 87 l 87 87 z "},"Ϯ":{"ha":608,"x_min":0,"x_max":0,"o":"m 174 0 l 347 0 l 347 521 l 434 521 l 434 434 l 521 434 l 521 694 l 347 694 l 347 781 l 174 781 l 174 694 l 0 694 l 0 434 l 87 434 l 87 521 l 174 521 z "},"ϯ":{"ha":608,"x_min":0,"x_max":0,"o":"m 174 -174 l 347 -174 l 347 521 l 434 521 l 434 434 l 521 434 l 521 694 l 347 694 l 347 868 l 174 868 l 174 694 l 0 694 l 0 434 l 87 434 l 87 521 l 174 521 z "},"ϰ":{"ha":608,"x_min":0,"x_max":0,"o":"m 0 0 l 174 0 l 174 87 l 260 87 l 260 174 l 347 174 l 347 0 l 521 0 l 521 694 l 347 694 l 347 434 l 260 434 l 260 347 l 174 347 l 174 694 l 0 694 z "},"ϱ":{"ha":608,"x_min":0,"x_max":0,"o":"m 347 260 l 174 260 l 174 521 l 347 521 z m 87 -174 l 521 -174 l 521 -87 l 434 -87 l 434 0 l 174 0 l 174 87 l 434 87 l 434 174 l 521 174 l 521 608 l 434 608 l 434 694 l 87 694 l 87 608 l 0 608 l 0 -87 l 87 -87 z "},"ϲ":{"ha":608,"x_min":0,"x_max":0,"o":"m 87 0 l 434 0 l 434 87 l 521 87 l 521 260 l 347 260 l 347 174 l 174 174 l 174 521 l 347 521 l 347 434 l 521 434 l 521 608 l 434 608 l 434 694 l 87 694 l 87 608 l 0 608 l 0 87 l 87 87 z "},"ϳ":{"ha":347,"x_min":0,"x_max":0,"o":"m 0 -174 l 174 -174 l 174 -87 l 260 -87 l 260 608 l 87 608 l 87 0 l 0 0 z m 87 694 l 260 694 l 260 868 l 87 868 z "},"ϴ":{"ha":608,"x_min":0,"x_max":0,"o":"m 347 174 l 174 174 l 174 347 l 347 347 z m 347 434 l 174 434 l 174 608 l 347 608 z m 87 0 l 434 0 l 434 87 l 521 87 l 521 694 l 434 694 l 434 781 l 87 781 l 87 694 l 0 694 l 0 87 l 87 87 z "},"ϵ":{"ha":608,"x_min":0,"x_max":0,"o":"m 87 0 l 521 0 l 521 174 l 174 174 l 174 260 l 434 260 l 434 434 l 174 434 l 174 521 l 521 521 l 521 694 l 87 694 l 87 608 l 0 608 l 0 87 l 87 87 z "},"϶":{"ha":608,"x_min":0,"x_max":0,"o":"m 0 0 l 434 0 l 434 87 l 521 87 l 521 608 l 434 608 l 434 694 l 0 694 l 0 521 l 347 521 l 347 434 l 87 434 l 87 260 l 347 260 l 347 174 l 0 174 z "},"Ϸ":{"ha":608,"x_min":0,"x_max":0,"o":"m 347 260 l 174 260 l 174 521 l 347 521 z m 0 0 l 174 0 l 174 87 l 434 87 l 434 174 l 521 174 l 521 608 l 434 608 l 434 694 l 174 694 l 174 781 l 0 781 z "},"ϸ":{"ha":608,"x_min":0,"x_max":0,"o":"m 347 174 l 174 174 l 174 521 l 347 521 z m 0 -174 l 174 -174 l 174 0 l 434 0 l 434 87 l 521 87 l 521 608 l 434 608 l 434 694 l 174 694 l 174 868 l 0 868 z "},"Ϲ":{"ha":608,"x_min":0,"x_max":0,"o":"m 87 0 l 434 0 l 434 87 l 521 87 l 521 260 l 347 260 l 347 174 l 174 174 l 174 608 l 347 608 l 347 521 l 521 521 l 521 694 l 434 694 l 434 781 l 87 781 l 87 694 l 0 694 l 0 87 l 87 87 z "},"Ϻ":{"ha":781,"x_min":0,"x_max":0,"o":"m 0 0 l 174 0 l 174 608 l 260 608 l 260 0 l 434 0 l 434 608 l 521 608 l 521 0 l 694 0 l 694 781 l 434 781 l 434 694 l 347 694 l 347 781 l 0 781 z "},"ϻ":{"ha":781,"x_min":0,"x_max":0,"o":"m 0 -174 l 174 -174 l 174 521 l 260 521 l 260 0 l 434 0 l 434 521 l 521 521 l 521 0 l 694 0 l 694 694 l 434 694 l 434 608 l 347 608 l 347 694 l 0 694 z "},"ϼ":{"ha":694,"x_min":0,"x_max":0,"o":"m 434 260 l 260 260 l 260 521 l 434 521 z m 87 -174 l 260 -174 l 260 -87 l 347 -87 l 347 0 l 260 0 l 260 87 l 521 87 l 521 174 l 608 174 l 608 608 l 521 608 l 521 694 l 174 694 l 174 608 l 87 608 l 87 0 l 0 0 l 0 -87 l 87 -87 z "},"Ͻ":{"ha":608,"x_min":0,"x_max":0,"o":"m 87 0 l 434 0 l 434 87 l 521 87 l 521 694 l 434 694 l 434 781 l 87 781 l 87 694 l 0 694 l 0 521 l 174 521 l 174 608 l 347 608 l 347 174 l 174 174 l 174 260 l 0 260 l 0 87 l 87 87 z "},"Ͼ":{"ha":608,"x_min":0,"x_max":0,"o":"m 260 347 l 347 347 l 347 434 l 260 434 z m 87 0 l 434 0 l 434 87 l 521 87 l 521 260 l 347 260 l 347 174 l 174 174 l 174 608 l 347 608 l 347 521 l 521 521 l 521 694 l 434 694 l 434 781 l 87 781 l 87 694 l 0 694 l 0 87 l 87 87 z "},"Ͽ":{"ha":608,"x_min":0,"x_max":0,"o":"m 174 347 l 260 347 l 260 434 l 174 434 z m 87 0 l 434 0 l 434 87 l 521 87 l 521 694 l 434 694 l 434 781 l 87 781 l 87 694 l 0 694 l 0 521 l 174 521 l 174 608 l 347 608 l 347 174 l 174 174 l 174 260 l 0 260 l 0 87 l 87 87 z "},"Ѐ":{"ha":608,"x_min":0,"x_max":0,"o":"m 0 0 l 521 0 l 521 174 l 174 174 l 174 347 l 434 347 l 434 521 l 174 521 l 174 608 l 521 608 l 521 781 l 0 781 z m 174 868 l 347 868 l 347 955 l 260 955 l 260 1042 l 87 1042 l 87 955 l 174 955 z "},"Ё":{"ha":608,"x_min":0,"x_max":0,"o":"m 0 0 l 521 0 l 521 174 l 174 174 l 174 347 l 434 347 l 434 521 l 174 521 l 174 608 l 521 608 l 521 781 l 0 781 z m 87 868 l 174 868 l 174 955 l 87 955 z m 347 868 l 434 868 l 434 955 l 347 955 z "},"Ђ":{"ha":694,"x_min":0,"x_max":0,"o":"m 87 0 l 260 0 l 260 347 l 434 347 l 434 174 l 347 174 l 347 0 l 521 0 l 521 87 l 608 87 l 608 434 l 521 434 l 521 521 l 260 521 l 260 608 l 521 608 l 521 781 l 0 781 l 0 608 l 87 608 z "},"Ѓ":{"ha":608,"x_min":0,"x_max":0,"o":"m 0 0 l 174 0 l 174 608 l 521 608 l 521 781 l 0 781 z m 174 868 l 347 868 l 347 955 l 434 955 l 434 1042 l 260 1042 l 260 955 l 174 955 z "},"Є":{"ha":608,"x_min":0,"x_max":0,"o":"m 87 0 l 434 0 l 434 87 l 521 87 l 521 260 l 347 260 l 347 174 l 174 174 l 174 347 l 347 347 l 347 521 l 174 521 l 174 608 l 347 608 l 347 521 l 521 521 l 521 694 l 434 694 l 434 781 l 87 781 l 87 694 l 0 694 l 0 87 l 87 87 z "},"Ѕ":{"ha":608,"x_min":0,"x_max":0,"o":"m 87 0 l 434 0 l 434 87 l 521 87 l 521 347 l 434 347 l 434 434 l 260 434 l 260 521 l 174 521 l 174 608 l 347 608 l 347 521 l 521 521 l 521 694 l 434 694 l 434 781 l 87 781 l 87 694 l 0 694 l 0 434 l 87 434 l 87 347 l 260 347 l 260 260 l 347 260 l 347 174 l 174 174 l 174 260 l 0 260 l 0 87 l 87 87 z "},"І":{"ha":434,"x_min":0,"x_max":0,"o":"m 0 0 l 347 0 l 347 174 l 260 174 l 260 608 l 347 608 l 347 781 l 0 781 l 0 608 l 87 608 l 87 174 l 0 174 z "},"Ї":{"ha":434,"x_min":0,"x_max":0,"o":"m 0 0 l 347 0 l 347 174 l 260 174 l 260 608 l 347 608 l 347 781 l 0 781 l 0 608 l 87 608 l 87 174 l 0 174 z m 0 868 l 87 868 l 87 955 l 0 955 z m 260 868 l 347 868 l 347 955 l 260 955 z "},"Ј":{"ha":608,"x_min":0,"x_max":0,"o":"m 87 0 l 434 0 l 434 87 l 521 87 l 521 781 l 347 781 l 347 174 l 174 174 l 174 260 l 0 260 l 0 87 l 87 87 z "},"Љ":{"ha":868,"x_min":0,"x_max":0,"o":"m 608 174 l 521 174 l 521 347 l 608 347 z m 0 0 l 174 0 l 174 87 l 260 87 l 260 608 l 347 608 l 347 0 l 694 0 l 694 87 l 781 87 l 781 434 l 694 434 l 694 521 l 521 521 l 521 781 l 174 781 l 174 694 l 87 694 l 87 174 l 0 174 z "},"Њ":{"ha":868,"x_min":0,"x_max":0,"o":"m 608 174 l 521 174 l 521 347 l 608 347 z m 0 0 l 174 0 l 174 347 l 347 347 l 347 0 l 694 0 l 694 87 l 781 87 l 781 434 l 694 434 l 694 521 l 521 521 l 521 781 l 347 781 l 347 521 l 174 521 l 174 781 l 0 781 z "},"Ћ":{"ha":694,"x_min":0,"x_max":0,"o":"m 87 0 l 260 0 l 260 347 l 434 347 l 434 0 l 608 0 l 608 434 l 521 434 l 521 521 l 260 521 l 260 608 l 521 608 l 521 781 l 0 781 l 0 608 l 87 608 z "},"Ќ":{"ha":608,"x_min":0,"x_max":0,"o":"m 0 0 l 174 0 l 174 347 l 347 347 l 347 0 l 521 0 l 521 347 l 434 347 l 434 521 l 521 521 l 521 781 l 347 781 l 347 521 l 174 521 l 174 781 l 0 781 z m 174 868 l 347 868 l 347 955 l 434 955 l 434 1042 l 260 1042 l 260 955 l 174 955 z "},"Ѝ":{"ha":608,"x_min":0,"x_max":0,"o":"m 0 0 l 174 0 l 174 87 l 260 87 l 260 174 l 347 174 l 347 0 l 521 0 l 521 781 l 347 781 l 347 434 l 260 434 l 260 347 l 174 347 l 174 781 l 0 781 z m 174 868 l 347 868 l 347 955 l 260 955 l 260 1042 l 87 1042 l 87 955 l 174 955 z "},"Ў":{"ha":608,"x_min":0,"x_max":0,"o":"m 0 0 l 434 0 l 434 87 l 521 87 l 521 781 l 347 781 l 347 434 l 174 434 l 174 781 l 0 781 l 0 347 l 87 347 l 87 260 l 347 260 l 347 174 l 0 174 z m 174 868 l 347 868 l 347 955 l 434 955 l 434 1042 l 87 1042 l 87 955 l 174 955 z "},"Џ":{"ha":608,"x_min":0,"x_max":0,"o":"m 174 -174 l 347 -174 l 347 0 l 521 0 l 521 781 l 347 781 l 347 174 l 174 174 l 174 781 l 0 781 l 0 0 l 174 0 z "},"А":{"ha":608,"x_min":0,"x_max":0,"o":"m 347 347 l 174 347 l 174 608 l 347 608 z m 0 0 l 174 0 l 174 174 l 347 174 l 347 0 l 521 0 l 521 694 l 434 694 l 434 781 l 87 781 l 87 694 l 0 694 z "},"Б":{"ha":608,"x_min":0,"x_max":0,"o":"m 347 174 l 174 174 l 174 347 l 347 347 z m 0 0 l 434 0 l 434 87 l 521 87 l 521 434 l 434 434 l 434 521 l 174 521 l 174 608 l 521 608 l 521 781 l 0 781 z "},"В":{"ha":608,"x_min":0,"x_max":0,"o":"m 347 174 l 174 174 l 174 347 l 347 347 z m 347 521 l 174 521 l 174 608 l 347 608 z m 0 0 l 434 0 l 434 87 l 521 87 l 521 434 l 434 434 l 434 521 l 521 521 l 521 694 l 434 694 l 434 781 l 0 781 z "},"Г":{"ha":608,"x_min":0,"x_max":0,"o":"m 0 0 l 174 0 l 174 608 l 521 608 l 521 781 l 0 781 z "},"Д":{"ha":694,"x_min":0,"x_max":0,"o":"m 434 174 l 260 174 l 260 608 l 434 608 z m 0 -87 l 174 -87 l 174 0 l 434 0 l 434 -87 l 608 -87 l 608 781 l 87 781 l 87 174 l 0 174 z "},"Е":{"ha":608,"x_min":0,"x_max":0,"o":"m 0 0 l 521 0 l 521 174 l 174 174 l 174 347 l 434 347 l 434 521 l 174 521 l 174 608 l 521 608 l 521 781 l 0 781 z "},"Ж":{"ha":781,"x_min":0,"x_max":0,"o":"m 0 0 l 174 0 l 174 347 l 260 347 l 260 0 l 434 0 l 434 347 l 521 347 l 521 0 l 694 0 l 694 434 l 608 434 l 608 521 l 694 521 l 694 781 l 521 781 l 521 521 l 434 521 l 434 781 l 260 781 l 260 521 l 174 521 l 174 781 l 0 781 l 0 521 l 87 521 l 87 434 l 0 434 z "},"З":{"ha":608,"x_min":0,"x_max":0,"o":"m 87 0 l 434 0 l 434 87 l 521 87 l 521 347 l 434 347 l 434 434 l 521 434 l 521 694 l 434 694 l 434 781 l 87 781 l 87 694 l 0 694 l 0 521 l 174 521 l 174 608 l 347 608 l 347 521 l 174 521 l 174 347 l 347 347 l 347 174 l 174 174 l 174 260 l 0 260 l 0 87 l 87 87 z "},"И":{"ha":608,"x_min":0,"x_max":0,"o":"m 0 0 l 174 0 l 174 87 l 260 87 l 260 174 l 347 174 l 347 0 l 521 0 l 521 781 l 347 781 l 347 434 l 260 434 l 260 347 l 174 347 l 174 781 l 0 781 z "},"Й":{"ha":608,"x_min":0,"x_max":0,"o":"m 0 0 l 174 0 l 174 87 l 260 87 l 260 174 l 347 174 l 347 0 l 521 0 l 521 781 l 347 781 l 347 434 l 260 434 l 260 347 l 174 347 l 174 781 l 0 781 z m 174 868 l 347 868 l 347 955 l 434 955 l 434 1042 l 87 1042 l 87 955 l 174 955 z "},"К":{"ha":608,"x_min":0,"x_max":0,"o":"m 0 0 l 174 0 l 174 347 l 347 347 l 347 0 l 521 0 l 521 347 l 434 347 l 434 521 l 521 521 l 521 781 l 347 781 l 347 521 l 174 521 l 174 781 l 0 781 z "},"Л":{"ha":694,"x_min":0,"x_max":0,"o":"m 0 0 l 174 0 l 174 87 l 260 87 l 260 608 l 434 608 l 434 0 l 608 0 l 608 781 l 174 781 l 174 694 l 87 694 l 87 174 l 0 174 z "},"М":{"ha":781,"x_min":0,"x_max":0,"o":"m 0 0 l 174 0 l 174 608 l 260 608 l 260 0 l 434 0 l 434 608 l 521 608 l 521 0 l 694 0 l 694 781 l 434 781 l 434 694 l 347 694 l 347 781 l 0 781 z "},"Н":{"ha":608,"x_min":0,"x_max":0,"o":"m 0 0 l 174 0 l 174 347 l 347 347 l 347 0 l 521 0 l 521 781 l 347 781 l 347 521 l 174 521 l 174 781 l 0 781 z "},"О":{"ha":608,"x_min":0,"x_max":0,"o":"m 347 174 l 174 174 l 174 608 l 347 608 z m 87 0 l 434 0 l 434 87 l 521 87 l 521 694 l 434 694 l 434 781 l 87 781 l 87 694 l 0 694 l 0 87 l 87 87 z "},"П":{"ha":608,"x_min":0,"x_max":0,"o":"m 0 0 l 174 0 l 174 608 l 347 608 l 347 0 l 521 0 l 521 694 l 434 694 l 434 781 l 0 781 z "},"Р":{"ha":608,"x_min":0,"x_max":0,"o":"m 347 434 l 174 434 l 174 608 l 347 608 z m 0 0 l 174 0 l 174 260 l 434 260 l 434 347 l 521 347 l 521 694 l 434 694 l 434 781 l 0 781 z "},"С":{"ha":608,"x_min":0,"x_max":0,"o":"m 87 0 l 434 0 l 434 87 l 521 87 l 521 260 l 347 260 l 347 174 l 174 174 l 174 608 l 347 608 l 347 521 l 521 521 l 521 694 l 434 694 l 434 781 l 87 781 l 87 694 l 0 694 l 0 87 l 87 87 z "},"Т":{"ha":608,"x_min":0,"x_max":0,"o":"m 174 0 l 347 0 l 347 608 l 521 608 l 521 781 l 0 781 l 0 608 l 174 608 z "},"У":{"ha":608,"x_min":0,"x_max":0,"o":"m 0 0 l 434 0 l 434 87 l 521 87 l 521 781 l 347 781 l 347 434 l 174 434 l 174 781 l 0 781 l 0 347 l 87 347 l 87 260 l 347 260 l 347 174 l 0 174 z "},"Ф":{"ha":781,"x_min":0,"x_max":0,"o":"m 260 260 l 174 260 l 174 521 l 260 521 z m 521 260 l 434 260 l 434 521 l 521 521 z m 260 0 l 434 0 l 434 87 l 608 87 l 608 174 l 694 174 l 694 608 l 608 608 l 608 694 l 434 694 l 434 781 l 260 781 l 260 694 l 87 694 l 87 608 l 0 608 l 0 174 l 87 174 l 87 87 l 260 87 z "},"Х":{"ha":608,"x_min":0,"x_max":0,"o":"m 0 0 l 174 0 l 174 347 l 347 347 l 347 0 l 521 0 l 521 347 l 434 347 l 434 521 l 521 521 l 521 781 l 347 781 l 347 521 l 174 521 l 174 781 l 0 781 l 0 521 l 87 521 l 87 347 l 0 347 z "},"Ц":{"ha":694,"x_min":0,"x_max":0,"o":"m 434 -174 l 608 -174 l 608 174 l 521 174 l 521 781 l 347 781 l 347 174 l 174 174 l 174 781 l 0 781 l 0 87 l 87 87 l 87 0 l 434 0 z "},"Ч":{"ha":608,"x_min":0,"x_max":0,"o":"m 347 0 l 521 0 l 521 781 l 347 781 l 347 434 l 174 434 l 174 781 l 0 781 l 0 347 l 87 347 l 87 260 l 347 260 z "},"Ш":{"ha":781,"x_min":0,"x_max":0,"o":"m 87 0 l 608 0 l 608 87 l 694 87 l 694 781 l 521 781 l 521 174 l 434 174 l 434 781 l 260 781 l 260 174 l 174 174 l 174 781 l 0 781 l 0 87 l 87 87 z "},"Щ":{"ha":781,"x_min":0,"x_max":0,"o":"m 521 -174 l 694 -174 l 694 781 l 521 781 l 521 174 l 434 174 l 434 781 l 260 781 l 260 174 l 174 174 l 174 781 l 0 781 l 0 87 l 87 87 l 87 0 l 521 0 z "},"Ъ":{"ha":694,"x_min":0,"x_max":0,"o":"m 434 174 l 260 174 l 260 347 l 434 347 z m 87 0 l 521 0 l 521 87 l 608 87 l 608 434 l 521 434 l 521 521 l 260 521 l 260 781 l 0 781 l 0 608 l 87 608 z "},"Ы":{"ha":781,"x_min":0,"x_max":0,"o":"m 260 174 l 174 174 l 174 347 l 260 347 z m 0 0 l 347 0 l 347 87 l 434 87 l 434 434 l 347 434 l 347 521 l 174 521 l 174 781 l 0 781 z m 521 0 l 694 0 l 694 781 l 521 781 z "},"Ь":{"ha":608,"x_min":0,"x_max":0,"o":"m 347 174 l 174 174 l 174 347 l 347 347 z m 0 0 l 434 0 l 434 87 l 521 87 l 521 434 l 434 434 l 434 521 l 174 521 l 174 781 l 0 781 z "},"Э":{"ha":608,"x_min":0,"x_max":0,"o":"m 87 0 l 434 0 l 434 87 l 521 87 l 521 694 l 434 694 l 434 781 l 87 781 l 87 694 l 0 694 l 0 521 l 174 521 l 174 608 l 347 608 l 347 521 l 174 521 l 174 347 l 347 347 l 347 174 l 174 174 l 174 260 l 0 260 l 0 87 l 87 87 z "},"Ю":{"ha":781,"x_min":0,"x_max":0,"o":"m 521 174 l 434 174 l 434 608 l 521 608 z m 0 0 l 174 0 l 174 347 l 260 347 l 260 87 l 347 87 l 347 0 l 608 0 l 608 87 l 694 87 l 694 694 l 608 694 l 608 781 l 347 781 l 347 694 l 260 694 l 260 521 l 174 521 l 174 781 l 0 781 z "},"Я":{"ha":608,"x_min":0,"x_max":0,"o":"m 347 434 l 174 434 l 174 608 l 347 608 z m 0 0 l 174 0 l 174 260 l 347 260 l 347 0 l 521 0 l 521 781 l 87 781 l 87 694 l 0 694 l 0 347 l 87 347 l 87 260 l 0 260 z "},"а":{"ha":608,"x_min":0,"x_max":0,"o":"m 347 174 l 174 174 l 174 260 l 347 260 z m 87 0 l 521 0 l 521 608 l 434 608 l 434 694 l 0 694 l 0 521 l 347 521 l 347 434 l 87 434 l 87 347 l 0 347 l 0 87 l 87 87 z "},"б":{"ha":608,"x_min":0,"x_max":0,"o":"m 347 174 l 174 174 l 174 434 l 347 434 z m 87 0 l 434 0 l 434 87 l 521 87 l 521 521 l 434 521 l 434 608 l 174 608 l 174 694 l 434 694 l 434 781 l 521 781 l 521 868 l 87 868 l 87 781 l 0 781 l 0 87 l 87 87 z "},"в":{"ha":608,"x_min":0,"x_max":0,"o":"m 347 174 l 174 174 l 174 260 l 347 260 z m 347 434 l 174 434 l 174 521 l 347 521 z m 0 0 l 434 0 l 434 87 l 521 87 l 521 347 l 434 347 l 434 434 l 521 434 l 521 608 l 434 608 l 434 694 l 0 694 z "},"г":{"ha":608,"x_min":0,"x_max":0,"o":"m 0 0 l 174 0 l 174 521 l 521 521 l 521 694 l 0 694 z "},"д":{"ha":694,"x_min":0,"x_max":0,"o":"m 434 174 l 260 174 l 260 521 l 434 521 z m 0 -174 l 174 -174 l 174 0 l 434 0 l 434 -174 l 608 -174 l 608 694 l 174 694 l 174 608 l 87 608 l 87 174 l 0 174 z "},"е":{"ha":608,"x_min":0,"x_max":0,"o":"m 347 434 l 174 434 l 174 521 l 347 521 z m 87 0 l 521 0 l 521 174 l 174 174 l 174 260 l 521 260 l 521 608 l 434 608 l 434 694 l 87 694 l 87 608 l 0 608 l 0 87 l 87 87 z "},"ж":{"ha":781,"x_min":0,"x_max":0,"o":"m 0 0 l 174 0 l 174 260 l 260 260 l 260 0 l 434 0 l 434 260 l 521 260 l 521 0 l 694 0 l 694 347 l 608 347 l 608 434 l 694 434 l 694 694 l 521 694 l 521 434 l 434 434 l 434 694 l 260 694 l 260 434 l 174 434 l 174 694 l 0 694 l 0 434 l 87 434 l 87 347 l 0 347 z "},"з":{"ha":608,"x_min":0,"x_max":0,"o":"m 87 0 l 434 0 l 434 87 l 521 87 l 521 347 l 434 347 l 434 434 l 521 434 l 521 608 l 434 608 l 434 694 l 87 694 l 87 608 l 0 608 l 0 434 l 174 434 l 174 521 l 347 521 l 347 434 l 174 434 l 174 260 l 347 260 l 347 174 l 174 174 l 174 260 l 0 260 l 0 87 l 87 87 z "},"и":{"ha":608,"x_min":0,"x_max":0,"o":"m 0 0 l 174 0 l 174 87 l 260 87 l 260 174 l 347 174 l 347 0 l 521 0 l 521 694 l 347 694 l 347 434 l 260 434 l 260 347 l 174 347 l 174 694 l 0 694 z "},"й":{"ha":608,"x_min":0,"x_max":0,"o":"m 0 0 l 174 0 l 174 87 l 260 87 l 260 174 l 347 174 l 347 0 l 521 0 l 521 694 l 347 694 l 347 434 l 260 434 l 260 347 l 174 347 l 174 694 l 0 694 z m 174 781 l 347 781 l 347 868 l 434 868 l 434 955 l 87 955 l 87 868 l 174 868 z "},"к":{"ha":608,"x_min":0,"x_max":0,"o":"m 0 0 l 174 0 l 174 260 l 347 260 l 347 0 l 521 0 l 521 347 l 434 347 l 434 434 l 521 434 l 521 694 l 347 694 l 347 434 l 174 434 l 174 694 l 0 694 z "},"л":{"ha":608,"x_min":0,"x_max":0,"o":"m 0 0 l 174 0 l 174 434 l 260 434 l 260 521 l 347 521 l 347 0 l 521 0 l 521 694 l 174 694 l 174 608 l 87 608 l 87 434 l 0 434 z "},"м":{"ha":781,"x_min":0,"x_max":0,"o":"m 0 0 l 174 0 l 174 521 l 260 521 l 260 0 l 434 0 l 434 521 l 521 521 l 521 0 l 694 0 l 694 694 l 434 694 l 434 608 l 347 608 l 347 694 l 0 694 z "},"н":{"ha":608,"x_min":0,"x_max":0,"o":"m 0 0 l 174 0 l 174 260 l 347 260 l 347 0 l 521 0 l 521 694 l 347 694 l 347 434 l 174 434 l 174 694 l 0 694 z "},"о":{"ha":608,"x_min":0,"x_max":0,"o":"m 347 174 l 174 174 l 174 521 l 347 521 z m 87 0 l 434 0 l 434 87 l 521 87 l 521 608 l 434 608 l 434 694 l 87 694 l 87 608 l 0 608 l 0 87 l 87 87 z "},"п":{"ha":608,"x_min":0,"x_max":0,"o":"m 0 0 l 174 0 l 174 521 l 347 521 l 347 0 l 521 0 l 521 608 l 434 608 l 434 694 l 0 694 z "},"р":{"ha":608,"x_min":0,"x_max":0,"o":"m 347 174 l 174 174 l 174 521 l 347 521 z m 0 -174 l 174 -174 l 174 0 l 434 0 l 434 87 l 521 87 l 521 608 l 434 608 l 434 694 l 0 694 z "},"с":{"ha":608,"x_min":0,"x_max":0,"o":"m 87 0 l 434 0 l 434 87 l 521 87 l 521 260 l 347 260 l 347 174 l 174 174 l 174 521 l 347 521 l 347 434 l 521 434 l 521 608 l 434 608 l 434 694 l 87 694 l 87 608 l 0 608 l 0 87 l 87 87 z "},"т":{"ha":608,"x_min":0,"x_max":0,"o":"m 174 0 l 347 0 l 347 521 l 521 521 l 521 694 l 0 694 l 0 521 l 174 521 z "},"у":{"ha":608,"x_min":0,"x_max":0,"o":"m 0 -174 l 434 -174 l 434 -87 l 521 -87 l 521 694 l 347 694 l 347 260 l 174 260 l 174 694 l 0 694 l 0 174 l 87 174 l 87 87 l 347 87 l 347 0 l 0 0 z "},"ф":{"ha":781,"x_min":0,"x_max":0,"o":"m 260 174 l 174 174 l 174 521 l 260 521 z m 521 174 l 434 174 l 434 521 l 521 521 z m 260 -174 l 434 -174 l 434 0 l 608 0 l 608 87 l 694 87 l 694 608 l 608 608 l 608 694 l 434 694 l 434 868 l 260 868 l 260 694 l 87 694 l 87 608 l 0 608 l 0 87 l 87 87 l 87 0 l 260 0 z "},"х":{"ha":608,"x_min":0,"x_max":0,"o":"m 0 0 l 174 0 l 174 260 l 347 260 l 347 0 l 521 0 l 521 347 l 434 347 l 434 434 l 521 434 l 521 694 l 347 694 l 347 434 l 174 434 l 174 694 l 0 694 l 0 434 l 87 434 l 87 347 l 0 347 z "},"ц":{"ha":694,"x_min":0,"x_max":0,"o":"m 434 -174 l 608 -174 l 608 174 l 521 174 l 521 694 l 347 694 l 347 174 l 174 174 l 174 694 l 0 694 l 0 87 l 87 87 l 87 0 l 434 0 z "},"ч":{"ha":608,"x_min":0,"x_max":0,"o":"m 347 0 l 521 0 l 521 694 l 347 694 l 347 434 l 174 434 l 174 694 l 0 694 l 0 347 l 87 347 l 87 260 l 347 260 z "},"ш":{"ha":781,"x_min":0,"x_max":0,"o":"m 87 0 l 608 0 l 608 87 l 694 87 l 694 694 l 521 694 l 521 174 l 434 174 l 434 694 l 260 694 l 260 174 l 174 174 l 174 694 l 0 694 l 0 87 l 87 87 z "},"щ":{"ha":781,"x_min":0,"x_max":0,"o":"m 521 -174 l 694 -174 l 694 694 l 521 694 l 521 174 l 434 174 l 434 694 l 260 694 l 260 174 l 174 174 l 174 694 l 0 694 l 0 87 l 87 87 l 87 0 l 521 0 z "},"ъ":{"ha":694,"x_min":0,"x_max":0,"o":"m 434 174 l 260 174 l 260 347 l 434 347 z m 87 0 l 521 0 l 521 87 l 608 87 l 608 434 l 521 434 l 521 521 l 260 521 l 260 694 l 0 694 l 0 521 l 87 521 z "},"ы":{"ha":781,"x_min":0,"x_max":0,"o":"m 260 174 l 174 174 l 174 347 l 260 347 z m 0 0 l 347 0 l 347 87 l 434 87 l 434 434 l 347 434 l 347 521 l 174 521 l 174 694 l 0 694 z m 521 0 l 694 0 l 694 694 l 521 694 z "},"ь":{"ha":608,"x_min":0,"x_max":0,"o":"m 347 174 l 174 174 l 174 347 l 347 347 z m 0 0 l 434 0 l 434 87 l 521 87 l 521 434 l 434 434 l 434 521 l 174 521 l 174 694 l 0 694 z "},"э":{"ha":608,"x_min":0,"x_max":0,"o":"m 0 0 l 434 0 l 434 87 l 521 87 l 521 608 l 434 608 l 434 694 l 0 694 l 0 521 l 347 521 l 347 434 l 87 434 l 87 260 l 347 260 l 347 174 l 0 174 z "},"ю":{"ha":781,"x_min":0,"x_max":0,"o":"m 521 174 l 434 174 l 434 521 l 521 521 z m 0 0 l 174 0 l 174 260 l 260 260 l 260 87 l 347 87 l 347 0 l 608 0 l 608 87 l 694 87 l 694 608 l 608 608 l 608 694 l 347 694 l 347 608 l 260 608 l 260 434 l 174 434 l 174 694 l 0 694 z "},"я":{"ha":608,"x_min":0,"x_max":0,"o":"m 347 434 l 174 434 l 174 521 l 347 521 z m 0 0 l 174 0 l 174 260 l 347 260 l 347 0 l 521 0 l 521 694 l 87 694 l 87 608 l 0 608 l 0 347 l 87 347 l 87 260 l 0 260 z "},"ѐ":{"ha":608,"x_min":0,"x_max":0,"o":"m 347 434 l 174 434 l 174 521 l 347 521 z m 87 0 l 521 0 l 521 174 l 174 174 l 174 260 l 521 260 l 521 608 l 434 608 l 434 694 l 87 694 l 87 608 l 0 608 l 0 87 l 87 87 z m 174 781 l 347 781 l 347 868 l 260 868 l 260 955 l 87 955 l 87 868 l 174 868 z "},"ё":{"ha":608,"x_min":0,"x_max":0,"o":"m 347 434 l 174 434 l 174 521 l 347 521 z m 87 0 l 521 0 l 521 174 l 174 174 l 174 260 l 521 260 l 521 608 l 434 608 l 434 694 l 87 694 l 87 608 l 0 608 l 0 87 l 87 87 z m 87 781 l 174 781 l 174 868 l 87 868 z m 347 781 l 434 781 l 434 868 l 347 868 z "},"ђ":{"ha":694,"x_min":0,"x_max":0,"o":"m 347 -174 l 521 -174 l 521 -87 l 608 -87 l 608 434 l 521 434 l 521 521 l 260 521 l 260 608 l 521 608 l 521 781 l 260 781 l 260 868 l 87 868 l 87 781 l 0 781 l 0 608 l 87 608 l 87 0 l 260 0 l 260 347 l 434 347 l 434 0 l 347 0 z "},"ѓ":{"ha":608,"x_min":0,"x_max":0,"o":"m 0 0 l 174 0 l 174 521 l 521 521 l 521 694 l 0 694 z m 174 781 l 347 781 l 347 868 l 434 868 l 434 955 l 260 955 l 260 868 l 174 868 z "},"є":{"ha":608,"x_min":0,"x_max":0,"o":"m 87 0 l 521 0 l 521 174 l 174 174 l 174 260 l 434 260 l 434 434 l 174 434 l 174 521 l 521 521 l 521 694 l 87 694 l 87 608 l 0 608 l 0 87 l 87 87 z "},"ѕ":{"ha":608,"x_min":0,"x_max":0,"o":"m 0 0 l 434 0 l 434 87 l 521 87 l 521 347 l 434 347 l 434 434 l 174 434 l 174 521 l 521 521 l 521 694 l 87 694 l 87 608 l 0 608 l 0 347 l 87 347 l 87 260 l 347 260 l 347 174 l 0 174 z "},"і":{"ha":260,"x_min":0,"x_max":0,"o":"m 0 0 l 174 0 l 174 608 l 0 608 z m 0 694 l 174 694 l 174 868 l 0 868 z "},"ї":{"ha":434,"x_min":0,"x_max":0,"o":"m 87 0 l 260 0 l 260 608 l 87 608 z m 0 694 l 87 694 l 87 781 l 0 781 z m 260 694 l 347 694 l 347 781 l 260 781 z "},"ј":{"ha":347,"x_min":0,"x_max":0,"o":"m 0 -174 l 174 -174 l 174 -87 l 260 -87 l 260 608 l 0 608 l 0 434 l 87 434 l 87 0 l 0 0 z m 87 694 l 260 694 l 260 868 l 87 868 z "},"љ":{"ha":868,"x_min":0,"x_max":0,"o":"m 608 174 l 521 174 l 521 260 l 608 260 z m 0 0 l 174 0 l 174 434 l 260 434 l 260 521 l 347 521 l 347 0 l 694 0 l 694 87 l 781 87 l 781 347 l 694 347 l 694 434 l 521 434 l 521 694 l 174 694 l 174 608 l 87 608 l 87 434 l 0 434 z "},"њ":{"ha":868,"x_min":0,"x_max":0,"o":"m 608 174 l 521 174 l 521 260 l 608 260 z m 0 0 l 174 0 l 174 260 l 347 260 l 347 0 l 694 0 l 694 87 l 781 87 l 781 347 l 694 347 l 694 434 l 521 434 l 521 694 l 347 694 l 347 434 l 174 434 l 174 694 l 0 694 z "},"ћ":{"ha":694,"x_min":0,"x_max":0,"o":"m 87 0 l 260 0 l 260 347 l 434 347 l 434 0 l 608 0 l 608 434 l 521 434 l 521 521 l 260 521 l 260 608 l 521 608 l 521 781 l 260 781 l 260 868 l 87 868 l 87 781 l 0 781 l 0 608 l 87 608 z "},"ќ":{"ha":608,"x_min":0,"x_max":0,"o":"m 0 0 l 174 0 l 174 260 l 347 260 l 347 0 l 521 0 l 521 260 l 434 260 l 434 434 l 521 434 l 521 694 l 347 694 l 347 434 l 174 434 l 174 694 l 0 694 z m 174 781 l 347 781 l 347 868 l 434 868 l 434 955 l 260 955 l 260 868 l 174 868 z "},"ѝ":{"ha":608,"x_min":0,"x_max":0,"o":"m 0 0 l 174 0 l 174 87 l 260 87 l 260 174 l 347 174 l 347 0 l 521 0 l 521 694 l 347 694 l 347 434 l 260 434 l 260 347 l 174 347 l 174 694 l 0 694 z m 174 781 l 347 781 l 347 868 l 260 868 l 260 955 l 87 955 l 87 868 l 174 868 z "},"ў":{"ha":608,"x_min":0,"x_max":0,"o":"m 0 -174 l 434 -174 l 434 -87 l 521 -87 l 521 694 l 347 694 l 347 260 l 174 260 l 174 694 l 0 694 l 0 174 l 87 174 l 87 87 l 347 87 l 347 0 l 0 0 z m 174 781 l 347 781 l 347 868 l 434 868 l 434 955 l 87 955 l 87 868 l 174 868 z "},"џ":{"ha":608,"x_min":0,"x_max":0,"o":"m 174 -174 l 347 -174 l 347 0 l 521 0 l 521 694 l 347 694 l 347 174 l 174 174 l 174 694 l 0 694 l 0 0 l 174 0 z "},"Ѳ":{"ha":608,"x_min":0,"x_max":0,"o":"m 347 174 l 174 174 l 174 260 l 260 260 l 260 347 l 347 347 z m 260 434 l 174 434 l 174 608 l 347 608 l 347 521 l 260 521 z m 87 0 l 434 0 l 434 87 l 521 87 l 521 694 l 434 694 l 434 781 l 87 781 l 87 694 l 0 694 l 0 87 l 87 87 z "},"ѳ":{"ha":608,"x_min":0,"x_max":0,"o":"m 347 174 l 174 174 l 174 260 l 260 260 l 260 347 l 347 347 z m 260 434 l 174 434 l 174 521 l 260 521 z m 87 0 l 434 0 l 434 87 l 521 87 l 521 608 l 434 608 l 434 694 l 87 694 l 87 608 l 0 608 l 0 87 l 87 87 z "},"Ҍ":{"ha":694,"x_min":0,"x_max":0,"o":"m 434 174 l 260 174 l 260 347 l 434 347 z m 87 0 l 521 0 l 521 87 l 608 87 l 608 434 l 521 434 l 521 521 l 260 521 l 260 608 l 347 608 l 347 694 l 260 694 l 260 781 l 87 781 l 87 694 l 0 694 l 0 608 l 87 608 z "},"ҍ":{"ha":694,"x_min":0,"x_max":0,"o":"m 434 174 l 260 174 l 260 434 l 434 434 z m 87 0 l 521 0 l 521 87 l 608 87 l 608 521 l 521 521 l 521 608 l 260 608 l 260 694 l 347 694 l 347 781 l 260 781 l 260 868 l 87 868 l 87 781 l 0 781 l 0 694 l 87 694 z "},"Ґ":{"ha":608,"x_min":0,"x_max":0,"o":"m 0 0 l 174 0 l 174 608 l 521 608 l 521 868 l 347 868 l 347 781 l 0 781 z "},"ґ":{"ha":608,"x_min":0,"x_max":0,"o":"m 0 0 l 174 0 l 174 521 l 521 521 l 521 781 l 347 781 l 347 694 l 0 694 z "},"Ғ":{"ha":694,"x_min":0,"x_max":0,"o":"m 87 0 l 260 0 l 260 260 l 434 260 l 434 434 l 260 434 l 260 608 l 608 608 l 608 781 l 87 781 l 87 434 l 0 434 l 0 260 l 87 260 z "},"ғ":{"ha":694,"x_min":0,"x_max":0,"o":"m 87 0 l 260 0 l 260 260 l 434 260 l 434 434 l 260 434 l 260 521 l 608 521 l 608 694 l 87 694 l 87 434 l 0 434 l 0 260 l 87 260 z "},"Ҕ":{"ha":608,"x_min":0,"x_max":0,"o":"m 0 0 l 174 0 l 174 347 l 347 347 l 347 174 l 260 174 l 260 0 l 434 0 l 434 87 l 521 87 l 521 434 l 434 434 l 434 521 l 174 521 l 174 608 l 521 608 l 521 781 l 0 781 z "},"ҕ":{"ha":608,"x_min":0,"x_max":0,"o":"m 0 0 l 174 0 l 174 260 l 347 260 l 347 174 l 260 174 l 260 0 l 434 0 l 434 87 l 521 87 l 521 347 l 434 347 l 434 434 l 174 434 l 174 521 l 521 521 l 521 694 l 0 694 z "},"Җ":{"ha":781,"x_min":0,"x_max":0,"o":"m 608 -174 l 694 -174 l 694 434 l 608 434 l 608 521 l 694 521 l 694 781 l 521 781 l 521 521 l 434 521 l 434 781 l 260 781 l 260 521 l 174 521 l 174 781 l 0 781 l 0 521 l 87 521 l 87 434 l 0 434 l 0 0 l 174 0 l 174 347 l 260 347 l 260 0 l 434 0 l 434 347 l 521 347 l 521 0 l 608 0 z "},"җ":{"ha":781,"x_min":0,"x_max":0,"o":"m 608 -174 l 694 -174 l 694 347 l 608 347 l 608 434 l 694 434 l 694 694 l 521 694 l 521 434 l 434 434 l 434 694 l 260 694 l 260 434 l 174 434 l 174 694 l 0 694 l 0 434 l 87 434 l 87 347 l 0 347 l 0 0 l 174 0 l 174 260 l 260 260 l 260 0 l 434 0 l 434 260 l 521 260 l 521 0 l 608 0 z "},"Ҙ":{"ha":608,"x_min":0,"x_max":0,"o":"m 174 -174 l 347 -174 l 347 0 l 434 0 l 434 87 l 521 87 l 521 347 l 434 347 l 434 434 l 521 434 l 521 694 l 434 694 l 434 781 l 87 781 l 87 694 l 0 694 l 0 521 l 174 521 l 174 608 l 347 608 l 347 521 l 174 521 l 174 347 l 347 347 l 347 174 l 174 174 l 174 260 l 0 260 l 0 87 l 87 87 l 87 0 l 174 0 z "},"ҙ":{"ha":608,"x_min":0,"x_max":0,"o":"m 174 -174 l 347 -174 l 347 0 l 434 0 l 434 87 l 521 87 l 521 347 l 434 347 l 434 434 l 521 434 l 521 608 l 434 608 l 434 694 l 87 694 l 87 608 l 0 608 l 0 434 l 174 434 l 174 521 l 347 521 l 347 434 l 174 434 l 174 260 l 347 260 l 347 174 l 174 174 l 174 260 l 0 260 l 0 87 l 87 87 l 87 0 l 174 0 z "},"Қ":{"ha":608,"x_min":0,"x_max":0,"o":"m 434 -174 l 521 -174 l 521 347 l 434 347 l 434 521 l 521 521 l 521 781 l 347 781 l 347 521 l 174 521 l 174 781 l 0 781 l 0 0 l 174 0 l 174 347 l 347 347 l 347 0 l 434 0 z "},"қ":{"ha":608,"x_min":0,"x_max":0,"o":"m 434 -174 l 521 -174 l 521 260 l 434 260 l 434 434 l 521 434 l 521 694 l 347 694 l 347 434 l 174 434 l 174 694 l 0 694 l 0 0 l 174 0 l 174 260 l 347 260 l 347 0 l 434 0 z "},"Ҝ":{"ha":694,"x_min":0,"x_max":0,"o":"m 0 0 l 174 0 l 174 347 l 260 347 l 260 260 l 347 260 l 347 347 l 434 347 l 434 0 l 608 0 l 608 347 l 521 347 l 521 521 l 608 521 l 608 781 l 434 781 l 434 521 l 347 521 l 347 608 l 260 608 l 260 521 l 174 521 l 174 781 l 0 781 z "},"ҝ":{"ha":694,"x_min":0,"x_max":0,"o":"m 0 0 l 174 0 l 174 260 l 260 260 l 260 174 l 347 174 l 347 260 l 434 260 l 434 0 l 608 0 l 608 260 l 521 260 l 521 434 l 608 434 l 608 694 l 434 694 l 434 434 l 347 434 l 347 521 l 260 521 l 260 434 l 174 434 l 174 694 l 0 694 z "},"Ҟ":{"ha":694,"x_min":0,"x_max":0,"o":"m 87 0 l 260 0 l 260 347 l 434 347 l 434 0 l 608 0 l 608 347 l 521 347 l 521 521 l 608 521 l 608 781 l 434 781 l 434 521 l 260 521 l 260 608 l 347 608 l 347 694 l 260 694 l 260 781 l 87 781 l 87 694 l 0 694 l 0 608 l 87 608 z "},"ҟ":{"ha":694,"x_min":0,"x_max":0,"o":"m 87 0 l 260 0 l 260 260 l 434 260 l 434 0 l 608 0 l 608 347 l 521 347 l 521 434 l 608 434 l 608 694 l 434 694 l 434 434 l 260 434 l 260 608 l 347 608 l 347 781 l 260 781 l 260 868 l 87 868 l 87 781 l 0 781 l 0 608 l 87 608 z "},"Ҡ":{"ha":694,"x_min":0,"x_max":0,"o":"m 87 0 l 260 0 l 260 347 l 434 347 l 434 0 l 608 0 l 608 347 l 521 347 l 521 521 l 608 521 l 608 781 l 434 781 l 434 521 l 260 521 l 260 781 l 0 781 l 0 608 l 87 608 z "},"ҡ":{"ha":694,"x_min":0,"x_max":0,"o":"m 87 0 l 260 0 l 260 260 l 434 260 l 434 0 l 608 0 l 608 347 l 521 347 l 521 434 l 608 434 l 608 694 l 434 694 l 434 434 l 260 434 l 260 694 l 0 694 l 0 521 l 87 521 z "},"Ң":{"ha":608,"x_min":0,"x_max":0,"o":"m 434 -174 l 521 -174 l 521 781 l 347 781 l 347 521 l 174 521 l 174 781 l 0 781 l 0 0 l 174 0 l 174 347 l 347 347 l 347 0 l 434 0 z "},"ң":{"ha":608,"x_min":0,"x_max":0,"o":"m 434 -174 l 521 -174 l 521 694 l 347 694 l 347 434 l 174 434 l 174 694 l 0 694 l 0 0 l 174 0 l 174 260 l 347 260 l 347 0 l 434 0 z "},"Ҥ":{"ha":694,"x_min":0,"x_max":0,"o":"m 0 0 l 174 0 l 174 347 l 347 347 l 347 0 l 521 0 l 521 608 l 608 608 l 608 781 l 347 781 l 347 521 l 174 521 l 174 781 l 0 781 z "},"ҥ":{"ha":694,"x_min":0,"x_max":0,"o":"m 0 0 l 174 0 l 174 260 l 347 260 l 347 0 l 521 0 l 521 521 l 608 521 l 608 694 l 347 694 l 347 434 l 174 434 l 174 694 l 0 694 z "},"Ҧ":{"ha":955,"x_min":0,"x_max":0,"o":"m 0 0 l 174 0 l 174 608 l 347 608 l 347 0 l 521 0 l 521 347 l 694 347 l 694 174 l 608 174 l 608 0 l 781 0 l 781 87 l 868 87 l 868 434 l 781 434 l 781 521 l 521 521 l 521 781 l 0 781 z "},"ҧ":{"ha":955,"x_min":0,"x_max":0,"o":"m 0 0 l 174 0 l 174 521 l 347 521 l 347 0 l 521 0 l 521 347 l 694 347 l 694 174 l 608 174 l 608 0 l 781 0 l 781 87 l 868 87 l 868 434 l 781 434 l 781 521 l 521 521 l 521 694 l 0 694 z "},"Ҩ":{"ha":694,"x_min":0,"x_max":0,"o":"m 260 174 l 174 174 l 174 608 l 260 608 z m 434 260 l 347 260 l 347 608 l 434 608 z m 87 0 l 347 0 l 347 87 l 434 87 l 434 0 l 608 0 l 608 174 l 521 174 l 521 260 l 608 260 l 608 694 l 521 694 l 521 781 l 347 781 l 347 694 l 260 694 l 260 781 l 87 781 l 87 694 l 0 694 l 0 87 l 87 87 z "},"ҩ":{"ha":694,"x_min":0,"x_max":0,"o":"m 260 174 l 174 174 l 174 521 l 260 521 z m 434 260 l 347 260 l 347 521 l 434 521 z m 87 0 l 347 0 l 347 87 l 434 87 l 434 0 l 608 0 l 608 174 l 521 174 l 521 260 l 608 260 l 608 608 l 521 608 l 521 694 l 347 694 l 347 608 l 260 608 l 260 694 l 87 694 l 87 608 l 0 608 l 0 87 l 87 87 z "},"Ҫ":{"ha":608,"x_min":0,"x_max":0,"o":"m 174 -174 l 347 -174 l 347 0 l 434 0 l 434 87 l 521 87 l 521 260 l 347 260 l 347 174 l 174 174 l 174 608 l 347 608 l 347 521 l 521 521 l 521 694 l 434 694 l 434 781 l 87 781 l 87 694 l 0 694 l 0 87 l 87 87 l 87 0 l 174 0 z "},"ҫ":{"ha":608,"x_min":0,"x_max":0,"o":"m 174 -174 l 347 -174 l 347 0 l 434 0 l 434 87 l 521 87 l 521 260 l 347 260 l 347 174 l 174 174 l 174 521 l 347 521 l 347 434 l 521 434 l 521 608 l 434 608 l 434 694 l 87 694 l 87 608 l 0 608 l 0 87 l 87 87 l 87 0 l 174 0 z "},"Ҭ":{"ha":608,"x_min":0,"x_max":0,"o":"m 260 -174 l 434 -174 l 434 87 l 347 87 l 347 608 l 521 608 l 521 781 l 0 781 l 0 608 l 174 608 l 174 0 l 260 0 z "},"ҭ":{"ha":608,"x_min":0,"x_max":0,"o":"m 260 -174 l 434 -174 l 434 87 l 347 87 l 347 521 l 521 521 l 521 694 l 0 694 l 0 521 l 174 521 l 174 0 l 260 0 z "},"Ү":{"ha":608,"x_min":0,"x_max":0,"o":"m 174 0 l 347 0 l 347 260 l 434 260 l 434 434 l 521 434 l 521 781 l 347 781 l 347 434 l 174 434 l 174 781 l 0 781 l 0 434 l 87 434 l 87 260 l 174 260 z "},"ү":{"ha":608,"x_min":0,"x_max":0,"o":"m 174 -174 l 347 -174 l 347 174 l 434 174 l 434 347 l 521 347 l 521 694 l 347 694 l 347 347 l 260 347 l 260 260 l 174 260 l 174 694 l 0 694 l 0 347 l 87 347 l 87 174 l 174 174 z "},"Ұ":{"ha":608,"x_min":0,"x_max":0,"o":"m 174 0 l 347 0 l 347 174 l 521 174 l 521 347 l 434 347 l 434 434 l 521 434 l 521 781 l 347 781 l 347 434 l 174 434 l 174 781 l 0 781 l 0 434 l 87 434 l 87 347 l 0 347 l 0 174 l 174 174 z "},"ұ":{"ha":608,"x_min":0,"x_max":0,"o":"m 174 -174 l 347 -174 l 347 0 l 521 0 l 521 174 l 434 174 l 434 347 l 521 347 l 521 694 l 347 694 l 347 347 l 260 347 l 260 260 l 174 260 l 174 694 l 0 694 l 0 347 l 87 347 l 87 174 l 0 174 l 0 0 l 174 0 z "},"Ҳ":{"ha":608,"x_min":0,"x_max":0,"o":"m 434 -174 l 521 -174 l 521 347 l 434 347 l 434 521 l 521 521 l 521 781 l 347 781 l 347 521 l 174 521 l 174 781 l 0 781 l 0 521 l 87 521 l 87 347 l 0 347 l 0 0 l 174 0 l 174 347 l 347 347 l 347 0 l 434 0 z "},"ҳ":{"ha":608,"x_min":0,"x_max":0,"o":"m 434 -174 l 521 -174 l 521 347 l 434 347 l 434 434 l 521 434 l 521 694 l 347 694 l 347 434 l 174 434 l 174 694 l 0 694 l 0 434 l 87 434 l 87 347 l 0 347 l 0 0 l 174 0 l 174 260 l 347 260 l 347 0 l 434 0 z "},"Ҵ":{"ha":781,"x_min":0,"x_max":0,"o":"m 521 -174 l 694 -174 l 694 174 l 608 174 l 608 781 l 434 781 l 434 174 l 260 174 l 260 608 l 347 608 l 347 781 l 0 781 l 0 608 l 87 608 l 87 0 l 521 0 z "},"ҵ":{"ha":781,"x_min":0,"x_max":0,"o":"m 521 -174 l 694 -174 l 694 174 l 608 174 l 608 694 l 434 694 l 434 174 l 260 174 l 260 521 l 347 521 l 347 694 l 0 694 l 0 521 l 87 521 l 87 0 l 521 0 z "},"Ҷ":{"ha":608,"x_min":0,"x_max":0,"o":"m 434 -174 l 521 -174 l 521 781 l 347 781 l 347 434 l 174 434 l 174 781 l 0 781 l 0 347 l 87 347 l 87 260 l 347 260 l 347 0 l 434 0 z "},"ҷ":{"ha":608,"x_min":0,"x_max":0,"o":"m 434 -174 l 521 -174 l 521 694 l 347 694 l 347 434 l 174 434 l 174 694 l 0 694 l 0 347 l 87 347 l 87 260 l 347 260 l 347 0 l 434 0 z "},"Ҹ":{"ha":694,"x_min":0,"x_max":0,"o":"m 434 0 l 608 0 l 608 781 l 434 781 l 434 434 l 347 434 l 347 521 l 260 521 l 260 434 l 174 434 l 174 781 l 0 781 l 0 347 l 87 347 l 87 260 l 260 260 l 260 174 l 347 174 l 347 260 l 434 260 z "},"ҹ":{"ha":694,"x_min":0,"x_max":0,"o":"m 434 0 l 608 0 l 608 694 l 434 694 l 434 434 l 347 434 l 347 521 l 260 521 l 260 434 l 174 434 l 174 694 l 0 694 l 0 347 l 87 347 l 87 260 l 260 260 l 260 174 l 347 174 l 347 260 l 434 260 z "},"Һ":{"ha":608,"x_min":0,"x_max":0,"o":"m 0 0 l 174 0 l 174 347 l 347 347 l 347 0 l 521 0 l 521 434 l 434 434 l 434 521 l 174 521 l 174 781 l 0 781 z "},"һ":{"ha":608,"x_min":0,"x_max":0,"o":"m 0 0 l 174 0 l 174 521 l 347 521 l 347 0 l 521 0 l 521 608 l 434 608 l 434 694 l 174 694 l 174 868 l 0 868 z "},"Ҽ":{"ha":694,"x_min":0,"x_max":0,"o":"m 434 521 l 260 521 l 260 608 l 434 608 z m 174 0 l 521 0 l 521 87 l 608 87 l 608 260 l 434 260 l 434 174 l 260 174 l 260 347 l 608 347 l 608 694 l 521 694 l 521 781 l 174 781 l 174 694 l 87 694 l 87 608 l 0 608 l 0 347 l 87 347 l 87 87 l 174 87 z "},"ҽ":{"ha":694,"x_min":0,"x_max":0,"o":"m 434 434 l 260 434 l 260 521 l 434 521 z m 174 0 l 608 0 l 608 174 l 260 174 l 260 260 l 608 260 l 608 608 l 521 608 l 521 694 l 174 694 l 174 608 l 87 608 l 87 521 l 0 521 l 0 260 l 87 260 l 87 87 l 174 87 z "},"Ҿ":{"ha":694,"x_min":0,"x_max":0,"o":"m 434 521 l 260 521 l 260 608 l 434 608 z m 260 -174 l 434 -174 l 434 0 l 521 0 l 521 87 l 608 87 l 608 260 l 434 260 l 434 174 l 260 174 l 260 347 l 608 347 l 608 694 l 521 694 l 521 781 l 174 781 l 174 694 l 87 694 l 87 608 l 0 608 l 0 347 l 87 347 l 87 87 l 174 87 l 174 0 l 260 0 z "},"ҿ":{"ha":694,"x_min":0,"x_max":0,"o":"m 434 434 l 260 434 l 260 521 l 434 521 z m 174 0 l 608 0 l 608 174 l 260 174 l 260 260 l 608 260 l 608 608 l 521 608 l 521 694 l 174 694 l 174 608 l 87 608 l 87 521 l 0 521 l 0 260 l 87 260 l 87 87 l 174 87 z "},"Ӏ":{"ha":260,"x_min":0,"x_max":0,"o":"m 0 0 l 174 0 l 174 781 l 0 781 z "},"Ӂ":{"ha":781,"x_min":0,"x_max":0,"o":"m 0 0 l 174 0 l 174 347 l 260 347 l 260 0 l 434 0 l 434 347 l 521 347 l 521 0 l 694 0 l 694 434 l 608 434 l 608 521 l 694 521 l 694 781 l 521 781 l 521 521 l 434 521 l 434 781 l 260 781 l 260 521 l 174 521 l 174 781 l 0 781 l 0 521 l 87 521 l 87 434 l 0 434 z m 260 868 l 434 868 l 434 955 l 521 955 l 521 1042 l 174 1042 l 174 955 l 260 955 z "},"ӂ":{"ha":781,"x_min":0,"x_max":0,"o":"m 0 0 l 174 0 l 174 260 l 260 260 l 260 0 l 434 0 l 434 260 l 521 260 l 521 0 l 694 0 l 694 347 l 608 347 l 608 434 l 694 434 l 694 694 l 521 694 l 521 434 l 434 434 l 434 694 l 260 694 l 260 434 l 174 434 l 174 694 l 0 694 l 0 434 l 87 434 l 87 347 l 0 347 z m 260 781 l 434 781 l 434 868 l 521 868 l 521 955 l 174 955 l 174 868 l 260 868 z "},"Ӄ":{"ha":608,"x_min":0,"x_max":0,"o":"m 0 0 l 174 0 l 174 347 l 347 347 l 347 174 l 260 174 l 260 0 l 434 0 l 434 87 l 521 87 l 521 347 l 434 347 l 434 521 l 521 521 l 521 781 l 347 781 l 347 521 l 174 521 l 174 781 l 0 781 z "},"ӄ":{"ha":608,"x_min":0,"x_max":0,"o":"m 0 0 l 174 0 l 174 260 l 347 260 l 347 174 l 260 174 l 260 0 l 434 0 l 434 87 l 521 87 l 521 347 l 434 347 l 434 434 l 521 434 l 521 694 l 347 694 l 347 434 l 174 434 l 174 694 l 0 694 z "},"Ӆ":{"ha":694,"x_min":0,"x_max":0,"o":"m 521 -174 l 608 -174 l 608 781 l 174 781 l 174 694 l 87 694 l 87 174 l 0 174 l 0 0 l 174 0 l 174 87 l 260 87 l 260 608 l 434 608 l 434 0 l 521 0 z "},"ӆ":{"ha":694,"x_min":0,"x_max":0,"o":"m 521 -174 l 608 -174 l 608 694 l 174 694 l 174 608 l 87 608 l 87 174 l 0 174 l 0 0 l 174 0 l 174 87 l 260 87 l 260 521 l 434 521 l 434 0 l 521 0 z "},"Ӈ":{"ha":608,"x_min":0,"x_max":0,"o":"m 260 -174 l 434 -174 l 434 -87 l 521 -87 l 521 781 l 347 781 l 347 521 l 174 521 l 174 781 l 0 781 l 0 0 l 174 0 l 174 347 l 347 347 l 347 0 l 260 0 z "},"ӈ":{"ha":608,"x_min":0,"x_max":0,"o":"m 260 -174 l 434 -174 l 434 -87 l 521 -87 l 521 694 l 347 694 l 347 434 l 174 434 l 174 694 l 0 694 l 0 0 l 174 0 l 174 260 l 347 260 l 347 0 l 260 0 z "},"Ӊ":{"ha":608,"x_min":0,"x_max":0,"o":"m 434 -174 l 521 -174 l 521 781 l 347 781 l 347 521 l 174 521 l 174 781 l 0 781 l 0 0 l 174 0 l 174 347 l 347 347 l 347 0 l 434 0 z "},"ӊ":{"ha":608,"x_min":0,"x_max":0,"o":"m 434 -174 l 521 -174 l 521 694 l 347 694 l 347 434 l 174 434 l 174 694 l 0 694 l 0 0 l 174 0 l 174 260 l 347 260 l 347 0 l 434 0 z "},"Ӌ":{"ha":608,"x_min":0,"x_max":0,"o":"m 260 -174 l 434 -174 l 434 0 l 521 0 l 521 781 l 347 781 l 347 434 l 174 434 l 174 781 l 0 781 l 0 347 l 87 347 l 87 260 l 347 260 l 347 87 l 260 87 z "},"ӌ":{"ha":608,"x_min":0,"x_max":0,"o":"m 260 -174 l 434 -174 l 434 0 l 521 0 l 521 694 l 347 694 l 347 434 l 174 434 l 174 694 l 0 694 l 0 347 l 87 347 l 87 260 l 347 260 l 347 87 l 260 87 z "},"Ӎ":{"ha":781,"x_min":0,"x_max":0,"o":"m 608 -174 l 694 -174 l 694 781 l 434 781 l 434 694 l 347 694 l 347 781 l 0 781 l 0 0 l 174 0 l 174 608 l 260 608 l 260 0 l 434 0 l 434 608 l 521 608 l 521 0 l 608 0 z "},"ӎ":{"ha":781,"x_min":0,"x_max":0,"o":"m 608 -174 l 694 -174 l 694 694 l 434 694 l 434 608 l 347 608 l 347 694 l 0 694 l 0 0 l 174 0 l 174 521 l 260 521 l 260 0 l 434 0 l 434 521 l 521 521 l 521 0 l 608 0 z "},"ӏ":{"ha":260,"x_min":0,"x_max":0,"o":"m 0 0 l 174 0 l 174 868 l 0 868 z "},"Ӑ":{"ha":608,"x_min":0,"x_max":0,"o":"m 347 434 l 174 434 l 174 608 l 347 608 z m 0 0 l 174 0 l 174 260 l 347 260 l 347 0 l 521 0 l 521 694 l 434 694 l 434 781 l 87 781 l 87 694 l 0 694 z m 174 868 l 347 868 l 347 955 l 434 955 l 434 1042 l 87 1042 l 87 955 l 174 955 z "},"ӑ":{"ha":608,"x_min":0,"x_max":0,"o":"m 347 174 l 174 174 l 174 260 l 347 260 z m 87 0 l 521 0 l 521 608 l 434 608 l 434 694 l 0 694 l 0 521 l 347 521 l 347 434 l 87 434 l 87 347 l 0 347 l 0 87 l 87 87 z m 174 781 l 347 781 l 347 868 l 434 868 l 434 955 l 87 955 l 87 868 l 174 868 z "},"Ӓ":{"ha":608,"x_min":0,"x_max":0,"o":"m 347 434 l 174 434 l 174 608 l 347 608 z m 0 0 l 174 0 l 174 260 l 347 260 l 347 0 l 521 0 l 521 694 l 434 694 l 434 781 l 87 781 l 87 694 l 0 694 z m 87 868 l 174 868 l 174 955 l 87 955 z m 347 868 l 434 868 l 434 955 l 347 955 z "},"ӓ":{"ha":608,"x_min":0,"x_max":0,"o":"m 347 174 l 174 174 l 174 260 l 347 260 z m 87 0 l 521 0 l 521 608 l 434 608 l 434 694 l 0 694 l 0 521 l 347 521 l 347 434 l 87 434 l 87 347 l 0 347 l 0 87 l 87 87 z m 87 781 l 174 781 l 174 868 l 87 868 z m 347 781 l 434 781 l 434 868 l 347 868 z "},"Ӕ":{"ha":868,"x_min":0,"x_max":0,"o":"m 347 434 l 174 434 l 174 608 l 347 608 z m 0 0 l 174 0 l 174 260 l 347 260 l 347 0 l 781 0 l 781 174 l 521 174 l 521 347 l 694 347 l 694 521 l 521 521 l 521 608 l 781 608 l 781 781 l 87 781 l 87 694 l 0 694 z "},"ӕ":{"ha":781,"x_min":0,"x_max":0,"o":"m 260 174 l 174 174 l 174 260 l 260 260 z m 521 434 l 434 434 l 434 521 l 521 521 z m 87 0 l 347 0 l 347 87 l 434 87 l 434 0 l 694 0 l 694 174 l 434 174 l 434 260 l 694 260 l 694 608 l 608 608 l 608 694 l 434 694 l 434 608 l 347 608 l 347 694 l 0 694 l 0 521 l 260 521 l 260 434 l 87 434 l 87 347 l 0 347 l 0 87 l 87 87 z "},"Ӗ":{"ha":608,"x_min":0,"x_max":0,"o":"m 0 0 l 521 0 l 521 174 l 174 174 l 174 347 l 434 347 l 434 521 l 174 521 l 174 608 l 521 608 l 521 781 l 0 781 z m 174 868 l 347 868 l 347 955 l 434 955 l 434 1042 l 87 1042 l 87 955 l 174 955 z "},"ӗ":{"ha":608,"x_min":0,"x_max":0,"o":"m 347 434 l 174 434 l 174 521 l 347 521 z m 87 0 l 521 0 l 521 174 l 174 174 l 174 260 l 521 260 l 521 608 l 434 608 l 434 694 l 87 694 l 87 608 l 0 608 l 0 87 l 87 87 z m 174 781 l 347 781 l 347 868 l 434 868 l 434 955 l 87 955 l 87 868 l 174 868 z "},"Ә":{"ha":608,"x_min":0,"x_max":0,"o":"m 347 174 l 174 174 l 174 260 l 347 260 z m 87 0 l 434 0 l 434 87 l 521 87 l 521 694 l 434 694 l 434 781 l 87 781 l 87 694 l 0 694 l 0 521 l 174 521 l 174 608 l 347 608 l 347 434 l 0 434 l 0 87 l 87 87 z "},"ә":{"ha":608,"x_min":0,"x_max":0,"o":"m 347 174 l 174 174 l 174 260 l 347 260 z m 87 0 l 434 0 l 434 87 l 521 87 l 521 608 l 434 608 l 434 694 l 0 694 l 0 521 l 347 521 l 347 434 l 0 434 l 0 87 l 87 87 z "},"Ӛ":{"ha":608,"x_min":0,"x_max":0,"o":"m 347 174 l 174 174 l 174 260 l 347 260 z m 87 0 l 434 0 l 434 87 l 521 87 l 521 694 l 434 694 l 434 781 l 87 781 l 87 694 l 0 694 l 0 521 l 174 521 l 174 608 l 347 608 l 347 434 l 0 434 l 0 87 l 87 87 z m 87 868 l 174 868 l 174 955 l 87 955 z m 347 868 l 434 868 l 434 955 l 347 955 z "},"ӛ":{"ha":608,"x_min":0,"x_max":0,"o":"m 347 174 l 174 174 l 174 260 l 347 260 z m 87 0 l 434 0 l 434 87 l 521 87 l 521 608 l 434 608 l 434 694 l 0 694 l 0 521 l 347 521 l 347 434 l 0 434 l 0 87 l 87 87 z m 87 781 l 174 781 l 174 868 l 87 868 z m 347 781 l 434 781 l 434 868 l 347 868 z "},"Ӝ":{"ha":781,"x_min":0,"x_max":0,"o":"m 0 0 l 174 0 l 174 347 l 260 347 l 260 0 l 434 0 l 434 347 l 521 347 l 521 0 l 694 0 l 694 434 l 608 434 l 608 521 l 694 521 l 694 781 l 521 781 l 521 521 l 434 521 l 434 781 l 260 781 l 260 521 l 174 521 l 174 781 l 0 781 l 0 521 l 87 521 l 87 434 l 0 434 z m 174 868 l 260 868 l 260 955 l 174 955 z m 434 868 l 521 868 l 521 955 l 434 955 z "},"ӝ":{"ha":781,"x_min":0,"x_max":0,"o":"m 0 0 l 174 0 l 174 260 l 260 260 l 260 0 l 434 0 l 434 260 l 521 260 l 521 0 l 694 0 l 694 347 l 608 347 l 608 434 l 694 434 l 694 694 l 521 694 l 521 434 l 434 434 l 434 694 l 260 694 l 260 434 l 174 434 l 174 694 l 0 694 l 0 434 l 87 434 l 87 347 l 0 347 z m 174 781 l 260 781 l 260 868 l 174 868 z m 434 781 l 521 781 l 521 868 l 434 868 z "},"Ӟ":{"ha":608,"x_min":0,"x_max":0,"o":"m 87 0 l 434 0 l 434 87 l 521 87 l 521 434 l 434 434 l 434 521 l 521 521 l 521 694 l 434 694 l 434 781 l 87 781 l 87 694 l 0 694 l 0 521 l 174 521 l 174 608 l 347 608 l 347 521 l 174 521 l 174 347 l 347 347 l 347 174 l 174 174 l 174 260 l 0 260 l 0 87 l 87 87 z m 87 868 l 174 868 l 174 955 l 87 955 z m 347 868 l 434 868 l 434 955 l 347 955 z "},"ӟ":{"ha":608,"x_min":0,"x_max":0,"o":"m 87 0 l 434 0 l 434 87 l 521 87 l 521 347 l 434 347 l 434 434 l 521 434 l 521 608 l 434 608 l 434 694 l 87 694 l 87 608 l 0 608 l 0 434 l 174 434 l 174 521 l 347 521 l 347 434 l 174 434 l 174 260 l 347 260 l 347 174 l 174 174 l 174 260 l 0 260 l 0 87 l 87 87 z m 87 781 l 174 781 l 174 868 l 87 868 z m 347 781 l 434 781 l 434 868 l 347 868 z "},"Ӡ":{"ha":608,"x_min":0,"x_max":0,"o":"m 87 0 l 434 0 l 434 87 l 521 87 l 521 434 l 434 434 l 434 521 l 521 521 l 521 781 l 0 781 l 0 608 l 347 608 l 347 521 l 174 521 l 174 347 l 347 347 l 347 174 l 174 174 l 174 260 l 0 260 l 0 87 l 87 87 z "},"ӡ":{"ha":608,"x_min":0,"x_max":0,"o":"m 0 0 l 434 0 l 434 87 l 521 87 l 521 347 l 434 347 l 434 434 l 521 434 l 521 694 l 0 694 l 0 521 l 347 521 l 347 434 l 87 434 l 87 260 l 347 260 l 347 174 l 0 174 z "},"Ӣ":{"ha":608,"x_min":0,"x_max":0,"o":"m 0 0 l 174 0 l 174 87 l 260 87 l 260 174 l 347 174 l 347 0 l 521 0 l 521 781 l 347 781 l 347 434 l 260 434 l 260 347 l 174 347 l 174 781 l 0 781 z m 87 868 l 434 868 l 434 955 l 87 955 z "},"ӣ":{"ha":608,"x_min":0,"x_max":0,"o":"m 0 0 l 174 0 l 174 87 l 260 87 l 260 174 l 347 174 l 347 0 l 521 0 l 521 694 l 347 694 l 347 434 l 260 434 l 260 347 l 174 347 l 174 694 l 0 694 z m 87 781 l 434 781 l 434 868 l 87 868 z "},"Ӥ":{"ha":608,"x_min":0,"x_max":0,"o":"m 0 0 l 174 0 l 174 87 l 260 87 l 260 174 l 347 174 l 347 0 l 521 0 l 521 781 l 347 781 l 347 434 l 260 434 l 260 347 l 174 347 l 174 781 l 0 781 z m 87 868 l 174 868 l 174 955 l 87 955 z m 347 868 l 434 868 l 434 955 l 347 955 z "},"ӥ":{"ha":608,"x_min":0,"x_max":0,"o":"m 0 0 l 174 0 l 174 87 l 260 87 l 260 174 l 347 174 l 347 0 l 521 0 l 521 694 l 347 694 l 347 434 l 260 434 l 260 347 l 174 347 l 174 694 l 0 694 z m 87 781 l 174 781 l 174 868 l 87 868 z m 347 781 l 434 781 l 434 868 l 347 868 z "},"Ӧ":{"ha":608,"x_min":0,"x_max":0,"o":"m 347 174 l 174 174 l 174 608 l 347 608 z m 87 0 l 434 0 l 434 87 l 521 87 l 521 694 l 434 694 l 434 781 l 87 781 l 87 694 l 0 694 l 0 87 l 87 87 z m 87 868 l 174 868 l 174 955 l 87 955 z m 347 868 l 434 868 l 434 955 l 347 955 z "},"ӧ":{"ha":608,"x_min":0,"x_max":0,"o":"m 347 174 l 174 174 l 174 521 l 347 521 z m 87 0 l 434 0 l 434 87 l 521 87 l 521 608 l 434 608 l 434 694 l 87 694 l 87 608 l 0 608 l 0 87 l 87 87 z m 87 781 l 174 781 l 174 868 l 87 868 z m 347 781 l 434 781 l 434 868 l 347 868 z "},"Ө":{"ha":608,"x_min":0,"x_max":0,"o":"m 347 174 l 174 174 l 174 347 l 347 347 z m 347 434 l 174 434 l 174 608 l 347 608 z m 87 0 l 434 0 l 434 87 l 521 87 l 521 694 l 434 694 l 434 781 l 87 781 l 87 694 l 0 694 l 0 87 l 87 87 z "},"ө":{"ha":608,"x_min":0,"x_max":0,"o":"m 347 174 l 174 174 l 174 347 l 347 347 z m 347 434 l 174 434 l 174 521 l 347 521 z m 87 0 l 434 0 l 434 87 l 521 87 l 521 608 l 434 608 l 434 694 l 87 694 l 87 608 l 0 608 l 0 87 l 87 87 z "}}}
